<svg width="140" height="127" viewBox="0 0 140 127" fill="none" xmlns="http://www.w3.org/2000/svg">
<rect x="13" y="102" width="23" height="24" rx="11.5" fill="#88B89D"/>
<rect x="104" y="102" width="23" height="24" rx="11.5" fill="#88B89D"/>
<mask id="mask0_2088_116" style="mask-type:luminance" maskUnits="userSpaceOnUse" x="0" y="27" width="140" height="100">
<path d="M139.824 27H0V127H139.824V27Z" fill="white"/>
</mask>
<g mask="url(#mask0_2088_116)">
<path d="M138.952 72.012C137.292 68.6116 135.549 65.1759 133.864 61.8531C132.519 59.2018 131.128 56.4602 129.785 53.7483C128.43 51.0126 126.464 49.7898 123.415 49.7898C123.396 49.7898 123.377 49.79 123.357 49.79C118.951 49.8125 114.472 49.8097 110.142 49.8067C105.825 49.8047 101.361 49.8014 96.9722 49.8234C96.9573 49.8234 96.9424 49.8234 96.9272 49.8234C96.2281 49.8234 95.4455 49.7385 94.875 49.1604C94.284 48.5619 94.2295 47.7186 94.2401 47.1365C94.2737 45.2686 94.2651 43.3624 94.2565 41.5185C94.2451 39.0533 94.2332 36.5043 94.3221 33.9894C94.3956 31.9051 93.7908 30.1436 92.5732 28.8955C91.3423 27.6335 89.5479 26.9685 87.3924 27.0004C77.7904 27.0989 68.0296 27.0799 58.5915 27.0615C55.1429 27.0549 51.6941 27.0481 48.2458 27.0468V27.0567L38.6382 27.0554C28.1751 27.0536 17.355 27.0511 6.71382 27.0794C5.3945 27.0829 4.43708 27.2271 3.70039 27.534C1.21428 28.5692 0.0060738 30.5159 0.00632635 33.4861C0.0075891 51.3228 0.0075891 69.1592 0.00733655 86.9956V103.048C0.00733655 103.719 0.0055687 104.389 0.00354829 105.06C-0.000492519 106.549 -0.00453333 108.09 0.0123876 109.601C0.0452192 112.55 1.95602 114.884 4.76767 115.409C6.11124 115.66 7.59396 115.618 9.0282 115.579C10.6336 115.534 11.5507 116.195 12.0045 117.722C13.6279 123.183 18.6946 126.982 24.3408 126.982C24.3638 126.982 24.3865 126.982 24.4093 126.981C30.1452 126.95 35.2637 123.093 36.8565 117.6C37.129 116.661 37.673 115.582 39.4752 115.582C39.4772 115.582 39.481 115.582 39.481 115.582C58.9817 115.612 78.8022 115.612 100.077 115.585C100.08 115.585 100.083 115.585 100.086 115.585C101.225 115.585 102.461 115.842 103.004 117.729C104.471 122.826 109.136 126.537 114.61 126.964C119.914 127.375 125.217 124.207 126.948 119.59C128.285 116.026 130.347 115.411 133.462 115.549C135.245 115.627 136.798 115.092 137.945 113.997C139.147 112.848 139.81 111.148 139.812 109.21L139.816 104.53C139.826 95.0181 139.836 85.1822 139.773 75.5108C139.766 74.3418 139.467 73.0666 138.952 72.012ZM31.2895 120.878C29.4507 122.722 27.0295 123.736 24.4701 123.736C24.4633 123.736 24.4565 123.736 24.4497 123.736C19.7641 123.727 15.8097 120.409 14.8581 116.021C14.7901 115.708 14.7373 115.389 14.701 115.065C14.6646 114.742 14.6441 114.413 14.6409 114.081C14.6143 111.445 15.6038 108.977 17.4275 107.134C19.278 105.264 21.7855 104.233 24.4886 104.231C24.4906 104.231 24.4949 104.231 24.4949 104.231C29.8805 104.231 34.1183 108.511 34.1449 113.979C34.1572 116.569 33.1432 119.019 31.2895 120.878ZM90.5233 111.826C89.9639 112.382 89.2401 112.382 88.144 112.382L78.4483 112.382C65.7374 112.379 52.5944 112.379 39.6679 112.397C39.6646 112.397 39.6616 112.397 39.6583 112.397C38.6198 112.397 37.3674 112.167 36.8674 110.402C35.3043 104.881 30.3781 101.106 24.609 101.008C24.529 101.007 24.4484 101.006 24.3686 101.006C18.6047 101.006 13.7963 104.521 12.0785 110.017C11.8636 110.704 11.3223 112.434 9.26686 112.435C9.07719 112.435 8.87515 112.42 8.65897 112.388C8.2862 112.333 7.86318 112.348 7.41591 112.362C7.16715 112.37 6.91915 112.378 6.67064 112.376C4.31484 112.357 3.26322 111.314 3.2607 108.993C3.25362 101.797 3.25261 94.6009 3.25211 87.4044L3.25186 52.3097L3.25211 34.7625C3.25211 34.6276 3.25085 34.4928 3.24958 34.3577C3.2463 34.024 3.24327 33.6791 3.25792 33.3263C3.34252 31.2831 4.37849 30.2881 6.42516 30.2843C10.7776 30.2765 15.1303 30.277 19.4823 30.2785L57.9099 30.284C67.7225 30.2838 77.5361 30.284 87.3492 30.283C87.3517 30.283 87.3543 30.283 87.3563 30.283C88.4723 30.283 89.5343 30.3434 90.2669 31.0596C91.0122 31.7882 91.0746 32.8906 91.0748 33.9576C91.0789 59.1218 91.0822 84.2862 91.0847 109.451C91.0852 110.545 91.0852 111.267 90.5233 111.826ZM122.326 120.832C120.461 122.708 118.006 123.74 115.411 123.74C115.404 123.74 115.397 123.74 115.39 123.74C112.792 123.735 110.353 122.715 108.52 120.87C106.669 119.006 105.657 116.523 105.67 113.881C105.697 108.465 109.979 104.225 115.418 104.225C115.42 104.225 115.422 104.225 115.425 104.225C120.096 104.228 124.032 107.552 124.972 111.957C125.107 112.587 125.18 113.238 125.185 113.904C125.206 116.495 124.191 118.956 122.326 120.832ZM136.565 106.177L136.564 108.682C136.563 109.922 136.421 110.888 135.724 111.57C135.038 112.241 134.069 112.38 132.825 112.38C132.819 112.38 132.814 112.38 132.808 112.38C132.554 112.38 132.265 112.404 131.96 112.429C131.622 112.457 131.268 112.487 130.912 112.487C130.295 112.487 129.673 112.398 129.124 112.057C128.258 111.52 127.92 110.513 127.621 109.624C127.527 109.344 127.438 109.079 127.343 108.857C125.08 103.609 120.108 100.69 114.039 101.055C109.088 101.351 104.426 105.264 102.954 110.359C102.53 111.828 101.6 112.496 100.11 112.396C99.0582 112.327 97.9599 112.325 96.8461 112.39C96.3042 112.421 95.5132 112.398 94.9139 111.827C94.3098 111.252 94.2479 110.448 94.254 109.895C94.2875 106.824 94.2822 103.699 94.2774 100.676C94.2752 99.3784 94.2729 98.0805 94.2737 96.7827C94.2744 95.5025 94.2782 94.222 94.282 92.9416C94.2853 91.8662 94.2886 90.7906 94.2898 89.7155C94.2918 88.0967 94.2913 86.4778 94.2908 84.8592L94.2903 75.6252C94.2911 68.9948 94.2916 62.139 94.2729 55.3964C94.2711 54.8363 94.3376 54.1248 94.8689 53.5934C95.398 53.0646 96.1046 52.9994 96.5974 52.9994C96.6037 52.9994 96.6103 52.9994 96.6163 52.9994C104.964 53.0257 113.754 53.0255 123.489 52.9989C123.494 52.9989 123.499 52.9989 123.504 52.9989C125.009 52.9989 126.06 53.6359 126.717 54.9459C128.003 57.5098 129.295 60.0706 130.587 62.6312C132.371 66.1667 134.216 69.8226 136.013 73.428C136.356 74.1145 136.545 74.981 136.547 75.8679C136.57 85.9712 136.567 96.2432 136.565 106.177Z" fill="#363636"/>
<path d="M124.972 111.957C124.032 107.552 120.095 104.227 115.424 104.225C120.096 104.228 124.032 107.552 124.972 111.957Z" fill="#88B89D"/>
<path d="M38.5668 74.7454L26.5936 62.6947L24.3037 64.901L27.0914 67.6937C30.3654 70.9743 33.7506 74.3666 37.0939 77.6873C38.3524 78.9372 39.0562 78.9216 40.368 77.6096C49.311 68.6675 58.2521 59.7247 67.1916 50.7786L64.7765 48.2351L38.5668 74.7454Z" fill="#363636"/>
<path d="M121.841 66.2982C121.173 64.9733 120.506 63.6484 119.839 62.3231C119.433 61.5159 118.862 61.1704 117.933 61.1704C117.927 61.1704 117.921 61.1704 117.916 61.1704C115.662 61.1805 113.373 61.1785 111.16 61.1767C108.948 61.1747 106.663 61.1727 104.417 61.183C102.904 61.1899 102.466 61.6288 102.462 63.1393C102.446 69.1121 102.445 74.3927 102.459 79.2818C102.464 81.0363 102.845 81.4164 104.61 81.4225C107.249 81.431 109.888 81.4283 112.527 81.4262L115.33 81.424C115.407 81.424 115.484 81.424 115.561 81.424C116.629 81.424 117.698 81.4262 118.766 81.4288C121.317 81.4341 123.955 81.4401 126.546 81.4121C127.311 81.404 127.918 81.1244 128.212 80.6454C128.5 80.1754 128.478 79.5503 128.148 78.8858C126.064 74.6819 123.917 70.4198 121.841 66.2982ZM122.168 78.1486C122.038 78.1615 121.915 78.1764 121.795 78.1911C121.514 78.2254 121.224 78.2608 120.913 78.261C119.528 78.2623 118.14 78.2598 116.753 78.257C113.94 78.2517 111.031 78.2464 108.174 78.2752C108.151 78.2754 108.127 78.2754 108.104 78.2754C107.513 78.2754 106.786 78.1938 106.247 77.6488C105.683 77.0776 105.633 76.302 105.645 75.7683C105.705 73.0552 105.708 70.1375 105.655 66.8493C105.646 66.2586 105.706 65.5095 106.262 64.9584C106.821 64.4041 107.569 64.3568 108.082 64.3695C109.317 64.4 110.58 64.3955 111.803 64.3907C113.021 64.3859 114.282 64.3818 115.528 64.4109C116.177 64.4265 117.376 64.7786 117.834 65.659C119.326 68.5267 120.779 71.4682 122.185 74.3129L122.99 75.9426C123.131 76.2267 123.152 76.4914 123.166 76.6846C123.171 76.7361 123.174 76.794 123.183 76.8591L123.349 78.034L122.168 78.1486Z" fill="#363636"/>
</g>
</svg>
