<svg width="140" height="127" viewBox="0 0 140 127" fill="none" xmlns="http://www.w3.org/2000/svg">
<path d="M12.5 115L13 109.5L127 109V114V119.5L124.5 123.5L120 125.5H20.5L17.5 124.5L13.5 121L12.5 115Z" fill="#88B89D"/>
<mask id="mask0_2088_98" style="mask-type:luminance" maskUnits="userSpaceOnUse" x="11" y="0" width="118" height="127">
<path d="M128.789 0H11V127H128.789V0Z" fill="white"/>
</mask>
<g mask="url(#mask0_2088_98)">
<path d="M128.767 115.776L127.947 103.309L124.271 47.4306C123.908 41.9125 119.291 37.5898 113.76 37.5898H108.047L107.915 36.8908C103.88 15.5148 87.8906 0 69.8955 0C51.9005 0 35.9105 15.5148 31.8757 36.8908L31.7438 37.5898H26.0303C20.5001 37.5898 15.8827 41.9129 15.5184 47.4318L11.8428 103.309L11.0227 115.776C10.8334 118.672 11.8621 121.548 13.8456 123.666C15.8281 125.785 18.6307 127 21.5345 127H118.256C121.16 127 123.962 125.785 125.944 123.667C127.928 121.547 128.957 118.671 128.767 115.776ZM34.832 36.5591C36.7674 27.1228 41.2548 18.5749 47.4678 12.4896C53.9132 6.17666 61.6685 2.84009 69.8955 2.84009C78.1223 2.84009 85.8777 6.17691 92.3231 12.4896C98.536 18.5749 103.023 27.1228 104.959 36.5591L105.17 37.5895H34.6207L34.832 36.5591ZM14.6907 103.309L18.3543 47.6172C18.6199 43.5867 21.9915 40.4296 26.0303 40.4296H31.3152L31.214 41.379C30.996 43.4195 30.8855 45.4969 30.8855 47.5529V52.6785C30.8855 53.4616 31.5227 54.0988 32.3055 54.0988C33.0883 54.0988 33.7255 53.4616 33.7255 52.6785V47.5529C33.7255 45.4371 33.8494 43.2962 34.0933 41.1892L34.1811 40.4296H105.61L105.697 41.1894C105.941 43.2977 106.064 45.4388 106.064 47.5529V52.6785C106.064 53.4616 106.702 54.0988 107.485 54.0988C108.268 54.0988 108.905 53.4616 108.905 52.6785V47.5529C108.905 45.4962 108.794 43.419 108.576 41.379L108.475 40.4296H113.76C117.799 40.4296 121.171 43.5863 121.436 47.6162L125.1 103.309L125.413 108.077H14.3771L14.6907 103.309ZM123.873 121.724L123.872 121.725C122.4 123.294 120.405 124.159 118.256 124.159H21.5345C19.3826 124.159 17.3881 123.294 15.9181 121.724C14.4492 120.155 13.7176 118.108 13.8588 115.961L14.2085 110.645H125.582L125.932 115.961C126.074 118.106 125.343 120.153 123.873 121.724Z" fill="#363636"/>
</g>
</svg>
