<svg width="140" height="127" viewBox="0 0 140 127" fill="none" xmlns="http://www.w3.org/2000/svg">
<rect x="88" y="63" width="42" height="43" rx="21" fill="#88B89D"/>
<mask id="mask0_2088_176" style="mask-type:luminance" maskUnits="userSpaceOnUse" x="0" y="0" width="139" height="127">
<path d="M139 0H0V127H139V0Z" fill="white"/>
</mask>
<g mask="url(#mask0_2088_176)">
<path d="M17.318 100.235C17.318 99.3204 17.318 98.6387 17.318 97.9569C17.3183 71.2394 17.3098 44.522 17.3244 17.8045C17.3285 9.96997 21.7729 3.42786 28.881 1.0294C30.8003 0.381688 32.9185 0.0516107 34.9465 0.047464C64.7674 -0.0139072 94.5883 -0.00450804 124.409 0.0112494C130.958 0.0148432 137.606 5.66652 138.583 12.6863C139.219 17.2566 138.93 21.9622 138.959 26.6077C138.966 27.7621 138.103 28.454 136.95 28.4811C134.611 28.5359 132.271 28.5024 129.931 28.503C126.631 28.5041 123.331 28.5033 119.902 28.5033C119.902 27.2075 119.902 26 119.902 24.657C124.856 24.657 129.792 24.657 134.724 24.657C134.839 24.3784 134.965 24.2147 134.964 24.0522C134.936 20.8302 135.101 17.5891 134.809 14.3904C134.245 8.222 128.49 3.61031 122.063 3.91883C116.12 4.20412 111.16 9.38391 111.141 15.5188C111.095 30.3975 111.137 45.2767 111.104 60.1553C111.101 61.2274 111.457 61.5666 112.482 61.6832C123.816 62.9712 132.692 73.3006 132.468 84.8885C132.237 96.7804 123.896 106.234 112.149 107.861C111.287 107.98 111.14 108.346 111.109 109.104C111.036 110.894 111.073 112.724 110.701 114.459C109.086 121.977 102.755 126.97 94.8761 126.983C77.9015 127.011 60.9266 126.993 43.952 126.994C37.6208 126.994 31.2896 127.01 24.9584 126.988C13.1052 126.947 3.3514 119.217 0.620957 107.654C0.253393 106.098 0.114076 104.473 0.0119289 102.871C-0.107564 100.998 0.647114 100.251 2.52155 100.243C6.88002 100.225 11.2385 100.235 15.5969 100.235C16.0936 100.235 16.5903 100.235 17.318 100.235ZM107.07 61.6089C107.07 60.9838 107.07 60.4439 107.07 59.9043C107.07 45.991 107.157 32.0766 107.026 18.1644C106.976 12.8373 108.169 8.14266 112.02 4.3205C112.069 4.2724 112.056 4.16155 112.092 3.97052C111.687 3.9473 111.293 3.905 110.9 3.90473C85.4802 3.90252 60.0599 3.90252 34.6398 3.91081C33.9088 3.91109 33.1643 3.93099 32.4487 4.06424C25.7167 5.31958 21.2506 10.6697 21.2448 17.6065C21.2222 44.6041 21.2431 71.6016 21.2029 98.5991C21.201 99.9587 21.6132 100.263 22.9116 100.26C41.082 100.217 59.252 100.231 77.4224 100.232C78.7531 100.232 80.0854 100.2 81.4138 100.257C82.7161 100.313 83.497 101.168 83.5019 102.347C83.5157 105.65 83.4491 108.958 83.6035 112.254C83.8315 117.117 87.5229 121.483 92.2541 122.72C97.1767 124.007 102.314 122.049 105.056 117.916C106.741 115.377 107.154 112.582 107.104 109.613C107.085 108.529 106.772 108.164 105.715 107.916C103.497 107.395 101.195 106.926 99.1726 105.932C91.0743 101.951 86.3574 95.3973 85.8232 86.3097C85.258 76.6932 89.4824 69.4409 97.6869 64.5188C100.521 62.8186 103.655 61.9901 107.07 61.6089ZM79.6743 104.076C54.3181 104.076 29.2117 104.076 4.06175 104.076C4.08598 104.411 4.0846 104.641 4.12122 104.865C5.87754 115.618 14.2869 122.897 25.3169 122.942C44.7174 123.022 64.1185 122.968 83.5193 122.964C83.8844 122.964 84.2495 122.892 84.728 122.842C80.1099 116.928 79.6724 115.647 79.6743 108.276C79.6746 106.906 79.6743 105.535 79.6743 104.076ZM124.93 74.0396C120.641 66.9686 109.807 62.7183 99.7797 68.0095C90.362 72.9789 86.8249 84.9543 91.9378 94.4438C97.0192 103.875 108.916 107.36 118.307 102.132C128.097 96.6823 130.259 85.0618 126.649 77.6704C126.253 78.0071 125.872 78.3151 125.508 78.6424C120.111 83.4977 114.718 88.3573 109.32 93.2109C107.902 94.4862 107.162 94.4917 105.785 93.1656C102.775 90.264 99.7857 87.3394 96.794 84.4177C96.5751 84.204 96.4055 83.9394 96.3934 83.9242C97.2453 82.898 98.0275 81.9559 98.873 80.9372C101.876 83.8432 104.765 86.6389 107.706 89.4849C113.534 84.2584 119.239 79.1431 124.93 74.0396Z" fill="#363636"/>
<path d="M91.5225 52.678C91.5225 53.9833 91.5225 55.1242 91.5225 56.376C73.2409 56.376 55.0135 56.376 36.6683 56.376C36.6683 55.1856 36.6683 53.9781 36.6683 52.678C54.9472 52.678 73.1704 52.678 91.5225 52.678Z" fill="#363636"/>
<path d="M36.5505 34.0515C54.9673 34.0515 73.193 34.0515 91.4974 34.0515C91.4974 35.2809 91.4974 36.4154 91.4974 37.7205C90.9743 37.7543 90.4493 37.8176 89.9245 37.8179C72.6781 37.8231 55.4318 37.8068 38.1857 37.8516C36.8421 37.8552 36.3696 37.4604 36.5359 36.1465C36.6202 35.4794 36.5505 34.7927 36.5505 34.0515Z" fill="#363636"/>
<path d="M77.538 72.2149C77.538 73.5673 77.538 74.7062 77.538 76.0268C77.0399 76.0534 76.5592 76.1015 76.0782 76.1015C63.4653 76.105 50.8525 76.1089 38.2396 76.0865C37.6995 76.0857 36.7151 75.8858 36.6939 75.6943C36.5753 74.6222 36.6466 73.5189 36.7812 72.4421C36.7969 72.3163 37.6006 72.2276 38.0392 72.2268C46.7077 72.2138 55.3762 72.2165 64.0446 72.216C67.943 72.2157 71.8417 72.2149 75.7401 72.2146C76.2827 72.2149 76.8251 72.2149 77.538 72.2149Z" fill="#363636"/>
</g>
</svg>
