<svg width="140" height="127" viewBox="0 0 140 127" fill="none" xmlns="http://www.w3.org/2000/svg">
<circle cx="70" cy="47" r="13" fill="#88B89D"/>
<path d="M106.61 16.9479C127.084 37.0033 127.084 69.0998 106.883 88.8898L70.0226 125L33.1492 88.8898C28.3538 84.223 24.5433 78.6485 21.9417 72.494C19.3402 66.3396 18 59.7292 18 53.0516C18 46.3739 19.3402 39.7636 21.9417 33.6091C24.5433 27.4546 28.3538 21.8801 33.1492 17.2133L33.4222 16.9479C43.173 7.36981 56.3176 2 70.0128 2C83.708 2 96.8592 7.36981 106.61 16.9479ZM106.61 16.9479C106.337 16.676 106.337 16.676 106.61 16.9479ZM83.0027 47.3159C83.0027 50.7497 81.6331 54.0429 79.1952 56.471C76.7573 58.8991 73.4508 60.2632 70.0031 60.2632C66.5554 60.2632 63.2489 58.8991 60.811 56.471C58.3731 54.0429 57.0035 50.7497 57.0035 47.3159C57.0035 43.882 58.3731 40.5888 60.811 38.1607C63.2489 35.7326 66.5554 34.3685 70.0031 34.3685C73.4508 34.3685 76.7573 35.7326 79.1952 38.1607C81.6331 40.5888 83.0027 43.882 83.0027 47.3159Z" stroke="#363636" stroke-width="4" stroke-miterlimit="10" stroke-linecap="round" stroke-linejoin="round"/>
</svg>
