<svg width="100" height="91" viewBox="0 0 100 91" fill="none" xmlns="http://www.w3.org/2000/svg">
<circle cx="50" cy="34" r="9" fill="#88B89D"/>
<path d="M76.0494 12.5729C90.6177 26.7584 90.6177 49.4608 76.2436 63.4587L50.0161 89L23.7792 63.4587C20.3671 60.1577 17.6558 56.2148 15.8047 51.8616C13.9536 47.5085 13 42.8329 13 38.1096C13 33.3864 13.9536 28.7108 15.8047 24.3576C17.6558 20.0045 20.3671 16.0616 23.7792 12.7606L23.9735 12.5729C30.9115 5.79816 40.2645 2 50.0091 2C59.7538 2 69.1113 5.79816 76.0494 12.5729ZM76.0494 12.5729C75.8551 12.3806 75.8551 12.3806 76.0494 12.5729ZM59.2519 34.0527C59.2519 36.4815 58.2774 38.8109 56.5427 40.5283C54.8081 42.2457 52.4554 43.2106 50.0022 43.2106C47.549 43.2106 45.1963 42.2457 43.4617 40.5283C41.727 38.8109 40.7525 36.4815 40.7525 34.0527C40.7525 31.6239 41.727 29.2945 43.4617 27.5771C45.1963 25.8597 47.549 24.8948 50.0022 24.8948C52.4554 24.8948 54.8081 25.8597 56.5427 27.5771C58.2774 29.2945 59.2519 31.6239 59.2519 34.0527Z" stroke="#363636" stroke-width="4" stroke-miterlimit="10" stroke-linecap="round" stroke-linejoin="round"/>
</svg>
