<svg width="36" height="36" viewBox="0 0 36 36" fill="none" xmlns="http://www.w3.org/2000/svg">
<path d="M35 9.25L19.7153 19.2723C19.1966 19.5824 18.6075 19.7457 18.0077 19.7457C17.4078 19.7457 16.8187 19.5824 16.3 19.2723L1 9.25" fill="#88B89D"/>
<path d="M31.6 4H4.4C2.52223 4 1 5.567 1 7.5V28.5C1 30.433 2.52223 32 4.4 32H31.6C33.4778 32 35 30.433 35 28.5V7.5C35 5.567 33.4778 4 31.6 4Z" fill="#88B89D"/>
<path d="M35 9.25L19.7153 19.2723C19.1966 19.5824 18.6075 19.7457 18.0077 19.7457C17.4078 19.7457 16.8187 19.5824 16.3 19.2723L1 9.25M4.4 4H31.6C33.4778 4 35 5.567 35 7.5V28.5C35 30.433 33.4778 32 31.6 32H4.4C2.52223 32 1 30.433 1 28.5V7.5C1 5.567 2.52223 4 4.4 4Z" stroke="#363636" stroke-width="1.5" stroke-linecap="round" stroke-linejoin="round"/>
</svg>
