<svg width="36" height="36" viewBox="0 0 36 36" fill="none" xmlns="http://www.w3.org/2000/svg">
<g clip-path="url(#clip0_39_3615)">
<path d="M21.1144 25.7656C21.4655 25.9268 21.861 25.9637 22.2359 25.87C22.6107 25.7764 22.9425 25.5579 23.1765 25.2505L23.78 24.46C24.0967 24.0377 24.5074 23.695 24.9795 23.4589C25.4516 23.2229 25.9722 23.1 26.5 23.1H31.6C32.5017 23.1 33.3665 23.4582 34.0042 24.0958C34.6418 24.7335 35 25.5983 35 26.5V31.6C35 32.5017 34.6418 33.3665 34.0042 34.0042C33.3665 34.6418 32.5017 35 31.6 35C23.4844 35 15.7011 31.7761 9.96253 26.0375C4.22392 20.2989 1 12.5156 1 4.4C1 3.49826 1.35821 2.63346 1.99584 1.99584C2.63346 1.35821 3.49826 1 4.4 1H9.5C10.4017 1 11.2665 1.35821 11.9042 1.99584C12.5418 2.63346 12.9 3.49826 12.9 4.4V9.5C12.9 10.0278 12.7771 10.5484 12.5411 11.0205C12.305 11.4926 11.9623 11.9033 11.54 12.22L10.7444 12.8167C10.4323 13.055 10.2123 13.394 10.1218 13.7761C10.0314 14.1582 10.0759 14.5598 10.248 14.9128C12.5714 19.6318 16.3925 23.4482 21.1144 25.7656Z" fill="#88B89D" stroke="#363636" stroke-width="1.5" stroke-linecap="round" stroke-linejoin="round"/>
</g>
<defs>
<clipPath id="clip0_39_3615">
<rect width="36" height="36" fill="white"/>
</clipPath>
</defs>
</svg>
