<svg width="70" height="48" viewBox="0 0 70 48" fill="none" xmlns="http://www.w3.org/2000/svg">
<g clip-path="url(#clip0)">
<path d="M55.8169 16.9429C57.0793 10.052 59.1771 5.09613 60.848 2.03104C61.5014 0.830859 60.1685 -0.50227 58.9841 0.184605C44.9937 8.29416 38.8637 20.1187 38.0988 29.6021C37.4416 37.7818 43.0519 46.2089 51.5545 47.7415C60.0571 49.274 68.2033 43.6645 69.7479 35.2042C71.3667 26.3412 65.0807 17.8218 55.8169 16.9429Z" fill="#F0E9E1"/>
<path d="M17.7703 16.9434C19.0327 10.0524 21.1305 5.09661 22.8013 2.03152C23.4548 0.831336 22.1218 -0.501793 20.9374 0.185082C6.94704 8.29833 0.813272 20.1229 0.0521196 29.6062C-0.60507 37.7859 5.00518 46.2131 13.5078 47.7456C22.0104 49.2782 30.1566 43.6687 31.6975 35.2083C33.3163 26.3417 27.034 17.8223 17.7703 16.9434Z" fill="#F0E9E1"/>
</g>
<defs>
<clipPath id="clip0">
<rect width="70" height="48" fill="white"/>
</clipPath>
</defs>
</svg>
