<svg width="70" height="48" viewBox="0 0 70 48" fill="none" xmlns="http://www.w3.org/2000/svg">
<g clip-path="url(#clip0)">
<path d="M14.1831 31.0571C12.9207 37.948 10.8229 42.9039 9.15204 45.969C8.49856 47.1691 9.83151 48.5023 11.0159 47.8154C25.0063 39.7058 31.1363 27.8812 31.9012 18.3979C32.5584 10.2182 26.9481 1.79107 18.4455 0.258528C9.9429 -1.27402 1.79672 4.33547 0.252135 12.7958C-1.3667 21.6587 4.91929 30.1782 14.1831 31.0571Z" fill="#F0E9E1"/>
<path d="M52.2297 31.0566C50.9673 37.9476 48.8695 42.9034 47.1987 45.9685C46.5452 47.1687 47.8782 48.5018 49.0626 47.8149C63.053 39.7017 69.1867 27.8771 69.9479 18.3938C70.6051 10.2141 64.9948 1.78691 56.4922 0.254363C47.9896 -1.27818 39.8434 4.3313 38.3025 12.7917C36.6837 21.6583 42.966 30.1777 52.2297 31.0566Z" fill="#F0E9E1"/>
</g>
<defs>
<clipPath id="clip0">
<rect width="70" height="48" fill="white" transform="translate(70 48) rotate(-180)"/>
</clipPath>
</defs>
</svg>
