<svg width="20" height="20" viewBox="0 0 20 20" fill="none" xmlns="http://www.w3.org/2000/svg">
<path d="M5.23228 11.9399C4.23005 11.6289 3.21761 11.3075 2.21532 10.9967C1.72442 10.8412 1.23353 10.6857 0.74263 10.5302C0.55855 10.468 0.384691 10.4059 0.231285 10.2918C-0.0550628 10.0742 -0.0755264 9.80473 0.169925 9.53518C0.333552 9.34861 0.538096 9.2243 0.763084 9.13097C1.35625 8.8926 1.94941 8.65423 2.54258 8.41587C6.63336 6.81971 10.7241 5.2132 14.8251 3.61695C16.124 3.10914 17.4125 2.60123 18.7114 2.09342C18.8853 2.0208 19.0694 1.97936 19.2637 2.01044C19.6523 2.0727 19.9488 2.39394 19.9897 2.80851C20.0103 3.03662 20 3.26463 19.959 3.49264C19.458 5.87651 18.9568 8.27073 18.4558 10.6546C18.0467 12.6239 17.6273 14.5932 17.2182 16.5728C17.1262 17.0185 17.0341 17.4641 16.9421 17.9099C16.9013 18.1276 16.8398 18.3348 16.7376 18.5318C16.5331 18.9153 16.2058 19.0604 15.7865 18.9774C15.5308 18.9256 15.3058 18.8116 15.1012 18.6561C13.6899 17.5989 12.2786 16.5314 10.8571 15.4741C10.7957 15.4223 10.7241 15.3809 10.6628 15.3395C10.4173 15.2668 10.2435 15.0803 10.0492 14.9352C9.37418 14.4377 8.69924 13.9195 8.02421 13.422C7.9731 13.3805 7.92199 13.3391 7.881 13.2872C7.81967 13.1836 7.881 13.1213 7.94244 13.0592C8.86279 12.23 9.77302 11.3802 10.6935 10.5509C11.3582 9.9394 12.0332 9.32789 12.6979 8.71639C13.3627 8.10488 14.0275 7.50374 14.6922 6.90259C15.2138 6.42586 15.7354 5.95938 16.2467 5.48265C16.2875 5.44121 16.3285 5.39967 16.3694 5.35823C16.4001 5.3168 16.441 5.27536 16.4205 5.22356C16.4001 5.1613 16.3388 5.1613 16.2875 5.1613C16.1036 5.14059 15.9501 5.2132 15.7967 5.30644C15.2342 5.6485 14.6922 6.01128 14.1399 6.3636C12.4627 7.43122 10.7752 8.5091 9.09809 9.57672C7.94244 10.3125 6.78678 11.0485 5.63113 11.7947C5.49815 11.8673 5.40615 12.002 5.23228 11.9399Z" fill="#FCFDFE"/>
</svg>
