<svg width="36" height="36" viewBox="0 0 36 36" fill="none" xmlns="http://www.w3.org/2000/svg">
<rect width="36" height="36" rx="8" fill="#88B89D"/>
<path d="M27.2124 8.77874C24.7679 6.34324 21.5175 5.00162 18.0543 5C10.9192 5 5.11083 10.7792 5.10855 17.8829C5.10725 20.1541 5.70363 22.3706 6.83625 24.3235L5 31L11.8624 29.2087C13.7536 30.2343 15.8823 30.7755 18.0491 30.7764H18.0545C25.1896 30.7764 30.9971 24.9963 31 17.8929C31.0016 14.4509 29.6559 11.2139 27.2124 8.77874ZM18.0545 28.6004H18.0504C16.1189 28.5997 14.2255 28.0835 12.5732 27.108L12.1803 26.8757L8.10797 27.9389L9.19444 23.9878L8.93871 23.5815C7.86129 21.877 7.29223 19.9069 7.29352 17.8829C7.29548 11.9791 12.1227 7.17578 18.0579 7.17578C20.9321 7.17642 23.6332 8.29196 25.6651 10.3164C27.6967 12.3405 28.8147 15.0305 28.814 17.8919C28.8121 23.7966 23.9848 28.6004 18.0545 28.6004ZM23.9567 20.5807C23.6329 20.4193 22.0427 19.6414 21.746 19.5331C21.4492 19.4257 21.2344 19.3723 21.0187 19.6945C20.8028 20.0166 20.1831 20.7421 19.9939 20.9569C19.8053 21.1716 19.6169 21.1987 19.2932 21.0374C18.9695 20.876 17.9275 20.5363 16.6928 19.4392C15.7308 18.5864 15.0815 17.5314 14.8929 17.2091C14.7045 16.887 14.8728 16.7134 15.0351 16.5526C15.1807 16.4084 15.3587 16.1768 15.5203 15.9885C15.6817 15.8003 15.7357 15.6661 15.8436 15.4516C15.9515 15.2369 15.8979 15.049 15.8167 14.8879C15.7355 14.7265 15.0887 13.1419 14.8196 12.4973C14.5567 11.8696 14.2901 11.9545 14.0919 11.9449C13.9027 11.9358 13.6872 11.9333 13.4717 11.9333C13.2563 11.9333 12.9056 12.0138 12.6092 12.3362C12.3132 12.6583 11.4772 13.4369 11.4772 15.0221C11.4772 16.6063 12.6361 18.1374 12.798 18.3519C12.9599 18.5663 15.0789 21.8185 18.3237 23.2129C19.0952 23.5441 19.6981 23.7423 20.1677 23.8911C20.9425 24.1365 21.6479 24.1013 22.2055 24.0185C22.8269 23.9263 24.1191 23.24 24.3892 22.488C24.6585 21.7364 24.6585 21.092 24.5771 20.9575C24.4955 20.8226 24.2796 20.7421 23.9567 20.5807Z" fill="#F9F9F9"/>
</svg>
