<svg width="20" height="20" viewBox="0 0 20 20" fill="none" xmlns="http://www.w3.org/2000/svg">
<path d="M17.0865 2.90673C15.206 1.03326 12.7058 0.00124731 10.0418 0C4.55325 0 0.0852531 4.44557 0.083502 9.90995C0.0824976 11.657 0.541253 13.362 1.4125 14.8643L0 20L5.27875 18.6221C6.73351 19.411 8.37102 19.8273 10.0378 19.828H10.042C15.5305 19.828 19.9978 15.3818 20 9.91764C20.0012 7.26989 18.966 4.77995 17.0865 2.90673ZM10.042 18.1542H10.0388C8.55298 18.1536 7.09653 17.7565 5.82551 17.0062L5.52329 16.8275L2.39075 17.6453L3.22649 14.606L3.02978 14.2935C2.201 12.9823 1.76325 11.4669 1.76425 9.90995C1.76575 5.36858 5.47902 1.67367 10.0445 1.67367C12.2555 1.67417 14.3332 2.53228 15.8963 4.08951C17.459 5.64652 18.319 7.71574 18.3185 9.91685C18.317 14.4589 14.6037 18.1542 10.042 18.1542ZM14.582 11.9852C14.333 11.861 13.1098 11.2626 12.8815 11.1793C12.6532 11.0967 12.488 11.0556 12.322 11.3035C12.156 11.5513 11.6793 12.1093 11.5338 12.2745C11.3887 12.4397 11.2437 12.4606 10.9948 12.3365C10.7458 12.2123 9.94427 11.951 8.99449 11.1071C8.25449 10.4511 7.75502 9.63952 7.60996 9.39165C7.46498 9.14387 7.59449 9.01029 7.71929 8.88662C7.83129 8.77569 7.96827 8.59752 8.09253 8.45271C8.21671 8.3079 8.25822 8.20467 8.34124 8.03968C8.42427 7.87453 8.38302 7.72998 8.32053 7.60604C8.25804 7.48193 7.76053 6.26302 7.55351 5.76719C7.35129 5.28427 7.14622 5.34965 6.99378 5.34222C6.84827 5.33523 6.68249 5.33328 6.51671 5.33328C6.35102 5.33328 6.08124 5.3952 5.85324 5.64325C5.62551 5.89103 4.98249 6.48992 4.98249 7.70928C4.98249 8.92793 5.87395 10.1057 5.99849 10.2707C6.12302 10.4356 7.75298 12.9373 10.249 14.0099C10.8425 14.2647 11.3062 14.4172 11.6675 14.5316C12.2635 14.7204 12.806 14.6933 13.235 14.6297C13.713 14.5587 14.707 14.0308 14.9148 13.4523C15.122 12.8741 15.122 12.3785 15.0593 12.275C14.9965 12.1712 14.8305 12.1093 14.582 11.9852Z" fill="#F9F9F9"/>
</svg>
