<svg width="145" height="58" viewBox="0 0 145 58" fill="none" xmlns="http://www.w3.org/2000/svg">
<path d="M2.43999 28.5601V0.560057H7.99999C10.88 0.560057 13.12 1.16006 14.72 2.36006C16.32 3.56006 17.12 5.22672 17.12 7.36006C17.12 8.93339 16.6533 10.2801 15.72 11.4001C14.7867 12.4934 13.48 13.2401 11.8 13.6401V13.8801C14.0933 14.1734 15.88 14.9734 17.16 16.2801C18.4667 17.5601 19.12 19.1867 19.12 21.1601C19.12 23.4801 18.2267 25.2934 16.44 26.6001C14.6533 27.9067 12.1467 28.5601 8.91999 28.5601H2.43999ZM8.03999 1.52006H5.15999V13.5201H7.99999C12.2133 13.5201 14.32 11.5201 14.32 7.52006C14.32 3.52006 12.2267 1.52006 8.03999 1.52006ZM8.91999 14.4801H5.15999V27.6001H8.91999C13.8 27.6001 16.24 25.4134 16.24 21.0401C16.24 16.6667 13.8 14.4801 8.91999 14.4801ZM27.1275 0.560057H32.4875C35.3142 0.560057 37.5008 1.16006 39.0475 2.36006C40.6208 3.53339 41.4075 5.18672 41.4075 7.32006C41.4075 8.97339 40.9142 10.3467 39.9275 11.4401C38.9675 12.5334 37.5675 13.2667 35.7275 13.6401V13.8801C37.4875 14.2267 38.9275 15.0534 40.0475 16.3601C41.1675 17.6667 42.0075 19.2801 42.5675 21.2001C43.0742 22.9601 43.5675 24.3334 44.0475 25.3201C44.5542 26.2801 45.1008 26.9734 45.6875 27.4001C46.3008 27.8267 47.0208 28.1334 47.8475 28.3201V28.5601H46.2075C45.0342 28.5601 44.0608 28.3467 43.2875 27.9201C42.5408 27.4934 41.9008 26.7734 41.3675 25.7601C40.8342 24.7467 40.3275 23.3467 39.8475 21.5601C39.0742 18.8134 38.0475 16.8667 36.7675 15.7201C35.4875 14.5734 33.9275 14.0001 32.0875 14.0001H31.8475V13.2801H32.0875C36.3808 13.2801 38.5275 11.3067 38.5275 7.36006C38.5275 3.46672 36.5142 1.52006 32.4875 1.52006H29.8475V28.5601H27.1275V0.560057ZM52.3916 0.560057H55.1116V17.4401C55.1116 20.6667 55.8982 23.1867 57.4716 25.0001C59.0716 26.7867 61.3116 27.6801 64.1916 27.6801C66.0049 27.6801 67.5782 27.3334 68.9116 26.6401C70.2716 25.9201 71.3116 24.9334 72.0316 23.6801C72.7782 22.4267 73.1249 20.9867 73.0716 19.3601L72.3916 0.560057H75.1116L74.4316 19.3601C74.3249 22.5601 73.3649 24.9867 71.5516 26.6401C69.7649 28.2934 67.2049 29.1201 63.8716 29.1201C60.2716 29.1201 57.4582 28.0801 55.4316 26.0001C53.4049 23.8934 52.3916 21.0134 52.3916 17.3601V0.560057ZM84.1056 28.5601L85.1056 5.67436e-05H85.5856L105.706 24.3201H105.946L105.066 0.560057H107.786L106.786 29.1201H106.306L86.1856 4.80006H85.9456L86.8256 28.5601H84.1056ZM115.596 14.5601C115.596 12.5067 115.956 10.6001 116.676 8.84006C117.423 7.05339 118.45 5.50672 119.756 4.20006C121.09 2.86672 122.636 1.84006 124.396 1.12006C126.183 0.37339 128.103 5.67436e-05 130.156 5.67436e-05C132.21 5.67436e-05 134.116 0.37339 135.876 1.12006C137.663 1.84006 139.21 2.86672 140.516 4.20006C141.85 5.50672 142.876 7.05339 143.596 8.84006C144.343 10.6001 144.716 12.5067 144.716 14.5601C144.716 16.6134 144.343 18.5334 143.596 20.3201C142.876 22.0801 141.85 23.6267 140.516 24.9601C139.21 26.2667 137.663 27.2934 135.876 28.0401C134.116 28.7601 132.21 29.1201 130.156 29.1201C128.103 29.1201 126.183 28.7601 124.396 28.0401C122.636 27.2934 121.09 26.2667 119.756 24.9601C118.45 23.6267 117.423 22.0801 116.676 20.3201C115.956 18.5334 115.596 16.6134 115.596 14.5601ZM118.636 14.5601C118.636 17.2801 119.116 19.6667 120.076 21.7201C121.036 23.7467 122.383 25.3334 124.116 26.4801C125.85 27.6001 127.863 28.1601 130.156 28.1601C132.45 28.1601 134.463 27.6001 136.196 26.4801C137.93 25.3334 139.276 23.7334 140.236 21.6801C141.196 19.6267 141.676 17.2534 141.676 14.5601C141.676 11.8667 141.196 9.50672 140.236 7.48006C139.276 5.42672 137.93 3.82672 136.196 2.68006C134.463 1.53339 132.45 0.960056 130.156 0.960056C127.863 0.960056 125.85 1.53339 124.116 2.68006C122.41 3.80006 121.063 5.38672 120.076 7.44006C119.116 9.46672 118.636 11.8401 118.636 14.5601ZM16.176 40.7601V57.5601H14.544V42.1521H14.4L8.59199 53.2881H7.84799L1.24799 43.4721H1.10399L1.63199 57.5601H-9.71556e-06L0.59999 40.4241H1.07999L8.63999 51.6561H8.78399L14.448 40.7601H16.176ZM19.9187 57.5601L26.3747 40.7601H27.8627L34.3187 57.5601H32.5667L29.5907 49.6881H24.1427L21.6707 57.5601H19.9187ZM26.5427 42.0081L24.3107 49.1121H29.3747L26.6867 42.0081H26.5427ZM36.7476 57.0321L36.8916 55.5921H37.0356C37.6596 56.1361 38.3636 56.5601 39.1476 56.8641C39.9316 57.1681 40.7076 57.3201 41.4756 57.3201C42.5636 57.3201 43.4436 57.0241 44.1156 56.4321C44.7876 55.8241 45.1236 55.0161 45.1236 54.0081C45.1236 53.4481 44.9956 52.9281 44.7396 52.4481C44.4996 51.9681 44.0916 51.4801 43.5156 50.9841C42.9556 50.4881 42.1796 49.9521 41.1876 49.3761C40.4996 48.9761 39.8436 48.5601 39.2196 48.1281C38.5956 47.6801 38.0836 47.1681 37.6836 46.5921C37.2836 46.0001 37.0836 45.2961 37.0836 44.4801C37.0836 43.2641 37.5236 42.2881 38.4036 41.5521C39.2836 40.8001 40.4436 40.4241 41.8836 40.4241C42.5236 40.4241 43.2116 40.4961 43.9476 40.6401C44.6836 40.7681 45.2516 40.9361 45.6516 41.1441L45.5316 42.4881H45.3876C44.4756 41.4961 43.3076 41.0001 41.8836 41.0001C40.8596 41.0001 40.0356 41.2641 39.4116 41.7921C38.7876 42.3041 38.4756 43.0001 38.4756 43.8801C38.4756 44.5361 38.6436 45.1041 38.9796 45.5841C39.3316 46.0481 39.7796 46.4721 40.3236 46.8561C40.8676 47.2241 41.4516 47.5841 42.0756 47.9361C42.7956 48.3521 43.4916 48.7921 44.1636 49.2561C44.8516 49.7201 45.4116 50.2801 45.8436 50.9361C46.2916 51.5761 46.5156 52.3841 46.5156 53.3601C46.5156 54.2561 46.3076 55.0481 45.8916 55.7361C45.4756 56.4081 44.8836 56.9361 44.1156 57.3201C43.3636 57.7041 42.4836 57.8961 41.4756 57.8961C40.8356 57.8961 40.0836 57.8161 39.2196 57.6561C38.3556 57.4961 37.5316 57.2881 36.7476 57.0321ZM54.6141 57.5601V41.2401C54.3741 41.2401 53.8781 41.2881 53.1261 41.3841L48.4221 41.9841V40.7601H62.4381V41.9841L57.7341 41.3841C56.9821 41.2881 56.4861 41.2401 56.2461 41.2401V57.5601H54.6141ZM66.3366 57.5601V40.7601H73.6566V41.9361L69.4566 41.3841C68.7206 41.2881 68.2246 41.2401 67.9686 41.2401V48.5601C68.1766 48.5601 68.6726 48.5361 69.4566 48.4881L73.3926 48.2481V49.3521L69.4566 49.1121C68.6726 49.0641 68.1766 49.0401 67.9686 49.0401V57.0801C68.2566 57.0801 68.7606 57.0321 69.4806 56.9361L73.7286 56.3841V57.5601H66.3366ZM78.7584 40.7601H81.9744C83.6704 40.7601 84.9824 41.1201 85.9104 41.8401C86.8544 42.5441 87.3264 43.5361 87.3264 44.8161C87.3264 45.8081 87.0304 46.6321 86.4384 47.2881C85.8624 47.9441 85.0224 48.3841 83.9184 48.6081V48.7521C84.9744 48.9601 85.8384 49.4561 86.5104 50.2401C87.1824 51.0241 87.6864 51.9921 88.0224 53.1441C88.3264 54.2001 88.6224 55.0241 88.9104 55.6161C89.2144 56.1921 89.5424 56.6081 89.8944 56.8641C90.2624 57.1201 90.6944 57.3041 91.1904 57.4161V57.5601H90.2064C89.5024 57.5601 88.9184 57.4321 88.4544 57.1761C88.0064 56.9201 87.6224 56.4881 87.3024 55.8801C86.9824 55.2721 86.6784 54.4321 86.3904 53.3601C85.9264 51.7121 85.3104 50.5441 84.5424 49.8561C83.7744 49.1681 82.8384 48.8241 81.7344 48.8241H81.5904V48.3921H81.7344C84.3104 48.3921 85.5984 47.2081 85.5984 44.8401C85.5984 42.5041 84.3904 41.3361 81.9744 41.3361H80.3904V57.5601H78.7584V40.7601Z" fill="#F9F9F9"/>
</svg>
