<svg width="192" height="124" viewBox="0 0 192 124" fill="none" xmlns="http://www.w3.org/2000/svg">
<path d="M120.222 2.39893C120.343 2.47952 120.428 2.60516 120.456 2.74976C120.482 2.88962 120.449 3.03422 120.366 3.15037C120.288 3.27126 120.165 3.35423 120.026 3.38268C119.884 3.41112 119.734 3.38031 119.619 3.2926C119.498 3.212 119.413 3.08637 119.384 2.94177C119.358 2.80191 119.391 2.65731 119.477 2.54353C119.555 2.42263 119.675 2.33966 119.817 2.31122C119.955 2.2804 120.104 2.31122 120.222 2.39893ZM128.877 4.77178H129.46L129.464 2.51508L132.17 2.51982L132.165 4.77652H132.747L132.754 0.00474113L132.172 0.00474111L132.167 2.02913L129.464 2.02439L129.469 2.54502e-08L128.887 0L128.877 4.77178ZM138.837 5.29329C139.123 5.20321 139.386 5.0515 139.606 4.84764C139.828 4.63903 140.011 4.38776 140.139 4.11042C140.278 3.81174 140.37 3.49172 140.411 3.16222C140.456 2.8351 140.446 2.5056 140.389 2.18084C140.337 1.87742 140.226 1.58822 140.063 1.32747C139.899 1.07383 139.684 0.858116 139.431 0.694553C138.856 0.346091 138.162 0.256013 137.516 0.445652C137.23 0.5381 136.967 0.692182 136.747 0.896043C136.522 1.10464 136.34 1.35828 136.214 1.638C136.075 1.93668 135.985 2.25433 135.945 2.58145C135.9 2.90858 135.907 3.24282 135.966 3.56758C136.02 3.86863 136.132 4.15783 136.295 4.41621C136.458 4.66985 136.674 4.88319 136.927 5.04439C137.5 5.38574 138.191 5.47582 138.837 5.29329ZM137.216 4.61296C137.026 4.47547 136.87 4.29531 136.756 4.08908C136.64 3.87574 136.565 3.64343 136.529 3.40401C136.451 2.90384 136.517 2.39419 136.721 1.93194C136.816 1.70912 136.95 1.50525 137.116 1.32747C137.277 1.15679 137.474 1.02405 137.691 0.936342C138.176 0.763296 138.714 0.834411 139.137 1.12361C139.327 1.26347 139.483 1.44125 139.597 1.64748C139.712 1.86083 139.788 2.09313 139.824 2.33255C139.902 2.83273 139.836 3.34238 139.632 3.80462C139.537 4.02745 139.402 4.23131 139.237 4.4091C139.076 4.57977 138.879 4.71252 138.664 4.80023C138.179 4.97327 137.639 4.90216 137.216 4.61296ZM142.936 6.10162L145.045 6.64921C145.473 6.79381 145.937 6.78906 146.363 6.63735C146.709 6.47853 146.96 6.16326 147.033 5.78872C147.125 5.50663 147.106 5.20084 146.979 4.93298C146.837 4.68882 146.619 4.49681 146.356 4.39013L146.361 4.37117C146.609 4.37117 146.848 4.29057 147.045 4.13886C147.241 3.97767 147.379 3.75247 147.433 3.50357C147.535 3.1883 147.468 2.84458 147.26 2.58857C146.988 2.29937 146.631 2.10499 146.242 2.02676L144.131 1.47918L142.936 6.10162ZM143.622 5.7745L144.065 4.06538L145.549 4.4494C145.861 4.50629 146.145 4.66037 146.363 4.89031C146.515 5.08706 146.562 5.34544 146.486 5.58249C146.439 5.8385 146.271 6.05658 146.034 6.168C145.731 6.26756 145.407 6.26519 145.106 6.16089L143.622 5.7745ZM144.179 3.62684L144.571 2.10499L146.055 2.48901C146.704 2.65731 146.964 2.99629 146.832 3.50357C146.784 3.71929 146.642 3.90181 146.441 3.99426C146.19 4.09145 145.913 4.09619 145.66 4.01086L144.179 3.62684ZM151.253 8.77079C151.416 8.79449 151.584 8.79212 151.748 8.76605C151.901 8.73997 152.053 8.69019 152.193 8.61908C152.346 8.54085 152.495 8.45077 152.64 8.35358L152.656 8.3607C152.614 8.465 152.581 8.57404 152.555 8.68308C152.531 8.77553 152.529 8.87035 152.548 8.96517C152.569 9.05525 152.614 9.13584 152.678 9.19985C152.765 9.28281 152.872 9.34682 152.985 9.38711C153.047 9.41082 153.108 9.43452 153.175 9.45112C153.224 9.46534 153.284 9.47719 153.352 9.49142L153.532 9.03628C153.468 9.03865 153.404 9.02917 153.348 9.0031C153.184 8.9628 153.082 8.79686 153.123 8.6333C153.13 8.60485 153.142 8.57641 153.156 8.5527L154.084 6.19644C154.192 5.94991 154.24 5.68205 154.223 5.41181C154.204 5.20321 154.133 5.00172 154.015 4.82867C153.897 4.65563 153.748 4.5134 153.575 4.40673C153.397 4.29294 153.208 4.19813 153.011 4.1199C152.574 3.92315 152.084 3.87337 151.615 3.9753C151.163 4.11516 150.801 4.45651 150.63 4.89742L151.172 5.11313C151.277 4.80497 151.518 4.56318 151.826 4.46125C152.14 4.38539 152.469 4.41621 152.763 4.54896C152.914 4.60822 153.061 4.67933 153.198 4.76467C153.321 4.83816 153.428 4.93772 153.511 5.0515C153.591 5.16291 153.639 5.29329 153.65 5.42841C153.66 5.59671 153.629 5.76264 153.563 5.91673C153.527 6.01866 153.473 6.11111 153.4 6.1917C153.345 6.25096 153.274 6.29363 153.198 6.31497C153.116 6.3363 153.028 6.3363 152.943 6.31971C152.848 6.30311 152.744 6.27704 152.63 6.24622C152.325 6.16563 152.022 6.0874 151.726 6.01155C151.452 5.94043 151.17 5.9025 150.886 5.9025C150.64 5.90013 150.396 5.96414 150.183 6.0874C149.951 6.24148 149.778 6.46905 149.691 6.73217C149.608 6.92892 149.568 7.14464 149.577 7.35798C149.587 7.54525 149.641 7.72541 149.736 7.88897C149.833 8.05253 149.963 8.19476 150.119 8.30854C150.29 8.43181 150.474 8.53374 150.671 8.6096C150.858 8.68782 151.054 8.74234 151.253 8.77079ZM150.543 7.96482C150.443 7.88186 150.361 7.77993 150.299 7.66377C150.238 7.55236 150.2 7.42909 150.188 7.30109C150.176 7.16597 150.197 7.02848 150.249 6.90285C150.313 6.71321 150.455 6.55913 150.64 6.4809C150.832 6.40979 151.038 6.38134 151.241 6.4003C151.485 6.41927 151.726 6.45957 151.963 6.5212C152.219 6.5852 152.469 6.64209 152.713 6.69424C152.806 6.71321 152.9 6.72743 152.995 6.73691C153.082 6.75114 153.175 6.7298 153.246 6.67765L153.262 6.68476L152.985 7.39117C152.839 7.78704 152.524 8.09757 152.124 8.23269C151.93 8.29906 151.726 8.32514 151.52 8.31329C151.305 8.30143 151.092 8.25402 150.891 8.17343C150.768 8.12365 150.649 8.05253 150.543 7.96482ZM155.291 10.4349L155.958 10.7952L158.296 9.90625L159.288 10.442L158.389 12.1084L158.9 12.3858L161.165 8.19002L159.134 7.09012C158.954 6.99056 158.76 6.92418 158.557 6.89811C158.377 6.8744 158.192 6.88862 158.017 6.94078C157.847 6.99293 157.688 7.08063 157.553 7.19916C157.404 7.32953 157.281 7.48362 157.189 7.65903C156.999 7.97668 156.947 8.35832 157.044 8.7139C157.163 9.07421 157.407 9.37763 157.733 9.5649L155.291 10.4349ZM158.119 9.25674C157.87 9.14295 157.681 8.92961 157.596 8.66886C157.53 8.4247 157.565 8.16395 157.693 7.94349C157.804 7.71592 158.003 7.54525 158.242 7.46939C158.505 7.40065 158.786 7.44332 159.016 7.58792L160.412 8.3441L159.513 10.0106L158.119 9.25674ZM164.845 16.2852L165.383 16.7498L168.268 16.098L168.32 17.1244L167.243 18.3665L167.683 18.7505L168.76 17.5084L169.782 17.4159L169.546 20.3672L170.083 20.8342L170.341 17.3875L173.051 17.0959L172.457 16.5815L169.214 16.9821L170.805 15.145L170.365 14.761L168.767 16.6052L168.713 13.3269L168.119 12.8101L168.213 15.5361L164.845 16.2852ZM171.789 22.6879L172.263 23.2331L177.067 22.5409L173.988 25.2219L174.372 25.6629L177.967 22.5338L177.493 21.991L172.689 22.6832L175.766 19.9998L175.382 19.5589L171.789 22.6879ZM177.579 30.1668C177.749 30.3161 177.948 30.4323 178.161 30.5105C178.364 30.584 178.582 30.6101 178.798 30.5864C179.032 30.5579 179.257 30.4726 179.448 30.3351C179.586 30.2474 179.704 30.1336 179.796 29.9985C179.87 29.8894 179.924 29.7662 179.953 29.6358C179.979 29.5173 179.981 29.394 179.96 29.2731C179.941 29.1593 179.905 29.0455 179.858 28.9412L179.872 28.9294C179.945 29.0029 180.035 29.0621 180.132 29.1001C180.237 29.1427 180.348 29.1664 180.461 29.1735C180.58 29.1807 180.7 29.1688 180.816 29.138C180.944 29.1048 181.065 29.0503 181.174 28.9744C181.349 28.863 181.493 28.7089 181.59 28.5264C181.673 28.3605 181.713 28.1756 181.706 27.9907C181.699 27.7892 181.654 27.5901 181.576 27.4028C181.489 27.1895 181.38 26.9832 181.247 26.7936C181.122 26.6039 180.975 26.4309 180.809 26.2744C180.658 26.1298 180.478 26.0161 180.284 25.9402C180.087 25.8667 179.874 25.8383 179.666 25.8572C179.413 25.8833 179.169 25.9663 178.951 26.0967L179.271 26.5708C179.512 26.4333 179.794 26.3859 180.068 26.438C180.397 26.5352 180.674 26.7604 180.84 27.0614C180.958 27.2274 181.051 27.4099 181.11 27.6043C181.15 27.737 181.162 27.8793 181.143 28.0167C181.126 28.1258 181.081 28.2277 181.013 28.3107C180.954 28.3842 180.883 28.4482 180.807 28.5027C180.608 28.6568 180.345 28.6994 180.106 28.6189C179.867 28.5335 179.661 28.3676 179.524 28.1542L179.157 27.6114L178.79 27.8603L179.235 28.5193C179.418 28.7397 179.5 29.0242 179.465 29.3063C179.418 29.5291 179.283 29.7211 179.091 29.8444C178.987 29.9131 178.876 29.9677 178.757 30.0056C178.632 30.0435 178.497 30.053 178.367 30.0293C178.213 30.0008 178.069 29.9368 177.943 29.842C177.77 29.7069 177.621 29.5433 177.505 29.3584C177.389 29.1949 177.297 29.0124 177.238 28.8203C177.19 28.6686 177.176 28.5098 177.195 28.3534C177.214 28.204 177.264 28.0618 177.344 27.9338C177.432 27.7963 177.541 27.6707 177.661 27.5616L177.335 27.078C176.966 27.3388 176.719 27.737 176.648 28.1827C176.611 28.6994 176.769 29.2138 177.089 29.6192C177.228 29.8231 177.392 30.008 177.579 30.1668ZM179.758 33.6538L180.024 34.1729L182.028 33.1441L183.264 35.5549L181.259 36.5837L181.524 37.1028L185.768 34.9291L185.503 34.4099L183.704 35.3321L182.466 32.9213L184.265 31.9992L184.002 31.48L179.758 33.6538ZM182.781 40.0233L183.569 42.1756C183.687 42.562 183.952 42.8844 184.307 43.0764C184.665 43.2447 185.077 43.2495 185.441 43.093C185.815 42.9816 186.123 42.7114 186.281 42.3534C186.419 41.9765 186.407 41.5617 186.251 41.1919L185.661 39.5871L187.455 38.9281L187.254 38.3805L182.781 40.0233ZM183.441 40.4025L185.202 39.7554L185.742 41.2322C185.853 41.4882 185.872 41.775 185.798 42.0453C185.701 42.2918 185.496 42.4791 185.24 42.5502C184.996 42.6616 184.712 42.6521 184.475 42.5289C184.239 42.3771 184.064 42.1448 183.985 41.877L183.441 40.4025ZM184.336 50.515L184.421 51.091L185.919 50.8682L186.499 54.8008L185.001 55.0237L185.086 55.5997L187.072 55.3058L186.968 54.6017L191.195 53.9759L190.726 50.8018L190.104 50.8943C189.398 51.0081 188.686 51.0602 187.971 51.0507C187.436 51.0436 186.906 50.9512 186.402 50.7781L186.319 50.2211L184.336 50.515ZM186.49 51.3731C186.956 51.5154 187.441 51.5936 187.929 51.6078C188.62 51.6339 189.313 51.5912 189.995 51.4798L190.324 51.4324L190.624 53.4734L186.882 54.0281L186.49 51.3731ZM186.769 58.3589C186.795 58.4917 186.854 58.615 186.942 58.7169C187.058 58.8473 187.2 58.9539 187.358 59.0274C187.6 59.1412 187.858 59.2242 188.12 59.2716C188.518 59.3498 188.92 59.3996 189.323 59.4209C189.803 59.4541 190.388 59.4612 191.079 59.4494L191.117 61.4927L186.842 61.5709L186.854 62.1541L191.616 62.0664L191.559 58.8781C190.859 58.8899 190.265 58.8852 189.782 58.8639C189.299 58.8425 188.899 58.8093 188.579 58.769C188.326 58.7406 188.075 58.6861 187.834 58.6078C187.692 58.5628 187.557 58.4941 187.439 58.4016C187.365 58.3447 187.311 58.2689 187.282 58.1835C187.263 58.1172 187.254 58.0484 187.252 57.9797C187.252 57.8967 187.256 57.8137 187.266 57.7308C187.273 57.6549 187.285 57.5814 187.308 57.5079L186.802 57.5174C186.797 57.5364 186.79 57.5648 186.781 57.6051C186.771 57.6454 186.766 57.6881 186.759 57.7355L186.743 57.8706C186.738 57.9086 186.736 57.9441 186.736 57.982C186.733 58.1053 186.745 58.2333 186.769 58.3589ZM186.752 64.7687L186.672 65.5225L188.378 67.3526L188.258 68.4738L186.376 68.2723L186.314 68.8507L191.05 69.358L191.296 67.0586C191.32 66.8548 191.308 66.6485 191.254 66.4494C191.209 66.274 191.126 66.1104 191.015 65.9682C190.901 65.8283 190.759 65.7146 190.601 65.6363C190.426 65.5486 190.234 65.4917 190.037 65.4728C189.675 65.4159 189.304 65.5131 189.013 65.7406C188.724 65.9848 188.537 66.3285 188.487 66.703L186.752 64.7687ZM188.916 66.9448C188.927 66.6722 189.053 66.4162 189.261 66.2384C189.462 66.0844 189.718 66.018 189.969 66.0535C190.22 66.0701 190.454 66.1887 190.617 66.383C190.781 66.6011 190.847 66.8785 190.799 67.1463L190.631 68.7274L188.75 68.5259L188.916 66.9448ZM184.724 76.4126L184.059 78.4915C183.891 78.911 183.87 79.3756 183.995 79.8118C184.135 80.1674 184.435 80.4329 184.804 80.5277C185.079 80.6367 185.387 80.6344 185.659 80.5206C185.912 80.3926 186.113 80.184 186.236 79.928L186.253 79.9327C186.239 80.1793 186.305 80.4258 186.445 80.6296C186.596 80.8359 186.811 80.9852 187.055 81.054C187.363 81.1725 187.711 81.1274 187.976 80.9331C188.279 80.677 188.494 80.331 188.591 79.9469L189.256 77.8704L184.724 76.4126ZM185.01 77.1166L186.691 77.6547L186.224 79.1173C186.151 79.4254 185.981 79.7028 185.739 79.9066C185.536 80.0465 185.275 80.0773 185.043 79.9896C184.79 79.928 184.582 79.7478 184.487 79.5037C184.407 79.1955 184.426 78.8707 184.546 78.5768L185.01 77.1166ZM187.121 77.7945L188.617 78.2734L188.151 79.736C187.947 80.376 187.595 80.6154 187.098 80.4542C186.882 80.395 186.71 80.2409 186.627 80.037C186.544 79.781 186.553 79.5037 186.653 79.2548L187.121 77.7945ZM181.593 84.5931C181.56 84.7543 181.552 84.9226 181.569 85.0862C181.588 85.2426 181.628 85.3943 181.692 85.5389C181.761 85.6977 181.841 85.8518 181.931 86.0012L181.924 86.0177C181.822 85.9703 181.716 85.93 181.609 85.8969C181.519 85.8684 181.425 85.8613 181.33 85.8755C181.24 85.8897 181.155 85.9324 181.089 85.994C181.001 86.077 180.932 86.1789 180.885 86.2927C180.857 86.352 180.831 86.4136 180.809 86.4776C180.793 86.5274 180.776 86.5867 180.762 86.653L181.207 86.8569C181.207 86.7929 181.221 86.7313 181.249 86.6744C181.299 86.5132 181.472 86.4231 181.633 86.4729C181.661 86.4824 181.687 86.4942 181.711 86.5108L184.007 87.5704C184.246 87.6937 184.511 87.7553 184.781 87.7553C184.989 87.7435 185.193 87.6842 185.372 87.5775C185.545 87.4685 185.694 87.3263 185.813 87.1603C185.936 86.9896 186.042 86.8048 186.13 86.6151C186.35 86.1884 186.428 85.7001 186.352 85.226C186.239 84.7661 185.919 84.3845 185.486 84.1901L185.242 84.7163C185.543 84.8372 185.77 85.0909 185.855 85.4062C185.914 85.7262 185.865 86.0557 185.716 86.3449C185.649 86.4942 185.569 86.6341 185.477 86.7692C185.396 86.8877 185.292 86.9873 185.171 87.0655C185.055 87.139 184.925 87.1793 184.788 87.184C184.622 87.184 184.456 87.1437 184.31 87.0679C184.21 87.0276 184.12 86.9659 184.045 86.8901C183.99 86.8308 183.95 86.7597 183.933 86.6815C183.917 86.5962 183.922 86.5108 183.943 86.4255C183.967 86.3306 183.997 86.2263 184.033 86.1173C184.13 85.8163 184.225 85.5199 184.317 85.226C184.407 84.9534 184.459 84.6737 184.475 84.3892C184.492 84.1427 184.442 83.8962 184.331 83.6757C184.191 83.4363 183.974 83.249 183.716 83.1495C183.524 83.0546 183.311 83.0049 183.098 83.0025C182.911 83.0025 182.726 83.0475 182.561 83.1305C182.393 83.2182 182.241 83.3391 182.123 83.4884C181.99 83.652 181.879 83.8298 181.791 84.0218C181.702 84.2043 181.635 84.3963 181.593 84.5931ZM182.435 83.927C182.525 83.8322 182.629 83.7539 182.748 83.6994C182.864 83.6449 182.987 83.6141 183.115 83.6093C183.249 83.6046 183.384 83.6354 183.507 83.6947C183.694 83.7682 183.839 83.9199 183.907 84.1071C183.969 84.3039 183.985 84.5101 183.955 84.714C183.922 84.9558 183.867 85.1952 183.794 85.4275C183.716 85.6788 183.645 85.9277 183.581 86.1695C183.555 86.2619 183.536 86.3544 183.524 86.4492C183.505 86.5369 183.522 86.6293 183.571 86.7052L183.564 86.7218L182.875 86.4041C182.49 86.2358 182.199 85.9016 182.085 85.4939C182.031 85.2971 182.014 85.0909 182.038 84.887C182.061 84.6713 182.12 84.4603 182.213 84.2636C182.267 84.1403 182.343 84.0265 182.435 83.927ZM179.491 88.9927L176.159 94.1556L180.158 96.7442L180.473 96.2559L176.885 93.9328L178.078 92.0838L181.666 94.4069L181.983 93.9186L178.395 91.5955L179.588 89.7465L183.176 92.0696L183.491 91.5813L179.491 88.9927ZM174.215 96.6067L173.742 97.1495L175.082 101.822L172.01 99.1336L171.626 99.5722L175.214 102.713L175.688 102.17L174.346 97.4956L177.418 100.184L177.801 99.7452L174.215 96.6067ZM169.825 101.428L169.29 101.909L169.539 104.384L167.087 103.896L166.538 104.391L169.579 104.998L169.827 107.845L170.369 107.357L170.147 105.119L172.367 105.558L172.909 105.069L170.107 104.508L169.825 101.428ZM160.713 108.62L158.836 109.727C158.431 109.929 158.107 110.261 157.911 110.668C157.778 111.026 157.825 111.425 158.038 111.742C158.171 112.005 158.403 112.209 158.68 112.309C158.954 112.382 159.243 112.361 159.504 112.252L159.513 112.268C159.338 112.444 159.224 112.671 159.193 112.918C159.17 113.172 159.231 113.428 159.366 113.641C159.518 113.935 159.806 114.132 160.135 114.165C160.533 114.177 160.921 114.063 161.25 113.84L163.127 112.733L160.713 108.62ZM160.46 109.339L161.354 110.86L160.034 111.64C159.773 111.82 159.463 111.915 159.146 111.906C158.9 111.875 158.685 111.723 158.571 111.503C158.422 111.289 158.386 111.015 158.476 110.77C158.621 110.486 158.853 110.258 159.137 110.118L160.46 109.339ZM161.584 111.252L162.379 112.607L161.058 113.385C160.481 113.726 160.06 113.669 159.792 113.219C159.674 113.034 159.646 112.804 159.721 112.596C159.83 112.349 160.022 112.148 160.263 112.029L161.584 111.252ZM151.84 113.522C151.651 113.973 151.608 114.471 151.717 114.947L152.249 114.712C152.183 114.373 152.221 114.023 152.356 113.707C152.519 113.383 152.798 113.131 153.139 113.006C153.364 112.901 153.613 112.859 153.861 112.882C154.081 112.909 154.294 112.98 154.486 113.093C154.678 113.207 154.846 113.354 154.983 113.53C155.12 113.703 155.234 113.892 155.324 114.094L151.963 115.556C152.084 115.865 152.245 116.156 152.441 116.424C152.623 116.678 152.853 116.898 153.118 117.066C153.669 117.422 154.363 117.465 154.955 117.18C155.269 117.054 155.551 116.851 155.769 116.59C155.956 116.36 156.086 116.087 156.152 115.798C156.214 115.504 156.223 115.201 156.176 114.904C156.133 114.596 156.046 114.293 155.923 114.006C155.795 113.705 155.627 113.423 155.423 113.165C155.239 112.93 155.011 112.733 154.753 112.584C154.5 112.439 154.218 112.359 153.927 112.349C153.591 112.342 153.258 112.413 152.95 112.558C152.469 112.728 152.077 113.072 151.84 113.522ZM155.52 114.544C155.584 114.753 155.622 114.968 155.631 115.187C155.643 115.398 155.622 115.606 155.565 115.81C155.508 116.004 155.414 116.187 155.284 116.343C155.142 116.512 154.962 116.644 154.758 116.73C154.559 116.82 154.342 116.86 154.126 116.848C153.923 116.836 153.724 116.782 153.544 116.687C153.359 116.592 153.194 116.464 153.054 116.31C152.907 116.149 152.787 115.969 152.694 115.772L155.52 114.544ZM142.004 114.686L141.443 114.838L141.966 116.775L142.643 116.592L143.757 120.724L144.318 120.572L143.201 116.441L145.322 115.862L146.437 119.994L146.997 119.842L145.88 115.71L148.001 115.134L149.118 119.266L149.679 119.114L148.434 114.509L142.392 116.147L142.004 114.686ZM135.959 117.396C135.649 117.773 135.466 118.24 135.436 118.726L136.013 118.655C136.046 118.311 136.181 117.986 136.401 117.721C136.65 117.455 136.988 117.294 137.35 117.273C137.597 117.235 137.847 117.265 138.077 117.36C138.281 117.448 138.465 117.576 138.617 117.74C138.768 117.903 138.886 118.093 138.969 118.299C139.052 118.503 139.107 118.719 139.135 118.937L135.5 119.38C135.528 119.709 135.597 120.034 135.71 120.347C135.814 120.643 135.973 120.918 136.177 121.155C136.603 121.653 137.258 121.893 137.904 121.788C138.243 121.758 138.567 121.641 138.849 121.454C139.092 121.286 139.294 121.063 139.44 120.805C139.585 120.541 139.679 120.252 139.722 119.954C139.769 119.645 139.772 119.33 139.734 119.022C139.698 118.697 139.618 118.377 139.495 118.074C139.384 117.796 139.22 117.543 139.017 117.327C138.815 117.116 138.567 116.96 138.29 116.865C137.968 116.763 137.627 116.737 137.296 116.787C136.79 116.813 136.311 117.031 135.959 117.396ZM139.194 119.423C139.197 119.641 139.17 119.856 139.118 120.07C139.071 120.274 138.991 120.47 138.879 120.648C138.771 120.819 138.626 120.968 138.458 121.082C138.273 121.203 138.063 121.279 137.843 121.3C137.627 121.331 137.407 121.307 137.201 121.234C137.01 121.165 136.837 121.056 136.688 120.914C136.539 120.769 136.416 120.601 136.326 120.413C136.231 120.219 136.165 120.01 136.134 119.795L139.194 119.423ZM132.409 122.097H131.826L131.836 118.01L129.197 122.092H128.48L128.492 117.32H129.074L129.064 121.407L131.703 117.325H132.423L132.409 122.097ZM131.362 123.106C131.594 123.348 131.734 123.666 131.758 124H131.398C131.379 123.784 131.275 123.585 131.112 123.445C130.922 123.301 130.69 123.23 130.451 123.241C130.219 123.232 129.987 123.301 129.8 123.438C129.625 123.578 129.509 123.777 129.471 123.998H129.112C129.154 123.661 129.308 123.348 129.547 123.106C129.8 122.888 130.129 122.779 130.461 122.798C130.79 122.777 131.114 122.888 131.362 123.106ZM119.095 119.496C119.013 119.375 118.982 119.228 119.01 119.084C119.036 118.944 119.122 118.823 119.245 118.747C119.361 118.664 119.507 118.633 119.647 118.659C119.789 118.685 119.914 118.771 119.992 118.894C120.075 119.015 120.106 119.162 120.078 119.306C120.049 119.446 119.966 119.567 119.843 119.643C119.727 119.726 119.581 119.757 119.441 119.731C119.297 119.705 119.171 119.619 119.095 119.496Z" fill="#3F5B52"/>
<path d="M5.2 63V35H10.76C13.64 35 15.88 35.6 17.48 36.8C19.08 38 19.88 39.6667 19.88 41.8C19.88 43.3733 19.4133 44.72 18.48 45.84C17.5467 46.9333 16.24 47.68 14.56 48.08V48.32C16.8533 48.6133 18.64 49.4133 19.92 50.72C21.2267 52 21.88 53.6267 21.88 55.6C21.88 57.92 20.9867 59.7333 19.2 61.04C17.4133 62.3467 14.9067 63 11.68 63H5.2ZM10.8 35.96H7.92V47.96H10.76C14.9733 47.96 17.08 45.96 17.08 41.96C17.08 37.96 14.9867 35.96 10.8 35.96ZM11.68 48.92H7.92V62.04H11.68C16.56 62.04 19 59.8533 19 55.48C19 51.1067 16.56 48.92 11.68 48.92ZM29.8875 35H35.2475C38.0742 35 40.2608 35.6 41.8075 36.8C43.3808 37.9733 44.1675 39.6267 44.1675 41.76C44.1675 43.4133 43.6742 44.7867 42.6875 45.88C41.7275 46.9733 40.3275 47.7067 38.4875 48.08V48.32C40.2475 48.6667 41.6875 49.4933 42.8075 50.8C43.9275 52.1067 44.7675 53.72 45.3275 55.64C45.8342 57.4 46.3275 58.7733 46.8075 59.76C47.3142 60.72 47.8608 61.4133 48.4475 61.84C49.0608 62.2667 49.7808 62.5733 50.6075 62.76V63H48.9675C47.7942 63 46.8208 62.7867 46.0475 62.36C45.3008 61.9333 44.6608 61.2133 44.1275 60.2C43.5942 59.1867 43.0875 57.7867 42.6075 56C41.8342 53.2533 40.8075 51.3067 39.5275 50.16C38.2475 49.0133 36.6875 48.44 34.8475 48.44H34.6075V47.72H34.8475C39.1408 47.72 41.2875 45.7467 41.2875 41.8C41.2875 37.9067 39.2742 35.96 35.2475 35.96H32.6075V63H29.8875V35ZM55.1516 35H57.8716V51.88C57.8716 55.1067 58.6582 57.6267 60.2316 59.44C61.8316 61.2267 64.0716 62.12 66.9516 62.12C68.7649 62.12 70.3382 61.7733 71.6716 61.08C73.0316 60.36 74.0716 59.3733 74.7916 58.12C75.5382 56.8667 75.8849 55.4267 75.8316 53.8L75.1516 35H77.8716L77.1916 53.8C77.0849 57 76.1249 59.4267 74.3116 61.08C72.5249 62.7333 69.9649 63.56 66.6316 63.56C63.0316 63.56 60.2182 62.52 58.1916 60.44C56.1649 58.3333 55.1516 55.4533 55.1516 51.8V35ZM86.8656 63L87.8656 34.44H88.3456L108.466 58.76H108.706L107.826 35H110.546L109.546 63.56H109.066L88.9456 39.24H88.7056L89.5856 63H86.8656ZM118.356 49C118.356 46.9467 118.716 45.04 119.436 43.28C120.183 41.4933 121.21 39.9467 122.516 38.64C123.85 37.3067 125.396 36.28 127.156 35.56C128.943 34.8133 130.863 34.44 132.916 34.44C134.97 34.44 136.876 34.8133 138.636 35.56C140.423 36.28 141.97 37.3067 143.276 38.64C144.61 39.9467 145.636 41.4933 146.356 43.28C147.103 45.04 147.476 46.9467 147.476 49C147.476 51.0533 147.103 52.9733 146.356 54.76C145.636 56.52 144.61 58.0667 143.276 59.4C141.97 60.7067 140.423 61.7333 138.636 62.48C136.876 63.2 134.97 63.56 132.916 63.56C130.863 63.56 128.943 63.2 127.156 62.48C125.396 61.7333 123.85 60.7067 122.516 59.4C121.21 58.0667 120.183 56.52 119.436 54.76C118.716 52.9733 118.356 51.0533 118.356 49ZM121.396 49C121.396 51.72 121.876 54.1067 122.836 56.16C123.796 58.1867 125.143 59.7733 126.876 60.92C128.61 62.04 130.623 62.6 132.916 62.6C135.21 62.6 137.223 62.04 138.956 60.92C140.69 59.7733 142.036 58.1733 142.996 56.12C143.956 54.0667 144.436 51.6933 144.436 49C144.436 46.3067 143.956 43.9467 142.996 41.92C142.036 39.8667 140.69 38.2667 138.956 37.12C137.223 35.9733 135.21 35.4 132.916 35.4C130.623 35.4 128.61 35.9733 126.876 37.12C125.17 38.24 123.823 39.8267 122.836 41.88C121.876 43.9067 121.396 46.28 121.396 49ZM18.936 75.2V92H17.304V76.592H17.16L11.352 87.728H10.608L4.008 77.912H3.864L4.392 92H2.76L3.36 74.864H3.84L11.4 86.096H11.544L17.208 75.2H18.936ZM22.6787 92L29.1347 75.2H30.6227L37.0787 92H35.3267L32.3507 84.128H26.9027L24.4307 92H22.6787ZM29.3027 76.448L27.0707 83.552H32.1347L29.4467 76.448H29.3027ZM39.5076 91.472L39.6516 90.032H39.7956C40.4196 90.576 41.1236 91 41.9076 91.304C42.6916 91.608 43.4676 91.76 44.2356 91.76C45.3236 91.76 46.2036 91.464 46.8756 90.872C47.5476 90.264 47.8836 89.456 47.8836 88.448C47.8836 87.888 47.7556 87.368 47.4996 86.888C47.2596 86.408 46.8516 85.92 46.2756 85.424C45.7156 84.928 44.9396 84.392 43.9476 83.816C43.2596 83.416 42.6036 83 41.9796 82.568C41.3556 82.12 40.8436 81.608 40.4436 81.032C40.0436 80.44 39.8436 79.736 39.8436 78.92C39.8436 77.704 40.2836 76.728 41.1636 75.992C42.0436 75.24 43.2036 74.864 44.6436 74.864C45.2836 74.864 45.9716 74.936 46.7076 75.08C47.4436 75.208 48.0116 75.376 48.4116 75.584L48.2916 76.928H48.1476C47.2356 75.936 46.0676 75.44 44.6436 75.44C43.6196 75.44 42.7956 75.704 42.1716 76.232C41.5476 76.744 41.2356 77.44 41.2356 78.32C41.2356 78.976 41.4036 79.544 41.7396 80.024C42.0916 80.488 42.5396 80.912 43.0836 81.296C43.6276 81.664 44.2116 82.024 44.8356 82.376C45.5556 82.792 46.2516 83.232 46.9236 83.696C47.6116 84.16 48.1716 84.72 48.6036 85.376C49.0516 86.016 49.2756 86.824 49.2756 87.8C49.2756 88.696 49.0676 89.488 48.6516 90.176C48.2356 90.848 47.6436 91.376 46.8756 91.76C46.1236 92.144 45.2436 92.336 44.2356 92.336C43.5956 92.336 42.8436 92.256 41.9796 92.096C41.1156 91.936 40.2916 91.728 39.5076 91.472ZM57.3741 92V75.68C57.1341 75.68 56.6381 75.728 55.8861 75.824L51.1821 76.424V75.2H65.1981V76.424L60.4941 75.824C59.7421 75.728 59.2461 75.68 59.0061 75.68V92H57.3741ZM69.0966 92V75.2H76.4166V76.376L72.2166 75.824C71.4806 75.728 70.9846 75.68 70.7286 75.68V83C70.9366 83 71.4326 82.976 72.2166 82.928L76.1526 82.688V83.792L72.2166 83.552C71.4326 83.504 70.9366 83.48 70.7286 83.48V91.52C71.0166 91.52 71.5206 91.472 72.2406 91.376L76.4886 90.824V92H69.0966ZM81.5184 75.2H84.7344C86.4304 75.2 87.7424 75.56 88.6704 76.28C89.6144 76.984 90.0864 77.976 90.0864 79.256C90.0864 80.248 89.7904 81.072 89.1984 81.728C88.6224 82.384 87.7824 82.824 86.6784 83.048V83.192C87.7344 83.4 88.5984 83.896 89.2704 84.68C89.9424 85.464 90.4464 86.432 90.7824 87.584C91.0864 88.64 91.3824 89.464 91.6704 90.056C91.9744 90.632 92.3024 91.048 92.6544 91.304C93.0224 91.56 93.4544 91.744 93.9504 91.856V92H92.9664C92.2624 92 91.6784 91.872 91.2144 91.616C90.7664 91.36 90.3824 90.928 90.0624 90.32C89.7424 89.712 89.4384 88.872 89.1504 87.8C88.6864 86.152 88.0704 84.984 87.3024 84.296C86.5344 83.608 85.5984 83.264 84.4944 83.264H84.3504V82.832H84.4944C87.0704 82.832 88.3584 81.648 88.3584 79.28C88.3584 76.944 87.1504 75.776 84.7344 75.776H83.1504V92H81.5184V75.2Z" fill="#3F5B52"/>
</svg>
