<svg width="145" height="58" viewBox="0 0 145 58" fill="none" xmlns="http://www.w3.org/2000/svg">
<path d="M2.44023 28.56V0.559999H8.00024C10.8802 0.559999 13.1202 1.16 14.7202 2.36C16.3202 3.56 17.1202 5.22667 17.1202 7.36C17.1202 8.93333 16.6536 10.28 15.7202 11.4C14.7869 12.4933 13.4802 13.24 11.8002 13.64V13.88C14.0936 14.1733 15.8802 14.9733 17.1602 16.28C18.4669 17.56 19.1202 19.1867 19.1202 21.16C19.1202 23.48 18.2269 25.2933 16.4402 26.6C14.6536 27.9067 12.1469 28.56 8.92024 28.56H2.44023ZM8.04023 1.52H5.16023V13.52H8.00024C12.2136 13.52 14.3202 11.52 14.3202 7.52C14.3202 3.52 12.2269 1.52 8.04023 1.52ZM8.92024 14.48H5.16023V27.6H8.92024C13.8002 27.6 16.2402 25.4133 16.2402 21.04C16.2402 16.6667 13.8002 14.48 8.92024 14.48ZM27.1277 0.559999H32.4877C35.3144 0.559999 37.5011 1.16 39.0477 2.36C40.6211 3.53333 41.4077 5.18667 41.4077 7.32C41.4077 8.97333 40.9144 10.3467 39.9277 11.44C38.9677 12.5333 37.5677 13.2667 35.7277 13.64V13.88C37.4877 14.2267 38.9277 15.0533 40.0477 16.36C41.1677 17.6667 42.0077 19.28 42.5677 21.2C43.0744 22.96 43.5677 24.3333 44.0477 25.32C44.5544 26.28 45.1011 26.9733 45.6877 27.4C46.3011 27.8267 47.0211 28.1333 47.8477 28.32V28.56H46.2077C45.0344 28.56 44.0611 28.3467 43.2877 27.92C42.5411 27.4933 41.9011 26.7733 41.3677 25.76C40.8344 24.7467 40.3277 23.3467 39.8477 21.56C39.0744 18.8133 38.0477 16.8667 36.7677 15.72C35.4877 14.5733 33.9277 14 32.0877 14H31.8477V13.28H32.0877C36.3811 13.28 38.5277 11.3067 38.5277 7.36C38.5277 3.46667 36.5144 1.52 32.4877 1.52H29.8477V28.56H27.1277V0.559999ZM52.3918 0.559999H55.1118V17.44C55.1118 20.6667 55.8985 23.1867 57.4718 25C59.0718 26.7867 61.3118 27.68 64.1918 27.68C66.0051 27.68 67.5785 27.3333 68.9118 26.64C70.2718 25.92 71.3118 24.9333 72.0318 23.68C72.7785 22.4267 73.1251 20.9867 73.0718 19.36L72.3918 0.559999H75.1118L74.4318 19.36C74.3251 22.56 73.3651 24.9867 71.5518 26.64C69.7651 28.2933 67.2051 29.12 63.8718 29.12C60.2718 29.12 57.4585 28.08 55.4318 26C53.4051 23.8933 52.3918 21.0133 52.3918 17.36V0.559999ZM84.1059 28.56L85.1059 -4.76837e-07H85.5859L105.706 24.32H105.946L105.066 0.559999H107.786L106.786 29.12H106.306L86.1859 4.8H85.9459L86.8259 28.56H84.1059ZM115.596 14.56C115.596 12.5067 115.956 10.6 116.676 8.84C117.423 7.05333 118.45 5.50667 119.756 4.2C121.09 2.86667 122.636 1.84 124.396 1.12C126.183 0.373333 128.103 -4.76837e-07 130.156 -4.76837e-07C132.21 -4.76837e-07 134.116 0.373333 135.876 1.12C137.663 1.84 139.21 2.86667 140.516 4.2C141.85 5.50667 142.876 7.05333 143.596 8.84C144.343 10.6 144.716 12.5067 144.716 14.56C144.716 16.6133 144.343 18.5333 143.596 20.32C142.876 22.08 141.85 23.6267 140.516 24.96C139.21 26.2667 137.663 27.2933 135.876 28.04C134.116 28.76 132.21 29.12 130.156 29.12C128.103 29.12 126.183 28.76 124.396 28.04C122.636 27.2933 121.09 26.2667 119.756 24.96C118.45 23.6267 117.423 22.08 116.676 20.32C115.956 18.5333 115.596 16.6133 115.596 14.56ZM118.636 14.56C118.636 17.28 119.116 19.6667 120.076 21.72C121.036 23.7467 122.383 25.3333 124.116 26.48C125.85 27.6 127.863 28.16 130.156 28.16C132.45 28.16 134.463 27.6 136.196 26.48C137.93 25.3333 139.276 23.7333 140.236 21.68C141.196 19.6267 141.676 17.2533 141.676 14.56C141.676 11.8667 141.196 9.50667 140.236 7.48C139.276 5.42667 137.93 3.82667 136.196 2.68C134.463 1.53333 132.45 0.959999 130.156 0.959999C127.863 0.959999 125.85 1.53333 124.116 2.68C122.41 3.8 121.063 5.38667 120.076 7.44C119.116 9.46667 118.636 11.84 118.636 14.56ZM16.1762 40.76V57.56H14.5442V42.152H14.4002L8.59223 53.288H7.84824L1.24823 43.472H1.10423L1.63223 57.56H0.000234425L0.600234 40.424H1.08023L8.64023 51.656H8.78424L14.4482 40.76H16.1762ZM19.9189 57.56L26.3749 40.76H27.8629L34.3189 57.56H32.5669L29.5909 49.688H24.1429L21.6709 57.56H19.9189ZM26.5429 42.008L24.3109 49.112H29.3749L26.6869 42.008H26.5429ZM36.7478 57.032L36.8918 55.592H37.0358C37.6598 56.136 38.3638 56.56 39.1478 56.864C39.9318 57.168 40.7078 57.32 41.4758 57.32C42.5638 57.32 43.4438 57.024 44.1158 56.432C44.7878 55.824 45.1238 55.016 45.1238 54.008C45.1238 53.448 44.9958 52.928 44.7398 52.448C44.4998 51.968 44.0918 51.48 43.5158 50.984C42.9558 50.488 42.1798 49.952 41.1878 49.376C40.4998 48.976 39.8438 48.56 39.2198 48.128C38.5958 47.68 38.0838 47.168 37.6838 46.592C37.2838 46 37.0838 45.296 37.0838 44.48C37.0838 43.264 37.5238 42.288 38.4038 41.552C39.2838 40.8 40.4438 40.424 41.8838 40.424C42.5238 40.424 43.2118 40.496 43.9478 40.64C44.6838 40.768 45.2518 40.936 45.6518 41.144L45.5318 42.488H45.3878C44.4758 41.496 43.3078 41 41.8838 41C40.8598 41 40.0358 41.264 39.4118 41.792C38.7878 42.304 38.4758 43 38.4758 43.88C38.4758 44.536 38.6438 45.104 38.9798 45.584C39.3318 46.048 39.7798 46.472 40.3238 46.856C40.8678 47.224 41.4518 47.584 42.0758 47.936C42.7958 48.352 43.4918 48.792 44.1638 49.256C44.8518 49.72 45.4118 50.28 45.8438 50.936C46.2918 51.576 46.5158 52.384 46.5158 53.36C46.5158 54.256 46.3078 55.048 45.8918 55.736C45.4758 56.408 44.8838 56.936 44.1158 57.32C43.3638 57.704 42.4838 57.896 41.4758 57.896C40.8358 57.896 40.0838 57.816 39.2198 57.656C38.3558 57.496 37.5318 57.288 36.7478 57.032ZM54.6143 57.56V41.24C54.3743 41.24 53.8783 41.288 53.1263 41.384L48.4223 41.984V40.76H62.4383V41.984L57.7343 41.384C56.9823 41.288 56.4863 41.24 56.2463 41.24V57.56H54.6143ZM66.3368 57.56V40.76H73.6568V41.936L69.4568 41.384C68.7208 41.288 68.2248 41.24 67.9688 41.24V48.56C68.1768 48.56 68.6728 48.536 69.4568 48.488L73.3928 48.248V49.352L69.4568 49.112C68.6728 49.064 68.1768 49.04 67.9688 49.04V57.08C68.2568 57.08 68.7608 57.032 69.4808 56.936L73.7288 56.384V57.56H66.3368ZM78.7587 40.76H81.9747C83.6707 40.76 84.9827 41.12 85.9107 41.84C86.8547 42.544 87.3267 43.536 87.3267 44.816C87.3267 45.808 87.0307 46.632 86.4387 47.288C85.8627 47.944 85.0227 48.384 83.9187 48.608V48.752C84.9747 48.96 85.8387 49.456 86.5107 50.24C87.1827 51.024 87.6867 51.992 88.0227 53.144C88.3267 54.2 88.6227 55.024 88.9107 55.616C89.2147 56.192 89.5427 56.608 89.8947 56.864C90.2627 57.12 90.6947 57.304 91.1907 57.416V57.56H90.2067C89.5027 57.56 88.9187 57.432 88.4547 57.176C88.0067 56.92 87.6227 56.488 87.3027 55.88C86.9827 55.272 86.6787 54.432 86.3907 53.36C85.9267 51.712 85.3107 50.544 84.5427 49.856C83.7747 49.168 82.8387 48.824 81.7347 48.824H81.5907V48.392H81.7347C84.3107 48.392 85.5987 47.208 85.5987 44.84C85.5987 42.504 84.3907 41.336 81.9747 41.336H80.3907V57.56H78.7587V40.76Z" fill="#3F5B52"/>
</svg>
