<svg width="171" height="73" viewBox="0 0 171 73" fill="none" xmlns="http://www.w3.org/2000/svg">
<path d="M1.0252e-05 34.272V0.67197H6.67201C10.128 0.67197 12.816 1.39197 14.736 2.83197C16.656 4.27197 17.616 6.27197 17.616 8.83197C17.616 10.72 17.056 12.336 15.936 13.68C14.816 14.992 13.248 15.888 11.232 16.368V16.656C13.984 17.008 16.128 17.968 17.664 19.536C19.232 21.072 20.016 23.024 20.016 25.392C20.016 28.176 18.944 30.352 16.8 31.92C14.656 33.488 11.648 34.272 7.77601 34.272H1.0252e-05ZM6.72001 1.82397H3.26401V16.224H6.67201C11.728 16.224 14.256 13.824 14.256 9.02397C14.256 4.22397 11.744 1.82397 6.72001 1.82397ZM7.77601 17.376H3.26401V33.12H7.77601C13.632 33.12 16.56 30.496 16.56 25.248C16.56 20 13.632 17.376 7.77601 17.376ZM29.625 0.67197H36.057C39.449 0.67197 42.073 1.39197 43.929 2.83197C45.817 4.23997 46.761 6.22397 46.761 8.78397C46.761 10.768 46.169 12.416 44.985 13.728C43.833 15.04 42.153 15.92 39.945 16.368V16.656C42.057 17.072 43.785 18.064 45.129 19.632C46.473 21.2 47.481 23.136 48.153 25.44C48.761 27.552 49.353 29.2 49.929 30.384C50.537 31.536 51.193 32.368 51.897 32.88C52.633 33.392 53.497 33.76 54.489 33.984V34.272H52.521C51.113 34.272 49.945 34.016 49.017 33.504C48.121 32.992 47.353 32.128 46.713 30.912C46.073 29.696 45.465 28.016 44.889 25.872C43.961 22.576 42.729 20.24 41.193 18.864C39.657 17.488 37.785 16.8 35.577 16.8H35.289V15.936H35.577C40.729 15.936 43.305 13.568 43.305 8.83197C43.305 4.15997 40.889 1.82397 36.057 1.82397H32.889V34.272H29.625V0.67197ZM59.9419 0.67197H63.2059V20.928C63.2059 24.8 64.1499 27.824 66.0379 30C67.9579 32.144 70.6459 33.216 74.1019 33.216C76.2779 33.216 78.1659 32.8 79.7659 31.968C81.3979 31.104 82.6459 29.92 83.5099 28.416C84.4059 26.912 84.8219 25.184 84.7579 23.232L83.9419 0.67197H87.2059L86.3899 23.232C86.2619 27.072 85.1099 29.984 82.9339 31.968C80.7899 33.952 77.7179 34.944 73.7179 34.944C69.3979 34.944 66.0219 33.696 63.5899 31.2C61.1579 28.672 59.9419 25.216 59.9419 20.832V0.67197ZM97.9988 34.272L99.1988 -2.95639e-05H99.7748L123.919 29.184H124.207L123.151 0.67197H126.415L125.215 34.944H124.639L100.495 5.75997H100.207L101.263 34.272H97.9988ZM135.788 17.472C135.788 15.008 136.22 12.72 137.084 10.608C137.98 8.46397 139.212 6.60797 140.78 5.03997C142.38 3.43997 144.236 2.20797 146.348 1.34397C148.492 0.44797 150.796 -2.95639e-05 153.26 -2.95639e-05C155.724 -2.95639e-05 158.012 0.44797 160.124 1.34397C162.268 2.20797 164.124 3.43997 165.692 5.03997C167.292 6.60797 168.524 8.46397 169.388 10.608C170.284 12.72 170.732 15.008 170.732 17.472C170.732 19.936 170.284 22.24 169.388 24.384C168.524 26.496 167.292 28.352 165.692 29.952C164.124 31.52 162.268 32.752 160.124 33.648C158.012 34.512 155.724 34.944 153.26 34.944C150.796 34.944 148.492 34.512 146.348 33.648C144.236 32.752 142.38 31.52 140.78 29.952C139.212 28.352 137.98 26.496 137.084 24.384C136.22 22.24 135.788 19.936 135.788 17.472ZM139.436 17.472C139.436 20.736 140.012 23.6 141.164 26.064C142.316 28.496 143.932 30.4 146.012 31.776C148.092 33.12 150.508 33.792 153.26 33.792C156.012 33.792 158.428 33.12 160.508 31.776C162.588 30.4 164.204 28.48 165.356 26.016C166.508 23.552 167.084 20.704 167.084 17.472C167.084 14.24 166.508 11.408 165.356 8.97597C164.204 6.51197 162.588 4.59197 160.508 3.21597C158.428 1.83997 156.012 1.15197 153.26 1.15197C150.508 1.15197 148.092 1.83997 146.012 3.21597C143.964 4.55997 142.348 6.46397 141.164 8.92797C140.012 11.36 139.436 14.208 139.436 17.472ZM46.8752 49.872V72.272H44.6992V51.728H44.5072L36.7632 66.576H35.7712L26.9712 53.488H26.7792L27.4832 72.272H25.3072L26.1072 49.424H26.7472L36.8272 64.4H37.0192L44.5712 49.872H46.8752ZM51.8654 72.272L60.4734 49.872H62.4574L71.0654 72.272H68.7294L64.7614 61.776H57.4974L54.2014 72.272H51.8654ZM60.6974 51.536L57.7214 61.008H64.4734L60.8894 51.536H60.6974ZM74.3039 71.568L74.4959 69.648H74.6879C75.5199 70.3733 76.4586 70.9386 77.5039 71.344C78.5493 71.7493 79.5839 71.952 80.6079 71.952C82.0586 71.952 83.2319 71.5573 84.1279 70.768C85.0239 69.9573 85.4719 68.88 85.4719 67.536C85.4719 66.7893 85.3013 66.096 84.9599 65.456C84.6399 64.816 84.0959 64.1653 83.3279 63.504C82.5813 62.8426 81.5466 62.128 80.2239 61.36C79.3066 60.8266 78.4319 60.272 77.5999 59.696C76.7679 59.0986 76.0853 58.416 75.5519 57.648C75.0186 56.8586 74.7519 55.92 74.7519 54.832C74.7519 53.2106 75.3386 51.9093 76.5119 50.928C77.6853 49.9253 79.2319 49.424 81.1519 49.424C82.0053 49.424 82.9226 49.52 83.9039 49.712C84.8853 49.8826 85.6426 50.1066 86.1759 50.384L86.0159 52.176H85.8239C84.6079 50.8533 83.0506 50.192 81.1519 50.192C79.7866 50.192 78.6879 50.544 77.8559 51.248C77.0239 51.9306 76.6079 52.8586 76.6079 54.032C76.6079 54.9066 76.8319 55.664 77.2799 56.304C77.7493 56.9226 78.3466 57.488 79.0719 58C79.7973 58.4906 80.5759 58.9706 81.4079 59.44C82.3679 59.9946 83.2959 60.5813 84.1919 61.2C85.1093 61.8186 85.8559 62.5653 86.4319 63.44C87.0293 64.2933 87.3279 65.3706 87.3279 66.672C87.3279 67.8666 87.0506 68.9226 86.4959 69.84C85.9413 70.736 85.1519 71.44 84.1279 71.952C83.1253 72.464 81.9519 72.72 80.6079 72.72C79.7546 72.72 78.7519 72.6133 77.5999 72.4C76.4479 72.1866 75.3493 71.9093 74.3039 71.568ZM98.1259 72.272V50.512C97.8059 50.512 97.1446 50.576 96.1419 50.704L89.8699 51.504V49.872H108.558V51.504L102.286 50.704C101.283 50.576 100.622 50.512 100.302 50.512V72.272H98.1259ZM113.756 72.272V49.872H123.516V51.44L117.916 50.704C116.935 50.576 116.273 50.512 115.932 50.512V60.272C116.209 60.272 116.871 60.24 117.916 60.176L123.164 59.856V61.328L117.916 61.008C116.871 60.944 116.209 60.912 115.932 60.912V71.632C116.316 71.632 116.988 71.568 117.948 71.44L123.612 70.704V72.272H113.756ZM130.318 49.872H134.606C136.868 49.872 138.617 50.352 139.854 51.312C141.113 52.2506 141.742 53.5733 141.742 55.28C141.742 56.6026 141.348 57.7013 140.558 58.576C139.79 59.4506 138.67 60.0373 137.198 60.336V60.528C138.606 60.8053 139.758 61.4666 140.654 62.512C141.55 63.5573 142.222 64.848 142.67 66.384C143.076 67.792 143.47 68.8906 143.854 69.68C144.26 70.448 144.697 71.0026 145.166 71.344C145.657 71.6853 146.233 71.9306 146.894 72.08V72.272H145.582C144.644 72.272 143.865 72.1013 143.246 71.76C142.649 71.4186 142.137 70.8426 141.71 70.032C141.284 69.2213 140.878 68.1013 140.494 66.672C139.876 64.4746 139.054 62.9173 138.03 62C137.006 61.0826 135.758 60.624 134.286 60.624H134.094V60.048H134.286C137.721 60.048 139.438 58.4693 139.438 55.312C139.438 52.1973 137.828 50.64 134.606 50.64H132.494V72.272H130.318V49.872Z" fill="#F9F9F9"/>
</svg>
