<svg width="50" height="60" viewBox="0 0 50 60" fill="none" xmlns="http://www.w3.org/2000/svg">
<g clip-path="url(#clip0)">
<path d="M48.1864 54.379H48.8373V59.9067L44.8583 55.7231V59.7011H44.1891V54.117L48.1863 58.3195L48.1864 54.379ZM29.4842 54.379V57.7589C29.4842 58.3564 29.3166 58.8419 28.9817 59.2159C28.6289 59.6267 28.1455 59.8134 27.5319 59.8134C26.9556 59.8134 26.4725 59.6267 26.1188 59.2159C25.766 58.8419 25.5981 58.3564 25.5981 57.7589V54.379H26.2679V57.5348C26.2679 58.6367 26.6768 59.1973 27.5318 59.1973C28.4054 59.1973 28.8332 58.6367 28.8332 57.5348V54.379H29.4842ZM31.5291 54.379H34.7081V54.9954H33.4441V59.7014H32.812V54.9954H31.5291V54.379H31.5291ZM30.3765 54.379H31.0457V59.7014H30.3765V54.379ZM24.5202 54.379H25.2453L22.9398 60L20.6347 54.379H21.3597L22.9401 58.3195L24.5202 54.379ZM42.9621 57.0492C42.9621 57.6467 42.7575 58.1511 42.3303 58.5806C41.9398 58.9914 41.438 59.197 40.861 59.197C40.2848 59.197 39.7829 58.9914 39.3557 58.5806C38.9279 58.1509 38.7235 57.6467 38.7235 57.0492C38.7235 56.4517 38.9093 55.9473 39.3183 55.5365C39.7273 55.1073 40.2481 54.9018 40.8611 54.9018C41.4747 54.9018 41.9766 55.1074 42.367 55.5365C42.7578 55.9473 42.9621 56.4514 42.9621 57.0492ZM42.8137 55.0884C42.2562 54.5467 41.6052 54.2667 40.8614 54.2667C40.0993 54.2667 39.4489 54.5467 38.8908 55.0884C38.3519 55.6298 38.0729 56.2837 38.0729 57.0489C38.0729 57.833 38.3522 58.4869 38.8908 59.0282C39.4301 59.5513 40.0807 59.813 40.8614 59.813C41.6241 59.813 42.2929 59.5513 42.8137 59.0282C43.3529 58.4869 43.6317 57.833 43.6317 57.0489C43.632 56.2837 43.3532 55.6298 42.8137 55.0884ZM37.9244 54.379V54.9954H36.6786V59.7014H36.0095V54.9954H34.7455V54.379H37.9244ZM7.17461 55.5364C7.56507 55.9473 7.75088 56.4517 7.75088 57.0492C7.75088 57.6467 7.54622 58.1511 7.13756 58.5806C6.72858 58.9914 6.22636 59.197 5.65009 59.197C5.07381 59.197 4.57191 58.9914 4.14442 58.5806C3.75396 58.1508 3.5311 57.6467 3.5311 57.0492C3.5311 56.4517 3.73544 55.9473 4.12591 55.5364C4.53489 55.1073 5.03711 54.9018 5.65043 54.9018C6.26375 54.9018 6.78446 55.1073 7.17461 55.5364ZM7.60244 55.0884C7.04468 54.5467 6.39399 54.2668 5.65043 54.2668C4.88801 54.2668 4.21916 54.5468 3.69842 55.0884C3.14066 55.6298 2.86193 56.2837 2.86193 57.0489C2.86193 57.833 3.14098 58.4869 3.69842 59.0282C4.21916 59.5513 4.86982 59.813 5.65043 59.813C6.43136 59.813 7.08202 59.5513 7.60244 59.0282C8.1602 58.4869 8.42042 57.833 8.42042 57.0489C8.42039 56.2837 8.1602 55.6298 7.60244 55.0884ZM9.62884 57.5344C9.62884 58.6364 10.0564 59.197 10.9117 59.197C11.7485 59.197 12.1945 58.6364 12.1945 57.5344V54.3787H12.8452V57.7586C12.8452 58.3561 12.6779 58.8416 12.3244 59.2156C11.9713 59.6264 11.4879 59.8131 10.9117 59.8131C10.3169 59.8131 9.85201 59.6264 9.49891 59.2156C9.12696 58.8416 8.95999 58.3561 8.95999 57.7586V54.3787H9.62918V57.5344H9.62884ZM1.18831 54.379V59.1036H2.80573V59.7011H0.537647V54.3787H1.18831V54.379ZM17.1208 56.5636C18.0132 56.918 18.441 57.4411 18.441 58.1508C18.441 58.6364 18.2737 59.0283 17.9391 59.3461C17.623 59.6636 17.2326 59.8134 16.7677 59.8134C16.3402 59.8134 15.9683 59.6825 15.6525 59.3836C15.355 59.1036 15.1692 58.7486 15.1133 58.3195L15.7825 58.1697C15.7825 58.4686 15.8754 58.7114 16.08 58.917C16.2847 59.1036 16.5075 59.197 16.8051 59.197C17.0841 59.197 17.307 59.0847 17.5116 58.8795C17.6789 58.6929 17.7718 58.4498 17.7718 58.1512C17.7718 57.7404 17.4743 57.4046 16.8609 57.1426L16.489 57.0123C15.7454 56.6573 15.3549 56.2093 15.3549 55.6487C15.3549 55.2379 15.5222 54.8832 15.8198 54.6401C16.1359 54.3791 16.489 54.2668 16.9168 54.2668C17.5301 54.2668 17.9765 54.5468 18.2737 55.0884L17.7533 55.3873C17.5486 55.0698 17.2699 54.9018 16.898 54.9018C16.6748 54.9018 16.4516 54.9576 16.2843 55.0884C16.0985 55.2376 16.0053 55.4248 16.0053 55.6484C16.0053 55.9659 16.247 56.209 16.7674 56.3956L17.1208 56.5636ZM13.7375 54.379H14.407V59.7014H13.7375V54.379ZM39.8439 6.26753L27.0214 36.6675L23.4839 28.8702L30.018 11.0053C30.5094 9.62369 32.2286 8.98197 35.1276 8.98197L36.1588 6.26753H20.9291L19.9463 8.98197C22.1081 8.98197 22.9925 9.62339 22.6483 11.0053L19.4061 20.0857L13.0195 6.26753C11.8404 4.78717 12.4298 4.04664 14.7391 4.04664V0.839287H0V4.04699C2.75145 4.04699 4.47074 4.78749 5.20793 6.26788L16.0165 29.3641L10.956 42.9353C10.8574 44.7611 8.00822 45.6501 2.50561 45.6501L1.47406 48.3642H43.5285L49.375 35.8785H46.3288C43.4797 42.3433 40.188 45.6501 36.5033 45.6501H17.1952L20.0447 38.0006L22.5011 42.9353H28.0037L43.5282 6.26817C44.2654 4.04728 46.1817 2.86325 49.1783 2.86325V0H36.503V2.86261C40.3352 2.86261 41.4163 4.04696 39.8439 6.26753Z" fill="#949494"/>
</g>
<defs>
<clipPath id="clip0">
<rect width="49.375" height="60" fill="white"/>
</clipPath>
</defs>
</svg>
