<svg width="351" height="26" viewBox="0 0 351 26" fill="none" xmlns="http://www.w3.org/2000/svg">
<path fill-rule="evenodd" clip-rule="evenodd" d="M0 24.4773H4.62161V0.955181H0V0.00390454H16.5858C20.1214 0.00390454 24.3367 0.138683 27.5968 1.36343C29.7728 2.31471 30.9956 4.354 30.9956 6.25851C30.9956 8.16302 29.7748 9.24907 28.0051 10.4738C27.0538 11.1536 26.5107 11.2884 25.0145 11.6966C27.0538 11.9681 28.4133 12.3764 30.3159 13.4644C32.3551 14.822 33.1716 16.7304 33.1716 18.631C33.1716 20.805 31.6754 22.8463 28.9563 23.7976C24.8778 25.2938 20.1194 25.4305 15.7674 25.4305H0V24.4773ZM12.5072 24.4773H15.9061C18.7599 24.4773 21.0726 23.9323 22.8404 23.3854C24.3367 22.5728 25.8329 21.2113 25.8329 18.6271C25.8329 15.6365 25.0164 13.5992 21.7524 12.5092C20.1214 12.1029 12.644 12.2377 12.5092 12.2377V24.4773H12.5072ZM12.5072 11.1516C16.0428 11.1516 19.8479 11.2864 21.3442 10.7434C23.5202 9.7921 24.3367 8.83888 24.3367 6.11983C24.1999 3.80902 23.3834 2.58427 22.0239 1.90451C20.3948 1.08996 17.8106 0.953229 15.0915 0.953229H12.5072V11.1516ZM133.778 24.4773H138.4V0.955181H133.778V0.00390454H150.364C153.9 0.00390454 158.113 0.138683 161.377 1.36343C163.688 2.31471 164.776 4.354 164.776 6.25851C164.776 8.16302 163.688 9.24907 161.786 10.4738C160.834 11.1536 160.289 11.2884 158.795 11.6966C160.834 11.9681 162.194 12.3764 164.233 13.4644C166.138 14.822 166.952 16.7304 166.952 18.631C166.952 20.805 165.456 22.8463 162.874 23.7976C158.797 25.2938 153.902 25.4305 149.55 25.4305H133.78V24.4773H133.778ZM146.422 24.4773H149.685C152.675 24.4773 154.851 23.9323 156.619 23.3854C158.25 22.5728 159.609 21.2113 159.609 18.6271C159.609 15.6365 158.93 13.5992 155.531 12.5092C153.9 12.1029 146.422 12.2377 146.422 12.2377V24.4773ZM146.422 11.1516C149.958 11.1516 153.628 11.2864 155.125 10.7434C157.299 9.7921 158.115 8.83888 158.115 6.11983C158.115 3.80902 157.164 2.58427 155.804 1.90451C154.173 1.08996 151.589 0.953229 149.007 0.953229H146.424V11.1516H146.422ZM45.9524 18.8986V0.953229H40.649V0.00195227H58.1881V0.953229H53.0215V18.7638C53.0215 20.5296 53.836 21.6176 55.3323 22.7056C56.6938 23.9304 58.4596 24.4754 61.8584 24.4754C65.8003 24.4754 68.656 23.6589 70.2871 22.1626C72.0549 20.8011 72.8694 19.0334 72.7327 17.2675V0.951276H67.7028V0H79.9386V0.951276H74.7719V17.4004C74.7719 19.8499 73.6839 22.1626 71.3731 23.6569C68.9276 25.1532 66.2066 25.9697 61.7217 25.9697C57.5064 25.9697 52.6113 25.4247 49.8942 24.1999C47.3119 23.1119 45.9524 21.3461 45.9524 19.0334V18.8986ZM92.313 24.4773V0.955181H87.1464V0.00390454H106.723C110.936 0.138685 113.112 0.00390302 116.103 1.09191C118.142 1.90646 119.502 3.53946 119.502 5.987C119.502 10.8821 115.015 11.4251 111.889 12.1049C114.608 12.2396 116.105 12.7846 117.87 13.4644C119.638 14.4137 120.453 15.91 120.861 16.8632C121.269 18.2208 121.133 19.8538 121.133 21.2133C121.404 23.6628 122.629 24.7508 124.94 24.4793C125.619 24.3425 126.028 24.071 126.571 23.6628L127.252 24.7508C125.944 25.6678 124.358 26.1009 122.766 25.9755C120.181 25.9755 118.144 25.5673 116.511 24.6141C114.88 23.6647 113.929 22.3013 113.52 20.3987C113.249 18.7697 113.386 17.2734 112.841 15.6404C111.889 13.1948 108.489 12.6498 106.315 12.6498H100.06V24.4812H105.363V25.4305H86.8749V24.4812H92.313V24.4773ZM100.062 11.4231H106.859C110.124 11.4231 112.161 10.0636 112.161 5.98504C112.161 2.72296 109.442 0.955181 106.588 0.955181H100.06V11.4231H100.062ZM272.046 24.4773V0.955181H266.879V0.00390454H286.454C290.669 0.138685 292.843 0.00390302 295.697 1.09191C297.871 1.90646 299.234 3.53946 299.234 5.987C299.234 10.8821 294.747 11.4251 291.485 12.1049C294.339 12.2396 295.835 12.7846 297.467 13.4644C299.367 14.4137 300.184 15.91 300.457 16.8632C300.998 18.2208 300.861 19.8538 300.861 21.2133C300.998 23.6628 302.358 24.7508 304.669 24.4793C305.348 24.3425 305.757 24.071 306.165 23.6628L306.845 24.7508C305.624 25.7001 303.991 26.1084 302.358 25.9755C299.912 25.9755 297.871 25.5673 296.242 24.6141C294.609 23.6647 293.521 22.3013 293.251 20.3987C292.976 18.7697 293.115 17.2734 292.435 15.6404C291.618 13.1948 288.219 12.6498 285.907 12.6498H279.791V24.4812H285.094V25.4305H266.602V24.4812H272.046V24.4773ZM279.795 11.4231H286.456C289.718 11.4231 291.892 10.0636 291.892 5.98504C291.892 2.72296 289.175 0.955181 286.184 0.955181H279.795V11.4231ZM225.685 24.4773V0.955181H220.519V0.00390454H240.093C244.447 0.138685 246.482 0.00390302 249.475 1.09191C251.516 1.90646 253.012 3.53946 253.012 5.987C253.012 10.8821 248.526 11.4251 245.26 12.1049C247.981 12.2396 249.475 12.7846 251.241 13.4644C253.01 14.4137 253.823 15.91 254.231 16.8632C254.776 18.2208 254.507 19.8538 254.507 21.2133C254.778 23.6628 256.136 24.7508 258.31 24.4793C258.994 24.3425 259.398 24.071 259.943 23.6628L260.623 24.7508C259.398 25.7001 257.632 26.1084 256.136 25.9755C253.553 25.9755 251.516 25.5673 249.883 24.6141C248.25 23.6647 247.301 22.3013 246.893 20.3987C246.621 18.7697 246.756 17.2734 246.213 15.6404C245.26 13.1948 241.859 12.6498 239.685 12.6498H233.432V24.4812H238.868V25.4305H220.243V24.4812H225.685V24.4773ZM233.432 11.4231H240.23C243.492 11.4231 245.533 10.0636 245.533 5.98504C245.533 2.72296 242.812 0.955181 239.958 0.955181H233.43V11.4231H233.432ZM175.789 24.4773H180.958V0.955181H175.789V0.00390454H208.009V7.61804H206.789C206.244 5.57875 204.884 2.99447 203.251 1.90646C202.163 1.22669 200.397 0.955181 197.407 0.955181H188.704V11.6966C190.746 11.6966 193.463 11.8314 195.229 11.0168C196.59 10.3371 197.541 8.84083 197.815 7.20979H199.172V17.4043H197.815C197.539 15.5037 196.453 14.2789 195.094 13.6011C193.736 13.0561 191.148 13.0561 188.704 13.0561V24.4793H198.495C202.706 24.4793 204.202 23.9343 205.835 22.983C207.332 21.8911 208.826 19.176 209.234 16.7304H210.322V25.4286H175.789V24.4773ZM319.627 24.4773H325.608V13.4624L313.644 0.955181H308.616V0.00390454H328.191V0.955181H322.21L332.136 12.1049L342.468 0.955181H335.535V0.00390454H350.078V0.955181H344.642L333.222 13.4624V24.4773H339.204V25.4266H319.625V24.4773H319.627Z" fill="#949494"/>
</svg>
