<svg width="199" height="43" viewBox="0 0 199 43" fill="none" xmlns="http://www.w3.org/2000/svg">
<path d="M10.4355 0H36.1934C35.7111 0.58653 35.0494 1.17306 35.0972 2.0162C35.0255 8.96903 35.1411 15.9259 35.0494 22.8747C35.0813 24.4428 33.8536 25.9458 32.299 26.0436C29.8875 26.1821 27.4679 25.9255 25.0604 26.1373C24.3389 26.2024 23.8486 26.8093 23.2985 27.2166C22.6528 26.736 22.027 26.0762 21.1739 26.0924C18.7464 25.9617 16.3149 26.2065 13.8914 26.0024C12.2452 25.754 11.3643 23.9333 11.4599 22.3655C11.4519 15.7141 11.4639 9.06271 11.4599 2.41536C11.5556 1.4704 10.9577 0.708724 10.4355 0ZM23.3304 0.704651C23.3264 4.79 23.2945 8.87127 23.3304 12.9525C27.0055 12.9159 30.6807 12.924 34.3558 12.9485C34.5312 8.87127 34.0928 4.75741 34.6149 0.700578C30.8561 0.71687 27.0932 0.720943 23.3304 0.704651ZM13.716 4.29308C13.4011 4.68817 13.1062 5.09548 12.8112 5.50687C13.15 7.15648 14.5292 8.51691 16.2272 8.51691C15.9961 7.92223 15.7569 7.33163 15.5098 6.7451C14.7843 6.70844 14.0389 6.70844 13.3812 6.35001C14.0588 6.28483 14.7763 6.44776 15.4181 6.15042C15.6373 6.05267 16.0718 5.85716 16.291 5.7594C16.4265 5.95084 16.7016 6.32557 16.8371 6.517C16.5302 6.41517 15.9203 6.21152 15.6134 6.10969C17.0643 7.9263 16.9846 10.3824 16.6298 12.5737C16.9926 12.6185 17.7101 12.7041 18.0688 12.7489C17.6543 10.8467 17.443 8.83869 18.0529 6.95283C17.8257 7.14019 17.3673 7.51899 17.1401 7.71043C16.9766 7.59638 16.6458 7.36829 16.4824 7.25424C17.5865 7.05873 17.9891 5.94269 18.7464 5.25841C18.7026 4.7289 18.6508 4.19532 18.591 3.66581C18.9497 3.29516 19.2686 2.89599 19.5436 2.46017C19.0972 1.91437 18.4275 2.15876 17.8655 2.26059C17.7978 2.13432 17.6622 1.88586 17.5984 1.76366C17.2875 1.73515 16.6657 1.67813 16.3548 1.64962C15.163 2.14654 14.1904 3.05485 13.716 4.29308ZM19.0255 5.50279C18.6747 5.74718 18.3199 5.99157 17.9731 6.23596C18.2402 6.73654 18.4953 7.24202 18.7385 7.75523C19.3244 7.80818 19.9064 7.87743 20.4923 7.95482C20.7594 7.69006 21.0344 7.42531 21.3095 7.16463C21.4011 6.61476 22.0947 5.96713 21.5765 5.47428C20.9109 5.51909 20.2532 5.62499 19.5915 5.70645L19.5516 5.33172C20.1615 5.33172 20.7674 5.3358 21.3772 5.34842C21.3812 4.14685 20.596 3.2304 19.8904 2.36689C19.0255 3.22184 18.8341 4.32973 19.0255 5.50279ZM12.0857 22.8217C12.0578 24.0274 12.9029 25.0294 13.9592 25.457C17.0245 25.958 20.293 24.9031 23.2347 26.1087C23.1989 21.8197 23.2232 17.5307 23.2188 13.2458C19.5078 13.2214 15.7968 13.2662 12.0857 13.2173C12.0538 16.4188 12.0259 19.6203 12.0857 22.8217ZM25.5267 13.8609C25.148 14.7325 24.7734 15.6041 24.4385 16.4962C24.3229 16.6061 24.0957 16.8302 23.9801 16.9401C24.1236 17.9095 24.1675 18.8912 24.1914 19.8687C24.2592 19.7628 24.4027 19.5592 24.4704 19.4533C24.303 18.7201 24.1515 17.9666 24.3787 17.2253C24.5222 17.266 24.8132 17.3434 24.9567 17.3841L25.156 17.0297C25.2836 17.1434 25.5347 17.376 25.6622 17.4941L25.8297 16.6143C26.2602 17.2375 26.587 17.9218 26.89 18.6142C27.3204 17.9991 27.6672 17.3108 27.3763 16.5491L27.0813 17.9987C26.7823 17.4244 26.4714 16.8583 26.1326 16.3084C25.9014 16.5161 25.6662 16.7198 25.435 16.9234L24.877 15.7789C25.3752 15.8766 26.3718 16.0722 26.87 16.1699C26.9258 15.4205 26.9497 14.6669 26.8621 13.9175C26.5272 13.9016 25.8615 13.8731 25.5267 13.8609ZM30.605 16.1174C30.8561 16.1744 31.3543 16.2925 31.6015 16.3495C31.5377 16.5125 31.4062 16.8342 31.3424 16.9931L30.6329 16.875C30.4973 17.2497 30.3618 17.6244 30.2343 18.0032C30.3817 17.8199 30.6767 17.4574 30.8242 17.2741C31.5576 17.2904 32.3867 17.1601 33.0205 17.6326C33.463 18.7119 31.3264 17.7262 31.5975 18.8912C32.0678 18.826 32.4545 19.0296 32.7295 19.4329C33.7141 18.4105 33.4586 16.8342 32.8132 15.6974C32.3668 14.9195 32.1914 13.5224 31.0275 13.6405C30.031 14.1012 30.4814 15.2783 30.605 16.1174ZM28.1735 15.7589C28.5282 16.3129 29.5447 15.7182 29.0663 15.1643C28.7076 14.7284 27.739 15.2253 28.1735 15.7589ZM28.1535 16.5736C27.6672 17.6203 27.9662 18.773 28.4007 19.7791C28.7953 20.7852 27.9104 21.669 27.5397 22.5325C27.8107 22.9317 28.0658 23.339 28.309 23.7586C28.2532 23.3512 28.1416 22.5325 28.0818 22.1212C28.592 22.6588 28.9029 23.2983 29.0265 24.0355C29.0145 23.4816 28.9986 22.9276 28.9906 22.3737C29.3135 22.3533 29.9632 22.3085 30.2861 22.2841C29.9433 21.5183 29.0504 20.7485 29.3892 19.8239C29.7838 18.6997 29.9991 17.4696 29.445 16.3577C29.0105 16.3943 28.5761 16.4677 28.1535 16.5736ZM26.7584 19.6936C26.009 20.1579 27.0932 21.0947 27.6912 20.7648C28.3728 20.3982 27.3723 20.0805 27.1132 19.8891C27.0215 19.8402 26.8461 19.7424 26.7584 19.6936ZM27.5795 19.6773C27.8187 19.9257 27.8187 19.9257 27.5795 19.6773V19.6773ZM155.385 7.31941C158.506 4.50488 161.75 1.32784 165.968 0.439898C164.923 1.21379 163.715 1.70257 162.627 2.395C160.271 3.85318 158.139 5.68609 156.305 7.77967C156.911 8.96088 158.087 9.82031 158.569 11.1156C160.523 14.8954 158.262 20.0479 154.268 21.1843C152.794 21.6487 150.725 21.0214 150.673 19.1804C150.625 15.9137 153.854 13.2254 156.963 13.4372C154.667 14.4677 152.124 16.0322 151.693 18.7934C151.438 19.5754 152.271 19.995 152.674 20.5C154.966 19.8158 156.596 17.714 157.417 15.5105C158.318 13.1399 157.421 10.4635 155.687 8.75722C150.773 14.1989 148.572 21.5794 143.737 27.0985C140.708 30.915 136.77 33.9373 132.377 35.9291C129.778 37.1469 126.685 37.9167 123.919 36.8292C121.738 36.0675 120.495 33.1349 121.746 31.078C122.197 30.3937 123.42 29.6524 123.954 30.6258C124.668 32.0392 123.632 33.4811 122.631 34.4016C123.388 35.5747 124.628 36.3527 126.019 36.3975C129.395 36.5359 132.608 34.9515 135.127 32.752C139.365 29.1066 142.179 24.1496 145.619 19.7873C148.373 15.6978 151.391 11.7998 154.635 8.10145C150.577 5.82457 145.599 6.35408 141.461 8.12182C136.447 10.3172 132.046 13.9138 128.714 18.3128C127.658 19.7262 126.789 21.7586 127.757 23.449C128.885 24.9927 130.986 25.2778 132.728 24.9357C135.725 24.3532 138.484 22.8136 140.863 20.8951C144.857 17.6 148.034 13.1521 149.366 8.04443C149.493 10.5983 148.401 12.9892 147.161 15.1317C144.853 19.1437 141.649 22.7729 137.543 24.8909C135.151 26.0395 132.353 26.7482 129.754 25.9377C128.22 25.4163 126.629 24.2107 126.494 22.4348C126.119 19.6895 127.438 17.0705 129.188 15.0787C133.501 9.71848 140.026 6.52108 146.707 5.69423C149.673 5.35209 152.738 5.89381 155.385 7.31941ZM16.5262 4.24827C17.1241 3.95908 17.1879 3.1526 17.738 2.79009C17.8097 4.64336 15.3503 5.49465 14.1944 4.25642C14.9716 4.30122 15.8366 4.87146 16.5262 4.24827ZM27.9542 5.40097C28.2691 4.49266 28.6 3.58842 28.9906 2.7127C29.3254 3.59657 29.6483 4.48451 29.9473 5.38467C30.8601 5.39689 31.7729 5.36838 32.6817 5.3358C31.9841 5.94269 31.0355 6.37444 30.581 7.19314C30.7485 8.05257 30.9996 8.88756 31.2108 9.73477C30.4495 9.21341 29.7001 8.67576 28.9388 8.15847C28.2014 8.70427 27.456 9.24192 26.6946 9.75921C26.9179 8.8672 27.2292 7.99148 27.3444 7.07095C26.7345 6.41925 26.0011 5.90603 25.3274 5.32358C26.2044 5.35616 27.0773 5.38875 27.9542 5.40097ZM64.06 7.63711C68.7834 4.46007 74.5632 3.21777 80.1636 3.4866C80.9449 3.52733 81.7062 3.71469 82.4636 3.9102C81.7262 4.28086 80.901 4.08127 80.1198 4.08942C75.0097 3.9713 69.6962 5.18102 65.5986 8.43137C63.3385 10.2398 61.182 12.5249 60.4845 15.4575C60.05 17.1601 60.5442 19.1233 61.9194 20.2353C64.3748 22.5529 67.9942 22.8584 71.1472 22.2719C71.6773 22.2189 72.1357 21.9134 72.4426 21.4735C76.632 15.8078 80.9927 10.0932 86.7008 5.93047C88.638 4.59041 90.9021 3.44179 93.3096 3.67803C94.4616 3.76357 95.6734 4.43971 96.0122 5.63721C96.4547 6.78583 95.8807 7.97518 95.3585 8.98124C93.8358 11.8447 91.2409 13.8609 88.7057 15.7304C84.8712 18.5327 80.5822 20.6304 76.1337 22.2067C75.0655 22.4266 74.627 23.506 73.9813 24.2636C70.342 29.0292 65.4033 32.4832 60.4605 35.6928C66.0331 36.0838 72.4386 36.6541 77.0107 32.6991C78.6569 30.601 80.6695 28.4964 83.2927 27.8928C87.4944 26.9254 88.0624 28.3657 87.6813 32.1981C89.2837 31.135 90.8463 29.9619 92.1497 28.5282C92.5603 27.7665 92.4606 26.7808 93.0227 26.0884C93.4571 25.5996 94.2145 25.3593 94.7486 25.8562C94.928 26.9071 94.1029 27.685 93.5966 28.4875C94.7566 28.6544 96.8293 28.7563 96.3191 30.5281C95.5984 33.0306 93.2622 34.4318 91.6315 36.3319C90.8471 37.2459 90.8447 37.2956 92.1425 37.2471C93.8223 37.1848 95.4318 36.3197 96.7851 35.3425C99.6551 33.0045 101.62 29.3387 105.323 28.2145C106.834 27.8398 108.664 27.5425 110.031 28.4875C111.247 29.4854 110.461 31.2042 110.409 32.5198C113.455 30.4303 115.348 27.0619 118.079 24.6383C117.628 26.6912 115.962 28.1127 114.746 29.7094C113.072 31.7052 111.207 34.145 108.42 34.2917C106.292 36.1694 103.836 38.2304 100.851 38.096C99.396 38.0145 98.6426 36.5278 98.6267 35.1877C96.7492 36.7192 94.525 37.9412 92.1015 38.1693C90.0969 38.5167 89.1538 36.4231 90.236 34.7641C91.4079 32.695 93.6242 31.6034 95.0272 29.7257C94.2938 29.5709 93.5564 29.4406 92.823 29.3102C90.6944 31.1635 88.6575 33.363 85.8394 34.0595C84.5041 35.0941 83.3202 36.3771 81.7975 37.1591C80.3147 38.0878 78.3735 38.4911 76.791 37.5787C75.8384 36.9758 76.1054 35.6602 75.9739 34.699C71.2424 37.4728 65.5663 38.2222 60.209 37.542C59.1487 37.4605 58.0685 36.9066 57.0242 37.3058C54.3097 38.2548 51.3799 38.4014 48.5458 38.0837C47.641 37.933 46.4691 37.7212 46.194 36.6622C46.3375 35.2611 47.9838 35.0818 49.0361 34.7682C52.209 34.2591 55.3899 34.9963 58.5389 35.3018C60.9345 34.2876 62.9833 32.6095 64.9763 30.9435C67.2444 28.7848 69.0182 26.1576 70.8438 23.6119C67.4437 23.8441 63.637 23.6975 60.9983 21.1803C58.487 19.3229 57.9489 15.5838 59.2843 12.8426C60.4526 10.7571 62.1108 8.9731 64.06 7.63711ZM84.5682 9.47002C81.5508 12.9973 78.8522 16.8098 76.5124 20.8381C82.4556 18.6305 88.2155 15.4494 92.64 10.7571C93.8119 9.36005 95.3983 7.79596 95.0237 5.76755C94.4058 4.79814 93.202 4.53339 92.1497 4.71261C89.0645 5.05882 86.629 7.27868 84.5682 9.47002ZM82.7546 30.0067C80.8731 31.6115 79.203 33.4648 77.7042 35.4403C77.2419 35.9372 77.3893 36.8496 78.1387 36.9066C80.4307 37.2447 82.3799 35.5299 84.0221 34.1206C84.7396 33.6237 84.8034 32.7072 85.1303 31.9618C85.4691 31.1839 86.2902 30.8458 86.9599 30.4263C86.8243 29.9456 87.0436 29.2002 86.5254 28.9314C85.1901 28.4915 83.779 29.1391 82.7546 30.0067ZM108.066 29.0047C105.057 29.8316 102.729 32.1736 100.839 34.6012C100.493 35.1429 99.8189 35.815 100.309 36.483C100.895 37.1184 101.924 37.1062 102.685 36.8374C104.467 36.1531 106.021 34.9759 107.392 33.644C107.644 32.7724 107.711 31.6767 108.608 31.2083C109.055 30.8336 110.107 30.5607 109.676 29.746C109.605 29.0047 108.636 28.8703 108.066 29.0047ZM47.2587 36.3241C48.0838 37.3139 49.455 37.2569 50.615 37.2773C52.3569 37.1999 54.1466 37.1591 55.8008 36.5278C53.0704 35.5828 49.9772 35.0207 47.2587 36.3241ZM8.3189 8.39064C9.21975 10.3376 8.60989 12.6145 7.21875 14.146C7.85652 14.2763 8.49828 14.4067 9.12807 14.5777C7.97212 15.6978 6.32986 16.3943 5.64027 17.9421C5.20978 18.7038 5.76783 19.4533 6.02293 20.1579C6.38965 19.7954 6.7484 19.4247 7.10714 19.0541C6.75637 19.0378 6.05881 19.0011 5.70804 18.9808C6.34182 18.1865 7.27456 17.877 8.23121 17.7344C8.23121 17.376 8.23121 16.6591 8.23121 16.297C8.63779 16.8428 9.02444 17.4049 9.39514 17.9751C9.9213 18.2765 10.4475 18.582 10.9696 18.8952C9.31143 19.2537 7.71302 20.2964 7.2347 22.0438C6.8042 22.7688 7.76883 23.2738 8.11562 23.726C8.16345 23.2657 8.25911 22.3492 8.30695 21.889C8.7773 22.39 9.2357 22.8991 9.67815 23.4246C9.98906 23.2983 10.6069 23.0539 10.9178 22.9317C10.6308 23.4775 10.3159 24.007 10.0847 24.5772C10.1405 25.2452 10.3598 25.8806 10.5033 26.5283C10.009 26.3613 9.51472 26.2024 9.01647 26.0517C9.11612 27.1515 9.95717 27.3144 10.8461 27.1026C10.8576 26.736 10.8819 26.0028 10.8939 25.6363C11.3682 26.1128 11.8386 26.5975 12.305 27.0863C12.5162 26.956 12.9387 26.6912 13.15 26.5609C12.8196 27.6928 12.7275 28.8744 12.8949 30.0434C13.7519 29.4202 14.7245 28.9966 15.8007 29.2125C15.3543 29.6524 14.8959 30.076 14.4893 30.5525C15.1311 31.3957 16.0997 30.8214 16.9208 30.6662C16.6737 31.4726 16.7853 32.2632 17.2995 32.9349C17.5825 32.5031 17.8575 32.0714 18.1326 31.6356C17.9496 30.7843 17.738 29.6764 18.7668 29.3139C20.6801 29.3587 21.3139 31.6071 22.2506 32.939C22.0194 33.3422 21.7842 33.7414 21.545 34.1365L21.2421 33.3504C21.2142 33.5744 21.1504 34.0265 21.1185 34.2546C20.1938 33.5011 19.261 32.7598 18.3721 31.9614C18.6751 34.4949 20.6522 36.2871 22.6053 37.6353C22.2386 37.1709 21.8599 36.7229 21.4653 36.2912C21.6925 36.2504 22.1509 36.1608 22.3781 36.1201C22.1031 35.9531 21.832 35.7902 21.557 35.6232C22.2426 34.7556 22.8445 33.8106 23.1474 32.7312C22.9681 32.7312 22.6133 32.7272 22.4339 32.7272C22.2227 31.3912 21.4135 29.9411 22.1071 28.6255C22.5735 27.6765 24.0284 27.7132 24.4589 28.6744C25.0687 29.9982 24.3353 31.3993 24.0961 32.719L23.5381 32.5113C23.55 32.8575 23.5819 33.5459 23.5939 33.888C23.9327 34.1324 24.2715 34.3768 24.6063 34.6293L23.7131 35.004C24.1001 35.114 24.869 35.3299 25.2557 35.4399C25.0045 35.5906 24.5023 35.892 24.2552 36.0468C24.4744 36.1282 24.9089 36.2993 25.1281 36.3808C24.7973 36.6577 24.1396 37.2035 23.8127 37.4764C26.009 36.5722 27.3922 34.3931 28.3409 32.2751C28.8232 32.2995 29.4091 32.7272 29.732 32.1614C29.732 31.6238 29.7081 31.0861 29.6603 30.5525C30.2502 30.7521 30.8401 30.9435 31.4341 31.1309C31.5776 30.8702 31.8685 30.3448 32.016 30.08C31.5098 29.8397 31.0036 29.5953 30.5013 29.351C31.6055 28.9681 32.7176 29.1758 33.5786 29.9986C33.7898 28.8011 33.6782 27.5954 33.2557 26.459C33.5626 26.6338 33.8735 26.8093 34.1805 26.9845C34.587 26.5568 34.9936 26.1291 35.4002 25.7014C35.5038 26.0314 35.7111 26.6993 35.8147 27.0293C36.5482 27.4162 37.2059 26.9804 37.449 26.2472C37.0584 26.2391 36.2811 26.2187 35.8945 26.2106C36.1017 25.6648 36.309 25.1149 36.5203 24.5691C36.1336 24.0111 35.7549 23.449 35.3803 22.8869C35.7749 23.0172 36.5677 23.2698 36.9667 23.4001C37.0664 23.1354 37.2696 22.614 37.3733 22.3492C37.5168 22.2556 37.8118 22.0682 37.9553 21.9745C38.1665 22.5896 38.4017 23.2005 38.6568 23.7993C38.9039 22.9887 39.5258 22.0438 38.892 21.2454C38.2701 19.8565 36.8631 19.2048 35.4879 18.8708C35.6952 18.6997 36.1017 18.3617 36.309 18.1947C36.4804 18.1661 36.8232 18.1091 36.9946 18.0847C37.3055 17.4982 37.6244 16.9198 37.9672 16.3536C38.0429 16.7039 38.1984 17.4085 38.2741 17.7588C39.1551 17.881 40.02 18.1336 40.606 18.8789L39.2507 18.9278C39.6174 19.3148 39.9881 19.6976 40.3628 20.0805C40.5462 19.4084 41.0923 18.7038 40.7375 17.9829C40.1077 16.3251 38.4455 15.4697 37.0943 14.5085C37.7719 14.3618 38.4495 14.2152 39.1311 14.0849C37.7161 12.5656 37.1301 10.2398 37.9792 8.28067C38.2104 9.06678 38.4136 9.86104 38.7166 10.6186C39.0275 10.2154 39.3185 9.79587 39.6135 9.37634C39.7888 9.86919 39.9682 10.362 40.1436 10.8549C40.6698 10.6797 41.1999 10.5046 41.734 10.3335C41.3753 11.2541 41.1361 12.2153 40.9886 13.1969C41.2398 12.8629 41.742 12.2031 41.9931 11.8732C42.2403 12.7896 42.4715 13.7101 42.6309 14.651C42.886 14.1704 43.1491 13.6939 43.4201 13.2214C44.022 15.0217 43.4082 16.8342 43.0893 18.6142C43.3045 18.6264 43.735 18.6508 43.9503 18.6631C44.2134 18.0847 44.4764 17.5104 44.7634 16.9483C44.8551 17.7181 44.9189 18.4961 44.9707 19.27C45.473 19.7954 45.9393 20.3493 46.3898 20.9196C45.1899 20.7607 43.7709 20.3656 42.7824 21.335C42.0768 21.7994 41.9652 23.2372 42.902 23.4612C43.2208 23.2087 43.8586 22.7077 44.1815 22.4592C43.9702 23.1598 43.8546 23.9011 43.5317 24.561C42.8143 25.4856 41.6663 25.9988 41.1959 27.1392C41.6862 26.9356 42.1725 26.7238 42.6588 26.5079C42.7026 27.9131 42.8541 29.3061 42.9498 30.7073C42.1526 29.9578 41.4949 28.7481 40.2712 28.7644C39.6174 28.7726 38.609 28.9029 38.4655 29.7012C38.4416 30.4588 39.4022 30.2307 39.8646 30.4629C39.7849 31.2979 39.8765 32.1329 39.9961 32.9597C38.9119 32.3121 37.5806 31.2124 36.3808 32.2469C36.7913 32.7805 37.2178 33.31 37.6328 33.8395C36.0144 33.6237 33.7822 32.528 32.5705 34.145C32.9372 34.6175 33.3199 35.0737 33.7264 35.5177C33.0727 35.6073 32.419 35.6806 31.7613 35.7417C31.7812 35.982 31.8211 36.4667 31.8371 36.707C31.4066 36.4911 30.9761 36.2753 30.5416 36.0635C29.7284 36.5608 28.8395 36.9885 27.8909 36.5685C27.0458 37.3832 26.2765 38.2711 25.571 39.2079C25.9496 39.4645 26.3283 39.7211 26.707 39.9818C26.1609 40.2099 25.6148 40.4339 25.0687 40.6661C25.1803 41.0042 25.2919 41.3422 25.4075 41.6803C25.1166 42.1161 24.8296 42.556 24.5505 43C23.6856 42.9796 22.8126 43.0122 21.9556 42.8819C21.4773 42.2098 21.3816 41.3748 21.1743 40.5969C20.7718 40.3484 20.3373 40.1773 19.9147 39.9818C20.2735 39.7171 20.6322 39.4564 20.991 39.1916C20.2775 38.267 19.5082 37.3913 18.699 36.5604C18.3283 36.7029 17.9576 36.8455 17.5869 36.9881C17.0647 36.7029 16.5425 36.4178 16.0283 36.1242C15.6417 36.3237 15.255 36.5197 14.8684 36.7188C14.8046 36.4948 14.6731 36.0427 14.6093 35.8187C13.9994 35.7576 13.3896 35.6843 12.7837 35.6028C13.1424 35.0611 13.8081 34.6538 13.8599 33.945C12.4568 32.8575 10.5874 33.611 9.04477 33.9491C9.34771 33.2974 9.86988 32.6905 9.82205 31.9248C8.51502 31.6519 7.4065 32.4502 6.35019 33.0938C6.4897 32.5154 6.62921 31.9411 6.77271 31.3667C6.65313 31.1468 6.40998 30.7028 6.2904 30.4829C6.80061 30.4421 7.31482 30.3973 7.82503 30.3525C7.85692 30.0878 7.92468 29.5583 7.95657 29.2935C7.1195 29.0858 6.22264 28.6133 5.36962 29.0247C4.43688 29.3261 4.05821 30.3159 3.52407 31.0572C3.52407 29.5053 3.69986 27.9657 3.78317 26.422C4.10604 26.6745 4.74779 27.1836 5.07067 27.4362C4.86738 26.5156 4.23359 25.8558 3.50813 25.3222C2.57539 24.6461 2.04525 23.2897 2.67106 22.2226L2.47933 22.9317C2.76234 23.0906 3.33235 23.4083 3.61536 23.5671C4.63977 22.9276 4.05382 21.5591 3.15297 21.1599C2.18436 20.5449 1.03638 20.8992 0 21.0703V20.3697L0.00398606 20.7567C0.446439 20.3001 0.896863 19.8565 1.35925 19.4207C1.41904 18.6183 1.4868 17.8159 1.58645 17.0175C1.9452 17.71 2.26807 18.4187 2.70653 19.0663C2.81416 18.8789 3.03339 18.5079 3.14101 18.3209C2.75038 16.6509 2.36772 14.9402 2.84206 13.2377C3.12108 13.7224 3.38815 14.2111 3.65522 14.704C3.81864 13.7631 4.02193 12.8263 4.25711 11.9017C4.51222 12.2316 5.02642 12.8996 5.28551 13.2336C5.16952 12.2646 4.90684 11.3233 4.48432 10.4476C5.02642 10.5861 5.56454 10.7286 6.10266 10.8712C6.33385 10.3376 6.56504 9.80035 6.8042 9.27044C6.96763 9.66146 7.29847 10.4435 7.4619 10.8386C7.80072 10.0403 8.05583 9.21341 8.3189 8.39064ZM16.6538 18.0114C16.9368 17.1275 17.2517 16.2599 17.6303 15.4168C17.9612 16.2803 18.2761 17.156 18.591 18.0277C19.4799 18.0195 20.3688 18.0114 21.2616 18.0073C20.588 18.6468 19.7111 19.1233 19.2128 19.9217C19.3922 20.7729 19.6592 21.5998 19.8904 22.4389C19.1211 21.9297 18.4036 21.3391 17.5785 20.9318C16.8052 21.3717 16.1077 21.9297 15.3543 22.4022C15.5735 21.5061 15.8247 20.6182 16.0558 19.7221C15.3543 19.1763 14.6647 18.6183 13.9831 18.0521C14.872 18.0277 15.7609 18.0195 16.6538 18.0114ZM32.0041 15.9911C32.5302 15.3761 32.8212 16.5287 32.4067 16.8379C31.8885 17.4289 31.6812 16.2884 32.0041 15.9911ZM24.861 16.4432C24.9727 16.5573 24.9727 16.5573 24.861 16.4432V16.4432ZM149.477 26.1006C149.134 24.2188 151.454 22.6547 152.933 23.95C152.829 24.7972 152.901 25.8521 152.116 26.3939C151.383 27.0781 149.924 27.1392 149.477 26.1006ZM153.898 29.3835C155.803 28.4223 158.378 27.2126 160.2 28.9803C160.403 28.8418 160.81 28.5567 161.017 28.4141C161.938 28.4019 162.866 28.406 163.791 28.4304C161.882 30.968 159.693 33.2652 157.669 35.705C155.958 37.766 159.404 36.4516 160.012 35.9739C163.082 33.754 165.091 30.2552 168.415 28.3612C169.368 27.7909 170.691 27.6402 171.64 28.2879C172.09 28.8296 172.146 29.5913 172.389 30.2389C173.704 29.1595 175.147 27.8765 176.957 28.0276C178.615 27.9987 178.946 30.2434 178.269 31.4287C177.077 33.2013 175.318 34.5047 174.059 36.2162C173.12 37.4944 173.655 37.2377 174.893 36.7893C176.927 36.0517 178.645 34.4497 179.859 32.6587C181.748 30.113 184.682 28.4268 187.775 28.0317C188.616 27.9339 189.31 28.5001 189.884 29.0499C190.199 28.8341 190.518 28.6182 190.837 28.4023C191.733 28.4105 192.63 28.4064 193.531 28.4268C191.747 30.9211 189.536 33.0616 187.665 35.4757C186.834 36.5474 186.217 37.0549 188.054 36.5771C189.299 36.2533 190.428 35.5038 191.498 34.8179C194.372 32.875 196.377 29.9424 199 27.7184C198.9 28.9974 197.884 29.8283 197.15 30.757C194.528 33.7263 191.554 36.6223 187.795 37.9746C186.611 38.4023 185.268 37.9664 184.73 36.7689C183.407 37.6935 181.744 38.2027 180.15 37.9013C179.201 37.608 178.767 36.663 178.5 35.771C177.167 36.7331 175.65 37.7371 174.016 37.9978C173.092 38.1456 172.047 38.2613 171.708 37.2117C171.51 36.5979 171.644 35.8847 172.094 35.38C173.648 33.3719 175.617 31.7345 177.152 29.7021C177.232 28.8019 176.04 28.7693 175.482 29.087C173.8 29.9261 172.704 31.539 171.404 32.8465C169.798 34.4676 168.211 36.1132 166.665 37.7954C165.573 37.7791 164.48 37.7791 163.392 37.7546C165.138 35.7751 167.059 33.9666 168.873 32.0522C169.478 31.3781 170.188 30.7085 170.553 29.8743C170.872 29.1473 170.874 28.8357 170.575 28.7693C169.165 28.4577 166.863 30.5819 165.939 31.4779C163.731 33.5675 161.985 36.2964 159.139 37.5591C157.792 38.3289 155.759 38.4552 154.97 36.83C153.523 37.6935 151.673 38.4267 150.039 37.7098C149.106 37.331 148.907 36.272 148.775 35.3759C146.75 36.7119 144.486 38.3575 141.943 37.885C140.656 37.4899 141.094 35.8199 141.066 34.7975C139.025 36.1335 136.917 37.7628 134.425 37.9624C137.586 35.9584 140.823 34.0318 143.593 31.4616C144.713 30.5452 145.654 29.4129 146.806 28.5371C147.803 28.2561 148.875 28.472 149.899 28.4231C147.621 30.9065 145.286 33.1658 142.956 35.7718C141.743 37.1282 143.545 37.1371 144.251 36.8585C145.566 36.3494 146.718 35.494 147.85 34.655C150.015 33.0697 151.454 30.5973 153.898 29.3835ZM187.161 29.1758C184.555 30.1696 182.689 32.4262 180.999 34.5849C180.56 35.2692 179.867 36.092 180.321 36.9473C182.211 37.4687 183.857 36.0187 185.041 34.6949C186.388 33.1227 188.042 31.7622 188.963 29.856C188.469 29.3958 187.871 28.8662 187.161 29.1758ZM156.724 29.4324C154.448 30.634 152.702 32.6543 151.159 34.699C150.817 35.3262 150.175 36.0187 150.474 36.7844C151.311 37.4035 152.423 36.9025 153.236 36.4749C155.129 35.314 156.333 33.3426 157.908 31.8111C158.47 31.1431 159.55 30.0841 158.649 29.241C158.019 28.964 157.31 29.1188 156.724 29.4324ZM24.5222 32.7479C25.0922 31.3509 25.9253 29.6646 27.4958 29.2939C28.4445 29.4406 28.879 30.4181 28.3688 31.2572C27.6074 32.4506 26.595 33.4037 25.447 34.2102L25.3593 33.5911L25.2278 34.0636C24.8969 33.6766 24.0001 33.4607 24.5222 32.7479Z" fill="#949494"/>
</svg>
