<svg width="159" height="60" viewBox="0 0 159 60" fill="none" xmlns="http://www.w3.org/2000/svg">
<path fill-rule="evenodd" clip-rule="evenodd" d="M128.873 42.9526C127.396 43.6311 125.486 45.197 123.324 44.8577C122.691 44.6229 122.491 43.9947 122.628 43.3639C125.334 38.4871 129.645 34.2223 132.204 29.2988C132.888 28.0839 132.459 26.3686 131.487 25.916C127.493 24.2664 123.6 26.9284 120.129 28.3737C117.335 29.7137 117.789 25.6073 115.55 25.2932C111.406 24.7119 107.136 27.6034 103.482 30.1178L103.285 29.8766C103.464 28.6158 102.922 27.7005 102.522 26.7367C101.288 24.765 98.8188 24.9387 96.6905 25.1573C89.5855 26.6935 82.7271 32.6835 80.921 39.8757C80.624 43.2937 77.6515 44.1558 76.5698 44.819C75.6213 45.2231 72.7154 46.6567 71.3394 45.0251C70.83 44.4942 71.1423 43.6608 71.4627 43.1335C75.8031 37.2686 80.1434 31.4047 84.8267 25.6811L84.8231 25.439L78.8142 25.3634C73.3651 31.725 69.1931 39.6228 62.2744 44.6454C61.5436 44.9522 59.7996 46.3462 57.97 45.2771C57.2951 44.6715 57.7936 43.4467 57.9457 43.1938L68.0133 29.8019C68.5352 28.8264 69.3955 27.8472 69.0428 26.6395C68.8439 26.2058 68.5955 25.7243 68.1086 25.4876C65.6311 24.9836 63.5658 26.5099 61.3862 26.6323C62.9223 25.403 64.0185 23.7912 64.823 22.1831C65.1533 21.2822 65.2334 19.9008 64.4036 19.3771C63.8169 18.8992 63.1203 19.0738 62.4652 19.3024C59.5296 21.032 58.1617 24.2466 57.9088 27.4954C54.4 29.9576 50.4466 31.6512 46.3366 32.2803C45.8875 31.2679 45.2 30.403 44.3189 29.639C49.6582 26.2822 55.7598 21.8501 58.7925 15.9528C61.1216 12.0984 61.8244 5.8394 58.8726 1.99849C57.2546 0.321017 54.9705 -0.233341 52.4552 0.0861347C42.1087 2.04799 33.5558 8.15492 25.8991 16.3353C13.7942 29.5094 6.02144 44.4249 0 60L7.79971 59.9082C9.43939 55.045 11.0782 50.1799 13.1066 45.4571C19.9362 28.6131 33.1859 9.66051 51.0792 2.57265C52.1393 2.07588 53.6395 1.96069 54.7086 2.19107C56.1701 2.85252 56.0442 4.59839 56.0109 5.8583C54.1723 14.4068 47.8161 21.9905 41.2457 27.7842L41.0522 27.786C35.7534 26.2975 28.1715 26.3893 25.0046 31.1221C24.5114 31.8519 24.9398 32.8517 25.7551 33.1973C29.9902 34.8442 35.0622 33.5735 38.9697 32.1228C39.8652 31.8519 40.8605 31.4173 41.638 31.1086C41.9845 31.7826 42.4165 32.7132 42.2806 33.4898C34.992 35.8512 27.8034 38.5024 21.8098 43.9506C19.6572 46.3012 16.7486 49.1207 18.0805 52.3758C18.8203 53.5295 19.9902 54.0973 21.2042 54.325C28.5755 54.9181 34.7455 52.1823 40.2225 48.1452C44.7347 44.5077 48.024 39.8667 47.1321 34.0145C51.2421 32.9172 55.1253 31.1007 58.6018 28.6491C60.0057 28.5357 61.2575 27.8913 62.6614 27.7779C62.9538 27.9201 62.9079 28.2108 62.9115 28.4529L53.752 40.7694C52.6541 42.139 52.0899 43.6959 52.062 45.44C52.2194 46.456 52.7855 47.7132 53.8825 48.0741C58.5991 49.4726 62.4931 46.6756 66.0973 44.1153C66.5356 43.956 66.1432 44.9153 66.2629 45.8576C66.3322 47.0788 67.2663 48.2226 68.2319 48.5475C72.1682 49.3646 76.064 47.1013 79.3821 44.9297C81.6958 43.0309 80.534 45.3554 82.1683 46.9798C83.736 48.5124 86.2054 48.4827 88.2374 48.0723C95.1435 46.1995 101.559 39.4869 103.173 32.5395C105.664 30.0872 108.748 28.6473 112.185 28.2684C113.155 28.3053 113.311 29.3699 113.03 30.0998C108.591 36.0618 104.252 42.023 99.6225 47.94L99.6243 48.1821L105.826 48.111C109.833 42.7825 113.748 37.6502 117.95 32.4648C120.353 30.3166 123.343 28.8858 126.289 28.7823C126.776 28.8318 126.785 29.5517 126.546 29.9423L117.958 41.4281C117.105 43.0372 115.767 44.7479 116.469 46.6783C117.313 48.3153 119.155 48.5853 120.946 48.3702C128.002 46.6414 134.058 42.598 139.768 37.6871L140.105 37.6835C135.732 44.7588 131.793 51.9753 128.976 59.6634L135.952 59.5824C139.687 47.5233 145.976 36.6405 153.46 26.0402L153.69 25.7972L147.634 25.8674C142.331 32.7636 136.143 38.9425 128.873 42.9526ZM28.8878 31.9032C28.3056 31.8123 28.1391 31.1104 28.4864 30.745C30.6274 29.1377 35.0487 28.3917 38.3533 29.3222C35.8038 30.8053 32.384 32.5413 28.8878 31.9032ZM27.1113 49.9478C26.0989 50.3428 23.7366 51.4407 22.3183 50.3419C21.2195 48.7535 23.4738 46.7575 24.3963 45.6668C29.5691 40.5183 35.7381 37.6862 42.304 35.6721C40.595 42.814 33.3326 47.5008 27.1113 49.9478ZM87.5337 46.1932C86.7093 46.1059 85.9147 45.7838 85.6321 45.053C84.599 40.2825 88.2788 35.2339 92.1125 31.6044C94.3867 29.6651 96.7058 27.5359 99.8465 27.9129C99.465 28.0479 99.0978 28.3224 98.6127 28.7445C97.3186 30.0197 96.6725 32.1804 97.1647 33.4601C97.5184 34.5886 98.1583 34.6462 98.5056 34.7047C98.8836 34.8046 99.1878 34.7137 99.483 34.5994C99.5235 34.5832 99.5658 34.5661 99.6063 34.5472L99.6305 34.5337C98.0323 38.6221 93.5245 45.215 87.5337 46.1932Z" fill="#949494"/>
<path fill-rule="evenodd" clip-rule="evenodd" d="M86.3506 23.4348L90.1222 18.6436L83.9675 18.4717L80.3867 23.0199L80.3885 23.262L86.3506 23.4348ZM152.381 18.5914C151.428 20.2985 149.966 21.7699 149.106 23.5248L154.794 23.5527C155.84 21.9895 157.254 20.3732 158.16 18.6184L152.381 18.5914Z" fill="#949494"/>
</svg>
