<svg width="300" height="26" viewBox="0 0 300 26" fill="none" xmlns="http://www.w3.org/2000/svg">
<g clip-path="url(#clip0)">
<path d="M44.6594 0.136209H47.9156V25.9951H44.6594V0.136209ZM255.207 10.585H237.761V0.136209H234.505V25.9951H237.761V13.8512H255.207V25.9951H258.463V0.136209H255.207V10.585ZM166.017 20.2521L148.44 0.136209H145.446V25.9951H148.695V5.4922L166.666 25.9951H169.274V0.136209H166.017V20.2521ZM105.987 0.136209V25.9951H127.738V22.7289H109.243V14.1144H127.738V10.8482H109.243V3.40243H127.738V0.136209H105.987ZM15.4927 16.7227H24.2119V19.4627C21.9511 21.4363 18.772 22.5509 15.3616 22.5973C11.6579 22.5509 8.17791 21.2119 5.8631 18.8125C5.04004 18.0715 4.38227 17.1644 3.93283 16.1507C3.4834 15.1371 3.25244 14.0396 3.25507 12.9302C3.24968 11.8034 3.47886 10.6878 3.92795 9.6549C4.37704 8.62201 5.03615 7.69453 5.8631 6.93181C8.17791 4.58663 11.6579 3.24763 15.3616 3.27085C19.3585 3.24763 22.9541 4.74143 25.2612 7.18723L27.4758 4.83431C24.5745 1.8235 20.1841 -0.0185885 15.3616 0.00463108C6.88933 -0.0185885 -0.0396814 5.77083 -0.00110113 12.9302C-0.0396814 15.9178 1.23347 18.8589 3.51742 21.1577C6.47266 24.1298 10.8014 25.8171 15.3616 25.8635C19.8446 25.8171 24.073 24.2149 26.9511 21.4286L27.4758 20.9023V13.4565H15.4927V16.7227ZM213.803 17.7676C211.673 20.6391 207.761 22.5509 203.255 22.605C199.559 22.5586 196.071 21.2119 193.757 18.8202C192.936 18.077 192.28 17.1696 191.831 16.1564C191.382 15.1432 191.149 14.0468 191.149 12.9379C191.147 11.8105 191.378 10.6949 191.826 9.6613C192.275 8.62768 192.932 7.69837 193.757 6.93181C196.079 4.58663 199.559 3.24763 203.255 3.27085C207.044 3.24763 210.524 4.58663 212.892 6.93181C213.002 7.08145 213.135 7.21217 213.286 7.3188L215.5 4.96588C215.408 4.88075 215.292 4.74143 215.115 4.57889C212.221 1.6687 207.892 -0.0185885 203.255 0.00463108C194.783 -0.0185885 187.862 5.77083 187.892 12.9302C187.862 15.9178 189.135 18.8589 191.411 21.1577C194.374 24.1221 198.703 25.8093 203.255 25.8558C207.9 25.8093 212.221 24.1143 215.107 21.1577C215.468 20.8649 215.777 20.5114 216.017 20.1128L213.803 17.7676ZM295.963 0.00463108L288.278 11.2352L280.601 0.00463108H276.689L286.72 14.5014V25.9951H289.976V14.5014L299.999 0.00463108H295.963ZM86.3261 0.00463108L76.6887 21.2893L67.0591 0.00463108H63.4094L75.2613 25.9951H78.1239L89.8446 0.00463108H86.3261Z" fill="#949494"/>
</g>
<defs>
<clipPath id="clip0">
<rect width="300" height="26" fill="white"/>
</clipPath>
</defs>
</svg>
