<svg width="257" height="60" viewBox="0 0 257 60" fill="none" xmlns="http://www.w3.org/2000/svg">
<path fill-rule="evenodd" clip-rule="evenodd" d="M207.359 34.8039V24.7343H216.686V22.7201H207.359V12.615C210.29 12.2629 213.577 12.2629 217.039 12.615L217.251 10.7769H204.037V35.3361L196.546 26.5383V24.913C200.008 23.8173 201.847 21.2395 201.847 17.2097C201.847 13.1813 197.642 10.7782 194.144 10.7782H185.736V37.1742H189.763V12.4376C193.438 12.4376 197.254 13.7094 197.254 17.7733C197.254 21.8003 195.239 23.8159 192.129 24.7343L192.308 26.3595L204.037 40.1027L208.808 41.0225L205.519 37.1729H217.251L219.441 32.4021C215.416 34.8039 211.211 35.5462 207.359 34.8039ZM181.885 10.7769H179.87V25.8301C179.87 31.3077 179.87 35.7236 175.1 35.7236C170.684 35.7236 169.801 33.1445 169.801 26.1835V10.7769H166.656V26.9245C166.656 34.0615 167.786 38.4433 175.1 38.4433C182.061 38.4433 181.885 30.2119 181.885 26.5369V10.7769ZM97.4414 37.1729H100.553V10.7769H97.4414V37.1729ZM157.894 10.7769L156.586 13.2168L143.936 37.1742H147.79L152.912 26.5383H159.165L161.533 37.1742H165.384L158.601 10.7782H157.894V10.7769ZM156.586 23.6044H154.397L156.586 18.7981L157.153 17.5618L158.776 23.6044H156.586Z" fill="#949494"/>
<path fill-rule="evenodd" clip-rule="evenodd" d="M140.301 43.6722L149.56 0.989364H145.706L143.693 10.7765H124.403V30.9539L107.338 10.7765H104.971V37.1725H107.338V17.0306L124.402 37.1725H127.121V13.0049C128.958 12.4386 130.442 12.4386 132.068 13.357V37.1739H135.141V13.357C136.628 12.1548 140.3 12.0838 143.021 13.9219L136.732 45.9007L156.587 45.4763L158.426 45.4408L159.167 41.8368L156.587 42.0838L140.301 43.6722ZM89.0371 10.7765L87.7285 13.2492L78.2245 31.482C77.8343 30.0327 77.3048 28.7609 76.3878 27.8439C72.7132 22.8957 63.9147 16.6417 63.3866 10.2456C62.9963 5.6523 66.4936 2.36627 71.088 2.01284C74.3724 1.80132 78.9682 4.55786 80.2386 7.13701L83.1709 5.30022C80.768 1.09444 74.3724 0 70.6978 0C67.5894 0 64.4809 1.97872 62.3236 4.23854C60.6289 5.97162 59.499 7.87937 59.3571 9.14984V11.1654C53.491 8.97516 46.7079 10.5991 47.0627 18.6558C47.4516 23.4266 55.6824 26.3592 56.7782 29.1144C57.8739 31.6935 58.6148 35.1556 53.491 35.3343C49.2514 35.7219 47.6263 32.7893 47.6263 32.4017C45.7896 34.8035 36.6404 35.8979 35.7193 34.8035V24.5224H45.0473V22.5082H35.7193V12.6146C38.6517 12.2626 41.9402 12.2626 45.4362 12.6146L45.6136 10.6004H32.3994V10.7765H31.3037L21.9758 29.682L18.6545 10.7765H17.5588L24.9082 0.884283H21.4122L9.15055 19.0461H8.0562L3.46182 0.884283H0.353413L4.38151 22.7197L0 44.8745H3.46182L8.76166 22.8957L15.7576 13.533L19.9631 37.1725H21.2348L32.3994 14.6275V37.1725H45.6136L46.7093 35.3343C48.3686 36.9937 50.7374 37.1725 52.9275 37.1725H54.9429V42.1179C56.7795 43.7418 59.4308 45.0846 62.325 45.7219C67.2728 46.8887 72.9274 46.0767 76.3892 41.5884C77.3062 40.2811 77.837 38.8319 78.2259 37.1739H78.9682L84.0906 26.5379H90.3088L92.6749 37.1739H96.527L89.7425 10.7778H89.0371V10.7765ZM66.6697 44.6971C64.8685 44.6261 63.4562 44.3818 62.3223 43.9206C59.2493 42.7183 57.9762 40.176 55.8571 36.9951C62.0766 36.2527 62.819 32.4031 60.8049 27.8453C59.1443 24.5224 49.8163 19.5756 49.8163 16.2896C49.8163 10.7765 57.1316 10.7765 59.5318 15.5472L59.8852 14.2754C60.4515 15.8652 61.2989 17.2789 62.3223 18.5862C65.6804 22.9653 70.9079 26.2527 73.4541 30.7751C77.1288 37.5614 72.8892 44.6971 66.6697 44.6971ZM87.7285 23.604H85.5384L87.7285 18.7978L88.2948 17.5614L89.954 23.604H87.7285ZM241.775 10.7765H239.054V30.9539L221.989 10.7765H219.62V37.1725H221.989V17.0306L239.054 37.1725H241.775V13.0049C243.611 12.4386 245.096 12.4386 246.718 13.357V37.1739H249.863V13.357C251.489 12.0838 253.504 12.2626 257 13.533V10.7765H241.775ZM106.701 53.4607C106.066 53.4607 105.394 53.6722 104.722 54.098C104.051 54.5224 103.522 55.086 103.134 55.8297C102.735 56.4898 102.527 57.2474 102.532 58.0186C102.532 58.3393 102.603 58.6913 102.744 59.0106C102.886 59.3272 103.134 59.5756 103.451 59.7175C103.769 59.8949 104.122 60 104.546 60C105.147 60 105.747 59.824 106.312 59.506C106.736 59.2576 107.161 58.8701 107.621 58.3406L107.408 58.1591C107.128 58.4501 106.791 58.6788 106.417 58.8305C106.099 58.9711 105.783 59.0789 105.499 59.0789C105.145 59.0789 104.863 58.937 104.616 58.6531C104.368 58.4075 104.263 58.054 104.263 57.5942C104.263 57.0292 104.368 56.4288 104.616 55.7929C104.863 55.1938 105.182 54.6616 105.639 54.2372C105.994 53.9547 106.346 53.7787 106.735 53.7787C106.877 53.7787 106.981 53.8128 107.088 53.8837C107.159 53.9547 107.194 53.9902 107.194 54.0966C107.194 54.2003 107.088 54.3081 106.91 54.4118C106.698 54.5906 106.558 54.8376 106.558 55.0491C106.558 55.262 106.627 55.4039 106.769 55.5445C106.838 55.6143 106.921 55.6692 107.013 55.7056C107.104 55.742 107.202 55.7591 107.3 55.756C107.423 55.7552 107.544 55.7259 107.655 55.6705C107.765 55.6151 107.86 55.5351 107.934 55.4367C108.039 55.3367 108.121 55.2159 108.176 55.0822C108.231 54.9484 108.257 54.8047 108.252 54.6602C108.256 54.4988 108.222 54.3388 108.155 54.192C108.088 54.0453 107.988 53.9157 107.864 53.8128C107.584 53.5671 107.195 53.4607 106.701 53.4607ZM113.979 53.7104C113.659 53.5572 113.31 53.4721 112.955 53.4607C112.568 53.4596 112.184 53.5314 111.823 53.6722C111.676 53.7167 111.534 53.7761 111.399 53.8496C110.888 54.0976 110.431 54.4462 110.058 54.8745C109.67 55.2634 109.349 55.7574 109.067 56.3223C108.819 56.8532 108.715 57.4536 108.715 58.0895C108.715 58.6204 108.856 59.0802 109.208 59.4323C109.561 59.8212 110.021 59.9973 110.655 59.9973C111.046 59.9973 111.434 59.9263 111.822 59.7858C112.889 59.3862 113.771 58.6054 114.296 57.5942C114.719 56.8886 114.932 56.1463 114.932 55.4053C114.932 55.0505 114.859 54.6957 114.683 54.4132C114.526 54.1123 114.28 53.867 113.979 53.7104ZM112.955 56.4629C112.779 57.1725 112.532 57.8057 112.248 58.3706C112.121 58.6267 111.979 58.8746 111.822 59.113C111.734 59.2458 111.627 59.3653 111.505 59.4678C111.376 59.5765 111.214 59.6385 111.046 59.6438C110.959 59.6427 110.873 59.6234 110.794 59.5869C110.715 59.5505 110.644 59.4978 110.587 59.4323C110.445 59.2904 110.411 59.1144 110.411 58.9015C110.411 58.054 110.587 57.1015 111.011 56.0385C111.295 55.2634 111.578 54.6957 111.823 54.3436C111.896 54.2017 112.001 54.1307 112.072 54.0257C112.239 53.8835 112.453 53.8082 112.672 53.8141C112.749 53.8165 112.824 53.8369 112.892 53.8736C112.959 53.9103 113.017 53.9624 113.061 54.0257C113.203 54.1676 113.237 54.3436 113.237 54.592C113.237 55.1556 113.166 55.7928 112.955 56.4629ZM117.724 58.9711C117.654 59.0434 117.583 59.0789 117.512 59.0789C117.478 59.0789 117.407 59.0789 117.37 59.0079C117.335 58.9711 117.335 58.937 117.335 58.866C117.335 58.7596 117.407 58.4784 117.512 58.0158L119.631 50.8802L119.773 50.3152H119.386L117.09 50.7383L116.983 50.9894C117.266 50.9894 117.443 51.0221 117.583 51.0931C117.69 51.1654 117.724 51.2705 117.724 51.3769C117.724 51.482 117.654 51.6935 117.583 52.0469L115.711 58.372C115.604 58.7268 115.569 59.0093 115.569 59.1853C115.569 59.3968 115.64 59.5742 115.816 59.7503C115.993 59.9277 116.24 59.9986 116.56 59.9986C116.876 59.9986 117.16 59.8936 117.478 59.682C117.866 59.3982 118.29 58.9042 118.748 58.1973L118.466 58.0909C118.219 58.5139 117.973 58.8319 117.724 58.9711ZM148.922 53.7104C148.601 53.5567 148.252 53.4717 147.896 53.4607C147.51 53.4607 147.118 53.5317 146.766 53.6722C146.619 53.7172 146.477 53.7766 146.342 53.8496C145.811 54.098 145.391 54.4501 144.999 54.8745C144.613 55.2634 144.292 55.7574 144.01 56.3223C143.762 56.8532 143.655 57.4536 143.655 58.0895C143.655 58.6204 143.797 59.0802 144.151 59.4323C144.505 59.8212 144.964 59.9973 145.6 59.9973C145.986 59.9973 146.375 59.9263 146.765 59.7858C147.832 59.3859 148.712 58.6051 149.237 57.5942C149.646 56.9367 149.867 56.1795 149.875 55.4053C149.875 55.0505 149.805 54.6957 149.626 54.4132C149.469 54.1127 149.223 53.8674 148.922 53.7104ZM147.896 56.4629C147.732 57.1229 147.495 57.7628 147.189 58.3706C147.063 58.6266 146.922 58.8745 146.765 59.113C146.659 59.2549 146.555 59.3955 146.448 59.4678C146.319 59.5768 146.156 59.6388 145.987 59.6438C145.9 59.6424 145.815 59.6229 145.736 59.5864C145.657 59.55 145.586 59.4975 145.529 59.4323C145.389 59.2904 145.353 59.1144 145.353 58.9015C145.353 58.054 145.529 57.1015 145.952 56.0385C146.234 55.2634 146.517 54.6957 146.765 54.3436C146.837 54.2017 146.944 54.1307 147.013 54.0257C147.18 53.8834 147.393 53.808 147.612 53.8141C147.689 53.8165 147.764 53.8369 147.832 53.8736C147.899 53.9103 147.957 53.9624 148.001 54.0257C148.143 54.1676 148.18 54.3436 148.18 54.592C148.184 55.2266 148.088 55.8579 147.896 56.4629ZM142.561 50.3152C142.427 50.3113 142.294 50.3379 142.172 50.393C142.05 50.4481 141.942 50.5302 141.857 50.6332C141.644 50.8092 141.574 51.0576 141.574 51.3401C141.574 51.6212 141.644 51.8341 141.857 52.0469C142.03 52.2243 142.278 52.3294 142.561 52.3294C142.843 52.3294 143.056 52.2243 143.27 52.0469C143.446 51.8354 143.553 51.6212 143.553 51.3401C143.553 51.0576 143.481 50.8092 143.27 50.6332C143.183 50.5306 143.074 50.4487 142.952 50.3937C142.829 50.3387 142.695 50.3119 142.561 50.3152ZM156.872 58.3379C156.729 58.5835 156.555 58.7609 156.411 58.9015C156.341 58.937 156.307 58.937 156.272 58.937C156.235 58.937 156.197 58.937 156.165 58.9015C156.126 58.8632 156.101 58.8134 156.093 58.7596C156.093 58.6886 156.127 58.5126 156.197 58.2656L157.081 55.333C157.187 54.9795 157.26 54.6616 157.26 54.4132C157.259 54.1674 157.171 53.9299 157.011 53.7432C156.835 53.5671 156.622 53.4607 156.374 53.4607C156.126 53.4607 155.843 53.5671 155.527 53.7104C155.244 53.8851 154.889 54.2017 154.466 54.6616C154.184 54.944 153.76 55.5459 153.192 56.3933L154.045 53.4621H153.619L151.324 53.8865L151.252 54.1335C151.462 54.1335 151.64 54.1335 151.71 54.1689C151.782 54.2031 151.852 54.2399 151.886 54.3109C151.923 54.345 151.923 54.4146 151.923 54.4869C151.923 54.6629 151.886 54.9809 151.744 55.4067L150.472 59.8226H152.205L152.77 57.7716C153.372 56.5707 153.972 55.6891 154.607 55.086C154.855 54.839 155.068 54.7339 155.244 54.7339C155.297 54.743 155.347 54.7677 155.386 54.8049C155.42 54.839 155.42 54.8758 155.42 54.9086C155.42 55.0164 155.42 55.1569 155.348 55.3343L154.5 58.2669C154.397 58.6545 154.324 58.9383 154.324 59.1144C154.32 59.2214 154.341 59.3279 154.384 59.426C154.427 59.5241 154.491 59.6111 154.573 59.6807C154.715 59.8226 154.959 59.8922 155.244 59.8922C155.985 59.8922 156.656 59.3259 157.328 58.196L157.079 58.054C156.98 58.1591 156.942 58.2656 156.872 58.3379ZM142.985 53.4607H142.561L140.266 53.8496L140.159 54.1307C140.266 54.098 140.335 54.098 140.408 54.098C140.549 54.098 140.69 54.1307 140.762 54.2385C140.866 54.3109 140.904 54.3805 140.904 54.4869C140.904 54.6629 140.867 54.8758 140.762 55.1951L139.809 58.4812C139.809 58.5153 139.809 58.5153 139.772 58.5521C139.738 58.7623 139.702 58.9738 139.702 59.1157C139.702 59.2576 139.736 59.3982 139.772 59.5401C139.841 59.6124 139.878 59.682 139.95 59.7516C140.126 59.929 140.375 60 140.655 60C141.432 60 142.176 59.3996 142.845 58.1987L142.635 58.0568C142.352 58.5167 142.104 58.7991 141.891 58.9738C141.86 59.0088 141.823 59.0366 141.78 59.0553C141.738 59.0739 141.692 59.0829 141.645 59.0816C141.611 59.0816 141.576 59.0461 141.539 59.0106C141.469 58.9738 141.469 58.9397 141.469 58.8687C141.469 58.7978 141.503 58.6204 141.576 58.3392L142.985 53.4607ZM135 53.8141C134.754 53.5671 134.401 53.4607 133.907 53.4607C133.236 53.4607 132.598 53.6722 131.927 54.098C131.25 54.5205 130.701 55.1191 130.339 55.8297C129.929 56.4869 129.709 57.2442 129.701 58.0186C129.701 58.3393 129.808 58.6913 129.95 59.0106C130.092 59.3272 130.339 59.5756 130.657 59.7175C130.973 59.8949 131.328 60 131.717 60C132.351 60 132.916 59.824 133.518 59.506C133.942 59.2576 134.365 58.8701 134.754 58.3406L134.578 58.1618C134.319 58.4586 133.992 58.6889 133.624 58.8332C133.305 58.9738 132.987 59.0816 132.705 59.0816C132.35 59.0816 132.068 58.9397 131.821 58.6558C131.575 58.4102 131.469 58.0568 131.469 57.5969C131.469 57.0319 131.575 56.4315 131.821 55.7956C132.069 55.1965 132.388 54.6643 132.847 54.2399C133.201 53.9574 133.554 53.7814 133.942 53.7814C134.084 53.7814 134.188 53.8155 134.297 53.8865C134.367 53.9574 134.401 53.9929 134.401 54.0993C134.401 54.2031 134.297 54.3109 134.118 54.4146C134.013 54.4851 133.926 54.5797 133.865 54.6906C133.804 54.8014 133.77 54.9253 133.766 55.0519C133.766 55.2647 133.836 55.4067 133.977 55.5472C134.117 55.6878 134.296 55.7587 134.472 55.7587C134.594 55.7539 134.714 55.7229 134.824 55.6678C134.933 55.6127 135.03 55.5348 135.106 55.4394C135.319 55.2279 135.392 54.9809 135.392 54.6629C135.392 54.3095 135.282 54.0257 135 53.8141ZM128.113 53.4607C127.619 53.4607 127.088 53.5671 126.558 53.7787C126.346 53.8837 126.098 53.9902 125.885 54.1307C125.145 54.573 124.526 55.1925 124.085 55.9334C123.854 56.3451 123.675 56.7843 123.554 57.2407C123.483 57.5538 123.447 57.8736 123.446 58.1946C123.446 58.4416 123.483 58.6531 123.554 58.866C123.625 59.0775 123.729 59.2536 123.871 59.431C124.155 59.8199 124.684 59.9959 125.462 59.9959C125.851 59.9959 126.204 59.925 126.558 59.8199C126.769 59.7476 126.948 59.6779 127.123 59.6083C127.619 59.3245 128.113 58.866 128.643 58.2287L128.431 58.0527C128.007 58.4402 127.619 58.7241 127.301 58.866C127.052 58.9697 126.806 59.0775 126.559 59.0775C126.488 59.1116 126.417 59.1116 126.347 59.1116C126.028 59.1116 125.746 59.0065 125.57 58.795C125.465 58.6877 125.383 58.5604 125.328 58.4207C125.273 58.281 125.248 58.1317 125.252 57.9817C125.252 57.7688 125.284 57.5218 125.323 57.2394C125.817 57.2052 126.24 57.1329 126.559 57.062C126.593 57.062 126.63 57.0278 126.665 57.0278C127.159 56.8873 127.619 56.7099 128.007 56.4288C128.397 56.179 128.748 55.8283 128.997 55.4039C129.209 55.0846 129.28 54.7666 129.28 54.4501C129.28 54.1662 129.209 53.9192 128.997 53.7418C128.817 53.5671 128.502 53.4607 128.113 53.4607ZM127.511 55.2975C127.394 55.6134 127.213 55.9025 126.982 56.1477C126.84 56.2882 126.7 56.3933 126.558 56.5011C126.487 56.5672 126.402 56.6159 126.309 56.643C126.096 56.7467 125.78 56.8191 125.392 56.8914C125.709 55.8311 126.098 55.0177 126.558 54.4528C126.592 54.4159 126.629 54.4159 126.629 54.3818C126.911 54.0639 127.159 53.9219 127.369 53.9219C127.476 53.9219 127.581 53.9561 127.653 54.027C127.724 54.0993 127.76 54.2031 127.76 54.345C127.758 54.6261 127.653 54.9441 127.511 55.2975ZM121.647 58.9711C121.58 59.0366 121.491 59.075 121.397 59.0789C121.363 59.0789 121.292 59.0789 121.256 59.0079C121.221 58.9711 121.221 58.937 121.221 58.866C121.221 58.7596 121.292 58.4784 121.397 58.0158L123.554 50.7042L123.661 50.3152H123.27L120.975 50.7383L120.903 50.9894C121.151 50.9894 121.326 51.0221 121.468 51.0931C121.577 51.1654 121.61 51.2705 121.61 51.3769C121.61 51.482 121.577 51.6935 121.468 52.0469L119.63 58.3379L119.597 58.3706C119.491 58.7254 119.455 59.0079 119.455 59.184C119.455 59.3614 119.489 59.5019 119.63 59.6438C119.63 59.6793 119.667 59.7148 119.701 59.7489C119.878 59.9263 120.125 59.9973 120.443 59.9973C120.761 59.9973 121.079 59.8922 121.361 59.6807C121.786 59.3968 122.209 58.9028 122.632 58.196L122.351 58.0895C122.106 58.5139 121.86 58.8319 121.647 58.9711ZM138.747 54.4514H139.628L139.77 53.9561L139.877 53.6736H138.995L139.523 51.7999H139.171C138.606 52.4372 138.145 52.8971 137.722 53.1796C137.268 53.5092 136.768 53.7708 136.238 53.9561L136.134 54.4514H137.051L135.955 58.1605C135.851 58.5508 135.779 58.9028 135.779 59.1512C135.777 59.266 135.802 59.3797 135.851 59.4836C135.9 59.5874 135.972 59.6787 136.062 59.7503C136.203 59.9277 136.45 59.9986 136.768 59.9986C137.123 59.9986 137.512 59.8567 137.898 59.6111C138.253 59.3627 138.608 58.9724 138.924 58.4102L138.676 58.2683C138.396 58.6558 138.145 58.9397 137.935 59.0816C137.863 59.1526 137.793 59.1867 137.722 59.1867C137.653 59.1867 137.618 59.1526 137.583 59.1157C137.546 59.0816 137.511 59.0448 137.511 58.9738C137.511 58.8332 137.545 58.6572 137.617 58.4116L138.747 54.4514Z" fill="#949494"/>
</svg>
