<svg width="91" height="60" viewBox="0 0 91 60" fill="none" xmlns="http://www.w3.org/2000/svg">
<g clip-path="url(#clip0)">
<path d="M6.4821 59.9951C6.44384 59.9905 6.31284 59.9772 6.19183 59.9652C5.08687 59.8541 3.90706 59.4025 2.97967 58.7346C1.58943 57.734 0.609648 56.2764 0.200851 54.6013C-0.0162314 53.711 -0.0594815 52.7141 0.0794179 51.7963C0.452035 49.3365 2.07766 47.2293 4.33249 46.2836C4.89557 46.0478 5.45366 45.8985 6.11156 45.8078C6.47628 45.7583 7.36457 45.7579 7.73261 45.8074C8.51278 45.913 9.17401 46.1102 9.85353 46.4387C10.6013 46.8005 11.1186 47.1731 11.7449 47.8002C12.2926 48.3484 12.6303 48.805 13.0224 49.5248L13.1056 49.6783L12.8103 49.8966C12.4032 50.1977 11.4484 50.8789 11.1377 51.0902L10.8807 51.2644L10.7751 51.0349C10.6445 50.7504 10.5514 50.5824 10.4008 50.3574C9.79864 49.4587 8.83924 48.8166 7.79291 48.6133C7.23898 48.5056 6.55779 48.5176 6.01217 48.6445C5.43911 48.7779 4.81656 49.0774 4.34122 49.4483C4.14951 49.5976 3.79685 49.9474 3.64173 50.142C2.80418 51.1908 2.49602 52.5278 2.78297 53.8627C2.88236 54.3248 3.13978 54.9286 3.40843 55.3299C4.11873 56.3916 5.20789 57.0716 6.44135 57.2242C6.65968 57.2508 7.18492 57.2508 7.40283 57.2242C8.49531 57.089 9.50504 56.5218 10.1945 55.6547C10.3975 55.3994 10.5393 55.1785 10.7007 54.8646C10.7714 54.7269 10.8354 54.6138 10.8425 54.6138C10.8495 54.6138 11.3527 54.969 11.9603 55.4027L13.0649 56.1912L12.953 56.4029C12.7205 56.8424 12.3209 57.3947 11.9487 57.7906C11.3145 58.4651 10.6969 58.9243 9.89346 59.3164C9.19938 59.6558 8.46371 59.872 7.68271 59.9668C7.50763 59.9885 6.60686 60.0097 6.4821 59.9951ZM15.9269 52.8135V45.9006H17.2676H18.6084V48.3816V50.8631H22.11H25.6116V48.3816V45.9006H26.9523H28.2931V52.8135V59.7269H26.9523H25.6116V56.6856V53.644H22.11H18.6084V56.6856V59.7269H17.2676H15.9269V52.8135ZM31.0016 58.5009C31.3006 57.8272 32.6792 54.7157 34.0657 51.588L36.5863 45.9002H38.4672L40.3482 45.9006L43.3957 52.7287C45.0716 56.484 46.4602 59.595 46.481 59.6416L46.5193 59.7265H44.914H43.3088L42.6887 58.3558L42.0691 56.9855L38.4814 56.9905L34.8937 56.9955L34.2807 58.3608L33.6677 59.7265H32.0629H30.4581L31.0016 58.5009ZM40.935 54.1963C40.9238 54.1476 38.4876 48.7027 38.4772 48.7031C38.4697 48.7031 36.1563 54.1019 36.1193 54.2054C36.1151 54.2167 37.0404 54.2241 38.5271 54.2241C40.5807 54.2241 40.9404 54.22 40.935 54.1963ZM48.6822 52.8135V45.9006L50.5677 45.901L52.4537 45.9014L55.4055 50.0468L58.3569 54.1921L58.3619 50.0463L58.3673 45.9006H59.718H61.0684V52.8139V59.7273L59.9846 59.7219L58.9009 59.7169L55.1576 54.5202C53.0987 51.662 51.4074 49.3231 51.399 49.3227C51.3907 49.3223 51.3841 51.6628 51.3841 54.5244V59.7269H50.0337H48.683V52.8135H48.6822ZM65.9506 52.8135V45.9006H70.783H75.615V47.2912V48.6819H72.1333H68.6517V50.0626V51.4432H71.8734H75.0947V52.8339V54.2246H71.8734H68.6517V55.6052V56.9855H72.6336H76.6155V58.3562V59.7269H71.2833H65.9506V52.8135ZM80.3974 52.8135V45.9006H81.7482H83.0985V51.4432V56.9855H86.8604H90.6223V58.3562V59.7269H85.5097H80.3974V52.8135Z" fill="#949494"/>
<path d="M34.1062 42.3839C31.2201 42.2504 28.0063 41.3737 25.4154 40.0143C23.4263 38.97 21.8498 37.8019 20.1984 36.148C18.905 34.8525 17.9506 33.6594 17.1426 32.327L16.7891 31.7435L17.2906 31.4774C18.2683 30.9592 22.7243 28.6773 22.7597 28.6773C22.7792 28.6773 22.963 28.9281 23.1685 29.2342C25.4907 32.6954 29.1241 34.9474 33.3755 35.5603C34.1191 35.6676 36.354 35.6502 37.1632 35.5312C38.064 35.399 39.144 35.1536 39.8302 34.9249C39.8747 34.9104 39.7894 34.7715 39.5931 34.5402C38.0736 32.7487 36.6883 30.2901 35.909 28.0011C34.4992 23.8608 34.3986 19.4164 35.6208 15.2403C36.3797 12.6469 37.6856 10.1297 39.3395 8.07322C39.5857 7.76673 39.7874 7.49642 39.7874 7.4723C39.7874 7.39079 38.4965 7.04728 37.6502 6.90339C36.3427 6.68132 34.2962 6.65387 33.1144 6.84267C31.1265 7.15998 29.1087 7.90438 27.5318 8.90288C25.7747 10.0153 24.3092 11.4451 23.1398 13.188L22.6233 13.9577L21.9662 13.6126C21.6048 13.4229 20.262 12.7268 18.9824 12.0664C17.7028 11.4056 16.6519 10.8616 16.6469 10.8575C16.6265 10.8396 17.4274 9.56535 17.7572 9.09126C18.7586 7.65153 20.5365 5.7452 21.8498 4.70221C25.2844 1.97579 29.1029 0.43999 33.4021 0.0569764C34.1998 -0.0141368 36.1768 -0.0149685 36.9462 0.0557288C39.6755 0.306496 42.0152 0.96814 44.4322 2.17291L45.587 2.74888L45.9742 2.52847C46.5992 2.17291 47.7096 1.65973 48.5526 1.33701C50.9189 0.430009 53.3018 -0.0012449 55.9342 2.69901e-06C57.7728 0.000834432 59.3061 0.181321 60.9712 0.593444C64.7323 1.52332 67.9399 3.30697 70.7033 6.00553C72.2017 7.46855 73.3761 8.96193 74.3238 10.6113L74.4677 10.8612L72.1293 12.0676C70.843 12.7313 69.4977 13.4279 69.1396 13.6155L68.4884 13.9569L67.996 13.2142C65.5669 9.54955 61.5933 7.16414 57.2442 6.75867C55.9562 6.63848 54.0449 6.7491 52.8826 7.01068C52.2846 7.14542 51.3135 7.42281 51.3135 7.45899C51.3139 7.47812 51.4728 7.68813 51.667 7.92642C54.1593 10.9847 55.7155 14.7125 56.2182 18.8292C56.3384 19.8119 56.3542 22.3204 56.2465 23.2931C55.7924 27.401 54.2395 31.1921 51.7597 34.2437C51.1975 34.9357 51.222 34.8879 51.4021 34.9578C51.4873 34.9902 51.8857 35.1008 52.2875 35.2023C54.3294 35.7196 56.5272 35.7932 58.5912 35.4123C62.3448 34.7195 65.7254 32.4996 67.8999 29.2995C68.102 29.0017 68.2846 28.7381 68.3058 28.7139C68.327 28.6898 68.8281 28.9123 69.4199 29.2088C70.5914 29.7964 74.2631 31.6961 74.3018 31.7352C74.3675 31.8009 73.1977 33.5376 72.4799 34.4396C71.8008 35.2938 70.0204 37.0724 69.1696 37.7461C66.0951 40.1823 62.6455 41.6719 58.8457 42.2042C54.4824 42.8147 49.8613 41.9971 46.1019 39.9486L45.5704 39.6595L44.9117 40.008C41.6454 41.7356 37.8997 42.559 34.1062 42.3839ZM46.2961 30.3816C48.1155 28.1288 49.2508 25.3966 49.5307 22.597C49.6247 21.6571 49.569 19.7429 49.4226 18.8874C49.0196 16.5328 48.1587 14.5146 46.7698 12.6702C46.5078 12.323 46.1272 11.8584 45.923 11.6384L45.5521 11.2384L45.2078 11.6118C44.754 12.1038 43.998 13.1073 43.6171 13.7236C41.6825 16.8518 41.0508 20.6956 41.87 24.3536C42.3857 26.6554 43.5709 28.9743 45.1682 30.8062L45.5363 31.2283L45.6972 31.0756C45.7862 30.9912 46.0557 30.6793 46.2961 30.3816Z" fill="#949494"/>
</g>
<defs>
<clipPath id="clip0">
<rect width="90.6224" height="60" fill="white"/>
</clipPath>
</defs>
</svg>
