<svg width="159" height="26" viewBox="0 0 159 26" fill="none" xmlns="http://www.w3.org/2000/svg">
<g clip-path="url(#clip0)">
<path d="M19.3802 1.7041H0V5.88164H7.03964V25.0655H12.4232V5.88164H19.3802V1.7041Z" fill="#949494"/>
<path d="M29.5398 0.714355C23.0446 0.714355 17.7793 6.37454 17.7793 13.3572C17.7793 20.3394 23.0446 26 29.5398 26C36.0351 26 41.3004 20.3398 41.3004 13.3572C41.3004 6.37493 36.0351 0.714355 29.5398 0.714355ZM29.5398 21.2726C25.85 21.2726 22.8588 17.7288 22.8588 13.3572C22.8588 8.9852 25.85 5.44174 29.5398 5.44174C33.2297 5.44174 36.2209 8.9856 36.2209 13.3572C36.2209 17.7288 33.2297 21.2726 29.5398 21.2726Z" fill="#949494"/>
<path d="M41.6328 24.8458V1.48438H48.9211L54.5529 17.37L59.7985 1.48438H66.9211V24.8458H62.5039V7.69558L56.4854 24.8458H52.6204C52.6204 24.8458 46.4917 8.02541 46.547 8.35523C46.6024 8.68506 46.547 24.8458 46.547 24.8458H41.6328Z" fill="#949494"/>
<path d="M105.388 0C98.8923 0 93.627 5.66018 93.627 12.6428C93.627 19.6251 98.8923 25.2856 105.388 25.2856C111.883 25.2856 117.148 19.6251 117.148 12.6428C117.148 5.66018 111.883 0 105.388 0ZM105.388 20.5583C101.698 20.5583 98.7068 17.0144 98.7068 12.6428C98.7068 8.27124 101.698 4.72738 105.388 4.72738C109.077 4.72738 112.069 8.27124 112.069 12.6428C112.069 17.0144 109.077 20.5583 105.388 20.5583Z" fill="#949494"/>
<path d="M95.2267 5.39243V1.32471H77.834V3.35877V5.39243V10.8342V14.9019V24.7963H82.9688V14.9019H92.908V10.8342H82.9688V5.39243H95.2267Z" fill="#949494"/>
<path d="M149.356 0.610034L138.129 0.830049V24.3563H149.282C149.282 24.3563 159 24.4296 159 12.2634C159 0.0971897 149.356 0.610034 149.356 0.610034ZM149.246 19.9588H143.246V5.0438H148.105C148.105 5.0438 154.031 5.55664 154.031 12.6424C154.031 19.7285 149.246 19.9588 149.246 19.9588Z" fill="#949494"/>
<path d="M137.061 19.4826C136.73 13.4363 133.896 13.3627 133.896 13.3627L133.859 13.0604C133.859 13.0604 137.503 12.7762 137.503 7.13299C137.503 1.48973 131.172 0.830078 131.172 0.830078H117.479V24.3564H122.816L122.779 15.1216C122.779 15.1216 125.245 15.1216 128.595 15.1216C131.944 15.1216 132.041 17.5918 132.129 19.9222C132.239 22.8541 132.902 24.3564 132.902 24.3564H137.982C136.988 23.2201 137.061 19.4826 137.061 19.4826ZM129.294 11.5302C129.294 11.5302 123.074 11.5302 122.89 11.5302C122.705 11.5302 122.89 4.93402 122.89 4.93402H129.258C129.258 4.93402 132.197 4.64079 132.197 8.23307C132.197 12.008 129.294 11.5302 129.294 11.5302Z" fill="#949494"/>
</g>
<defs>
<clipPath id="clip0">
<rect width="159" height="26" fill="white"/>
</clipPath>
</defs>
</svg>
