<svg width="125" height="26" viewBox="0 0 125 26" fill="none" xmlns="http://www.w3.org/2000/svg">
<path d="M113.997 21.3237V13.999H122.042V10.2575H113.997V4.4512H123.972V0.709131H109.878V25.0638H125V21.3237H113.997ZM102.674 26L102.706 0.677246H98.5868L98.6507 16.7092L80.5699 0L80.5367 25.0626H84.6556L84.5899 9.6447L102.674 26ZM73.3265 25.0626L73.329 0.677246H69.2114L69.2069 25.0626H73.3265ZM49.7459 25.0638H64.0635V21.3237H53.8642V0.677246H49.7459V25.0638ZM28.4455 25.0638H43.5678V21.3237H32.5638V13.999H40.6069V10.2575H32.5638V4.4512H42.5389V0.709131H28.4449L28.4455 25.0638ZM4.37505 12.742C4.37505 8.09571 7.59279 3.87089 13.0626 3.87089C15.572 3.87089 18.0495 4.77388 19.7542 6.45169L21.9417 3.58009C21.1395 2.61269 18.0501 0.128817 13.0632 0.128817C5.34076 0.128817 0 5.99892 0 12.8383C0 19.8391 5.63072 25.6454 13.5122 25.6454C16.9873 25.6454 19.8838 24.5173 22.1039 22.3874L20.2057 19.709C19.24 20.6783 16.7632 21.9365 13.7064 21.9365C8.20466 21.9365 4.37569 17.8392 4.37569 12.7427H4.37505V12.742Z" fill="#949494"/>
</svg>
