<svg width="109" height="60" viewBox="0 0 109 60" fill="none" xmlns="http://www.w3.org/2000/svg">
<path fill-rule="evenodd" clip-rule="evenodd" d="M84.5722 12.5763C88.6779 8.47062 85.9203 0 78.8812 0H55.5085V5.32858L53.3878 6.44429V0H30.0151C22.9759 0 20.2184 8.4881 24.3241 12.5944C18.4426 16.259 19.863 26.6115 28.4811 26.6214H53.3878V21.3953L55.5085 20.2796V26.6214H80.4152C89.0327 26.6115 90.4531 16.259 84.5722 12.5944V12.5763ZM61.0358 11.6866L61.9347 11.2136L60.6273 8.72755L59.1184 9.52165V6.60393L61.9347 5.12234L60.7829 2.93346H78.8812C84.25 2.88568 84.3409 11.7344 78.8812 11.6866H61.0358ZM59.1184 2.93346H60.0628L59.1184 3.43043V2.93346ZM49.7779 23.6267H48.8335L49.7779 23.1292V23.6267ZM55.5085 8.50325V11.4204L53.3878 12.5361V9.61837L55.5085 8.50325ZM49.7779 2.93346V8.34419L46.6557 9.98716L47.55 11.6866H30.0151C24.5554 11.7344 24.6457 2.88568 30.0151 2.93346H49.7779ZM48.2748 15.2266L46.6563 16.0784L47.9642 18.5644L49.7785 17.6095V20.1211L46.6563 21.7635L47.6444 23.6419H28.8423C23.3826 23.6879 23.4729 15.1806 28.8423 15.2266H48.2748ZM53.3878 18.2212V15.7096L55.5085 14.5939V17.1055L53.3878 18.2212ZM59.1184 23.6419V18.3803L61.9347 16.8987L61.055 15.2266H80.0546C85.4234 15.1806 85.5143 23.6879 80.0546 23.6419H59.1184ZM0 45.6926H5.64436C9.51233 45.7072 9.64517 41.2729 7.26636 40.6833C9.46689 39.5729 9.29152 35.6915 5.12583 35.6915H0V45.6926ZM5.71602 40.0506L1.58005 40.0448L1.58238 37.0432H5.71602C7.40152 37.0193 7.42133 40.0733 5.71602 40.0506C5.71602 40.0506 7.42133 40.0733 5.71602 40.0506ZM5.60591 44.3462H1.58121L1.58296 41.1034H5.60532C8.07153 41.0976 8.09308 44.3771 5.60591 44.3462C5.60591 44.3462 8.09308 44.3771 5.60591 44.3462ZM14.3061 41.9167C14.0998 41.9109 13.9472 41.7303 14.027 41.5229L15.8879 37.5005C16.0003 37.2966 16.3277 37.2989 16.418 37.5028L18.2882 41.5048C18.3091 41.5474 18.3186 41.5947 18.3158 41.6421C18.3131 41.6895 18.2981 41.7354 18.2725 41.7753C18.2469 41.8153 18.2113 41.8479 18.1694 41.8701C18.1275 41.8923 18.0805 41.9034 18.0331 41.9021L14.3061 41.9167ZM19.3218 43.255L20.54 45.7084H22.0968L16.9698 35.674H15.413L10.286 45.7084H11.8428L13.061 43.255H19.3218ZM76.3031 41.9167C76.0963 41.9109 75.9437 41.7303 76.0235 41.5229L77.8849 37.5005C77.9974 37.2966 78.3242 37.2989 78.414 37.5028L80.2847 41.5048C80.3056 41.5474 80.3151 41.5947 80.3123 41.6421C80.3096 41.6895 80.2946 41.7354 80.269 41.7753C80.2433 41.8153 80.2078 41.8479 80.1659 41.8701C80.1239 41.8923 80.077 41.9034 80.0295 41.9021L76.3031 41.9167ZM81.3177 43.255L82.5365 45.7084H84.0933L78.9657 35.674H77.409L72.2825 45.7084H73.8393L75.0569 43.255H81.3177ZM101.21 41.9167C101.003 41.9109 100.85 41.7303 100.93 41.5229L102.792 37.5005C102.904 37.2966 103.231 37.2989 103.321 37.5028L105.191 41.5048C105.212 41.5474 105.222 41.5947 105.219 41.6421C105.216 41.6895 105.201 41.7354 105.176 41.7753C105.15 41.8153 105.115 41.8479 105.073 41.8701C105.031 41.8923 104.984 41.9034 104.936 41.9021L101.21 41.9167ZM106.224 43.255L107.443 45.7084H109L103.872 35.674H102.316L97.1893 45.7084H98.746L99.9637 43.255H106.224ZM24.3299 35.674V45.6915H31.6225V44.4726H25.8022V35.674H24.3299ZM68.7804 35.674V45.6915H70.2515V35.674H68.7804ZM34.0765 35.6915V45.6915H41.4821V44.3544H35.3955V41.0882H41.0981V40.0221H35.413V37.0099H41.3283V35.6915H34.0765ZM43.8055 45.6915V35.674H45.9542L52.4853 44.3544V35.674H53.8055V45.6915H51.6901L45.1421 37.0274V45.6915H43.8055ZM85.0115 40.4112C85.0103 36.6674 87.3536 35.0529 90.8446 35.0529C95.3278 35.0529 95.4974 37.6869 95.4974 37.9753H93.9068C93.9068 37.2313 92.9257 36.3504 90.9116 36.3516C88.4739 36.3528 86.5636 37.5576 86.5636 40.4118C86.5636 42.5442 88.21 44.4517 90.9116 44.4517C92.3157 44.4517 93.5514 44.3217 94.1946 44.0182V41.2246H90.9291V40.1584H95.4805V44.9766C94.5325 45.3827 92.9601 45.8016 90.9116 45.8027C87.2132 45.8039 85.0115 43.7566 85.0115 40.4112C85.0115 43.7566 85.0115 40.4112 85.0115 40.4112ZM58.0021 40.4171C58.0021 42.758 59.7761 44.2029 61.7495 44.2029C63.8935 44.2029 64.7557 42.6164 64.7447 42.5995H66.3352C66.3183 42.6339 65.9804 45.5604 61.7326 45.5604C58.964 45.5604 56.5141 43.9477 56.5141 40.4171C56.5141 37.338 58.1973 34.7663 61.7326 34.7663C65.8278 34.7663 66.3183 37.6928 66.3352 37.7271H64.7447C64.7563 37.7102 63.8935 36.1238 61.7495 36.1238C59.324 36.1238 58.0108 38.0091 58.0021 40.4171C58.0021 40.4171 58.0108 38.0091 58.0021 40.4171ZM42.4533 54.8251H44.5956C45.6559 54.8251 46.1552 54.9288 46.5811 55.1042C47.1532 55.3442 47.5378 55.7538 47.5378 56.2612C47.5378 56.7675 47.1532 57.1771 46.5811 57.4171C46.1552 57.5925 45.6559 57.6968 44.5956 57.6968H43.2229V59.6322H42.4533V54.8251ZM43.2224 57.2616H44.3351C45.1566 57.2616 45.4374 57.2616 45.8738 57.1387C46.4768 56.9621 46.7681 56.6242 46.7681 56.2612C46.7681 55.8971 46.4768 55.5592 45.8738 55.3838C45.4369 55.2597 45.1566 55.2597 44.3351 55.2597H43.2224V57.2616ZM49.9888 54.8251H50.8517L54.158 59.6328H53.3161L52.2033 58.0149H48.6267L47.504 59.6328H46.7029L49.9888 54.8251ZM48.9174 57.5803H51.9015L50.4252 55.3704L48.9174 57.5803ZM54.9987 54.8251H56.9534C57.9823 54.8251 58.4921 54.9026 58.8457 55.0063C59.708 55.2603 60.2178 55.787 60.2178 56.3778C60.2178 57.074 59.4167 57.7819 57.9304 57.8401L60.1036 59.6334H59.1364L56.5263 57.4568C57.504 57.4568 57.8372 57.4509 58.1798 57.3863C59.0217 57.236 59.4487 56.7943 59.4487 56.3655C59.4487 55.9892 59.105 55.5988 58.6068 55.4427C58.1495 55.2935 57.7533 55.2609 57.1095 55.2609H55.7678V59.634H54.9987V54.8251ZM60.7479 54.8251H61.517V59.6328H60.7479V54.8251ZM63.3021 58.2882C63.3441 58.8923 63.9576 59.2827 64.9043 59.2827C65.7147 59.2827 66.4529 58.8923 66.4529 58.3278C66.4529 57.5861 65.2568 57.3979 64.7371 57.3C64.0409 57.1701 62.7411 56.9883 62.7411 56.0334C62.7411 55.2859 63.6878 54.7395 64.9043 54.7395C66.1616 54.7395 67.0355 55.3436 67.0355 56.0457H66.2665C66.2665 55.5586 65.6314 55.1752 64.9043 55.1752C64.0199 55.1752 63.5101 55.5976 63.5101 56.0136C63.5101 56.5986 64.3316 56.7337 65.3401 56.9161C67.2324 57.2348 67.2219 58.1646 67.2219 58.3068C67.2219 59.0473 66.2659 59.7179 64.9037 59.7179C63.9045 59.7179 62.564 59.3468 62.5325 58.2876H63.3021V58.2882Z" fill="#949494"/>
</svg>
