<svg width="99" height="60" viewBox="0 0 99 60" fill="none" xmlns="http://www.w3.org/2000/svg">
<g clip-path="url(#clip0)">
<path fill-rule="evenodd" clip-rule="evenodd" d="M5.1637 48.7825V60.0002H0V33.332H17.6637V38.0635H5.1637V44.051H16.1125V48.7825H5.1637Z" fill="#949494"/>
<path fill-rule="evenodd" clip-rule="evenodd" d="M39.3948 33.332V38.0635H26.2074V43.661H38.3233V48.3925H26.2074V55.2681H39.985V60.0002H21.1282V33.332H39.3948Z" fill="#949494"/>
<path fill-rule="evenodd" clip-rule="evenodd" d="M59.3443 51.8988V33.332H64.1693V60.0002H58.9982L48.8235 40.9754H48.7601V60.0002H43.9351V33.332H49.3883L59.2809 51.8988H59.3443Z" fill="#949494"/>
<path fill-rule="evenodd" clip-rule="evenodd" d="M79.2008 37.9727C80.1666 37.9727 81.0617 38.1581 81.8854 38.5285C82.7096 38.8989 83.4171 39.7141 84.0089 40.9717C84.6001 42.2297 84.8965 44.0536 84.8965 46.4439C84.8965 47.9973 84.7105 49.4519 84.3396 50.8066C83.9677 52.1608 83.3579 53.2588 82.5099 54.0983C81.6614 54.9384 80.5793 55.358 79.2636 55.358H74.2283V37.9727H79.2008ZM79.8908 60.0002C81.8304 60.0002 83.4773 59.568 84.8305 58.7041C86.1836 57.8402 87.252 56.7053 88.035 55.2993C88.8175 53.8939 89.3718 52.3991 89.6988 50.8151C90.0248 49.2316 90.1881 47.638 90.1881 46.0366C90.1881 44.6036 90.0402 43.1628 89.7437 41.7114C89.4473 40.2605 88.9332 38.9005 88.1988 37.6303C87.4644 36.3611 86.4261 35.3271 85.0846 34.5288C83.7436 33.7315 82.0814 33.332 80.0995 33.332H69.1497V60.0002H79.8908Z" fill="#949494"/>
<path fill-rule="evenodd" clip-rule="evenodd" d="M98.8501 33.332V60.0002H93.6864V33.332H98.8501Z" fill="#949494"/>
<path fill-rule="evenodd" clip-rule="evenodd" d="M40.3866 0L40.3343 23.1709H43.7983V11.1078H49.4116V8.06178H43.7983V3.22461H53.7712L53.8113 0.0190211L40.3866 0Z" fill="#949494"/>
<path fill-rule="evenodd" clip-rule="evenodd" d="M58.4635 23.1709L58.5153 0H55.0519V12.0631H49.4386V15.1086H55.0519V19.9458H45.0785L45.0383 23.1519L58.4635 23.1709Z" fill="#949494"/>
</g>
<defs>
<clipPath id="clip0">
<rect width="98.8501" height="60" fill="white"/>
</clipPath>
</defs>
</svg>
