<svg width="58" height="60" viewBox="0 0 58 60" fill="none" xmlns="http://www.w3.org/2000/svg">
<g clip-path="url(#clip0)">
<path d="M11.5205 8.40032V11.1115C10.5498 11.9782 8.23033 12.4938 6.50344 12.4938C4.77876 12.4938 0.00494385 11.4093 0.00494385 6.31357C0.00494385 1.21782 4.54881 0.120005 6.38183 0.120005C8.21706 0.120005 10.1717 0.457795 11.3038 1.21782V3.60236C11.3038 3.90015 10.8992 3.87348 10.8992 3.60236C10.8726 3.19568 9.7936 0.757806 7.09602 0.811142C4.18397 0.871144 2.21607 3.17123 2.21607 6.20468C2.21607 9.23812 4.12869 11.8427 7.01642 11.7604C7.95394 11.7338 8.93126 11.436 9.40444 11.0404L9.41549 8.40032C9.41549 7.64251 8.95779 7.37139 8.50009 7.37139C8.20159 7.37139 8.20159 6.93804 8.50009 6.93804H12.4359C12.7322 6.93804 12.7322 7.39806 12.4359 7.37139C11.9804 7.37139 11.5205 7.64251 11.5205 8.40032ZM38.0562 3.60458C38.0562 3.90237 37.7599 3.8757 37.7599 3.60458C37.7312 3.1979 36.6543 0.677803 33.9568 0.733361C31.0447 0.791141 29.0746 3.17345 29.0746 6.2069C29.0746 9.24035 30.9629 11.9249 33.8484 11.8449C36.7339 11.7627 38.1093 8.89145 38.2176 8.51143C38.326 8.13142 38.5139 8.18697 38.5139 8.48476V10.7071C37.3287 11.5738 35.0889 12.496 33.3642 12.496C31.6395 12.496 26.8657 11.4115 26.8657 6.31579C26.8657 1.21782 31.3963 0 33.2293 0C35.0645 0 36.9241 0.460017 38.0584 1.21782V3.60458H38.0562ZM57.366 0.297789C57.7971 0.297789 57.7971 0.704471 57.366 0.704471C56.906 0.704471 56.4483 0.975592 56.4483 1.7334V10.7582C56.4483 11.516 56.906 11.7871 57.366 11.7871C57.7971 11.7871 57.7971 12.3294 57.366 12.3294H53.4014C52.9702 12.3294 52.9702 11.7871 53.4014 11.7871C53.8613 11.7871 54.319 11.516 54.319 10.7582V1.7334C54.319 0.97337 53.8613 0.704471 53.4014 0.704471C52.9702 0.704471 52.9702 0.297789 53.4014 0.297789H57.366ZM25.8397 0.297789C26.2709 0.297789 26.2709 0.704471 25.8397 0.704471C25.382 0.704471 24.9243 0.975592 24.9243 1.7334L24.8713 7.65584C24.8713 10.4915 22.5827 12.576 19.7591 12.576C16.9355 12.576 14.731 10.4915 14.731 7.65584V1.7334C14.731 0.97337 14.2711 0.704471 13.8134 0.704471C13.3823 0.704471 13.3823 0.297789 13.8134 0.297789H17.8045C18.2357 0.297789 18.2357 0.704471 17.8045 0.704471C17.3446 0.704471 16.8869 0.975592 16.8869 1.7334L16.8825 8.34698C16.8825 10.3471 18.5099 11.9693 20.4999 11.9693C22.4899 11.9693 24.104 9.94037 24.104 7.94252L24.0067 1.7334C24.0067 0.97337 23.549 0.704471 23.0891 0.704471C22.6601 0.704471 22.6601 0.297789 23.0891 0.297789H25.8397ZM29.5301 26.8499C31.9297 25.6588 34.5707 25.0412 37.2469 25.0454C39.8671 25.0459 42.4532 25.6414 44.8122 26.7875C47.1712 27.9336 49.242 29.6006 50.8699 31.664C52.4979 33.7273 53.6409 36.1338 54.2136 38.7035C54.7863 41.2732 54.7739 43.9397 54.1772 46.5039C53.5806 49.0681 52.4152 51.4637 50.768 53.5116C49.1209 55.5596 47.0346 57.207 44.6651 58.3308C42.2955 59.4546 39.7039 60.0257 37.0839 60.0015C34.4639 59.9773 31.8831 59.3584 29.5345 58.1911C27.1863 59.3566 24.6064 59.974 21.9875 59.9971C19.3686 60.0202 16.7784 59.4485 14.4101 58.3245C12.0419 57.2005 9.95686 55.5534 8.31071 53.5061C6.66456 51.4588 5.49982 49.0643 4.90343 46.5012C4.30705 43.9381 4.29444 41.2727 4.86654 38.7041C5.43863 36.1354 6.58067 33.7298 8.20737 31.6668C9.83407 29.6039 11.9034 27.9369 14.2609 26.7904C16.6184 25.6438 19.2031 25.0473 21.8221 25.0454C24.5949 25.0454 27.204 25.6943 29.5301 26.8499ZM33.0369 29.1455C35.7307 31.4082 37.67 34.4462 38.5935 37.8503H34.9894C33.9772 34.976 32.0607 32.5115 29.5301 30.83C27.0043 32.5126 25.0913 34.975 24.0797 37.8459L20.4778 37.8481C21.4128 34.4398 23.3578 31.3983 26.0542 29.1278C24.683 28.7014 23.2552 28.4871 21.8199 28.4922C19.8094 28.4941 17.8231 28.9326 15.9969 29.7776C14.1707 30.6227 12.5477 31.8542 11.2389 33.3881C9.93017 34.922 8.96659 36.7219 8.41413 38.6648C7.86166 40.6076 7.73335 42.6475 8.03798 44.6448C8.34261 46.6421 9.07298 48.5497 10.1791 50.237C11.2853 51.9243 12.741 53.3515 14.4468 54.4209C16.1526 55.4903 18.0682 56.1768 20.0624 56.4332C22.0566 56.6896 24.0824 56.5099 26.0011 55.9065C24.2453 54.4157 22.8024 52.5883 21.7569 50.531C20.7114 48.4736 20.0841 46.2275 19.9117 43.9239H28.1857V47.4107L24.1615 47.4085C25.1944 50.1915 27.0777 52.5744 29.5412 54.2154C32.0047 52.5772 33.8851 50.193 34.9098 47.4085L30.8855 47.4107V43.9239H39.1596C38.977 46.2283 38.3393 48.473 37.2839 50.5269C36.2285 52.5809 34.7765 54.4029 33.0126 55.8865C35.1036 56.5554 37.322 56.7192 39.4878 56.3648C41.6535 56.0105 43.7057 55.1478 45.4776 53.847C47.2495 52.5461 48.6912 50.8436 49.6858 48.8778C50.6804 46.912 51.1997 44.7381 51.2017 42.5327C51.2037 40.3274 50.6883 38.1526 49.6973 36.1849C48.7063 34.2172 47.2677 32.5121 45.4981 31.208C43.7286 29.9039 41.6781 29.0375 39.5129 28.6791C37.3478 28.3208 35.1291 28.4806 33.0369 29.1455ZM51.2434 3.60458C51.2434 3.90237 50.9471 3.8757 50.9471 3.60458C50.9205 3.1979 49.8415 0.677803 47.1439 0.733361C44.2319 0.791141 42.2618 3.17345 42.2618 6.2069C42.2618 9.24035 44.1501 11.9249 47.0356 11.8449C49.9211 11.7649 51.2964 8.89145 51.4048 8.51143C51.5131 8.13142 51.7033 8.18697 51.7033 8.48476V10.7071C50.5159 11.5738 48.2782 12.496 46.5513 12.496C44.8267 12.496 40.0528 11.4115 40.0528 6.31579C40.0528 1.21782 44.5834 0 46.4187 0C48.2517 0 50.1135 0.460017 51.2456 1.21782V3.60458H51.2434Z" fill="#949494"/>
</g>
<defs>
<clipPath id="clip0">
<rect width="57.6923" height="60" fill="white"/>
</clipPath>
</defs>
</svg>
