<svg width="172" height="26" viewBox="0 0 172 26" fill="none" xmlns="http://www.w3.org/2000/svg">
<g clip-path="url(#clip0)">
<path d="M8.79741 0.368571L8.85624 0.931029H6.01999L11.4194 20.406C12.8177 15.7259 15.459 7.6497 16.7609 2.89237C16.9549 2.17365 16.6248 1.53303 16.1201 1.2619C15.7127 1.04867 14.7796 1.12584 14.2363 1.10656L14.1582 0.3685H20.6847V0.930958C19.8104 0.96958 18.2567 1.12492 17.9459 1.99897C15.1878 9.47406 12.1778 19.5714 10.1966 25.9583H9.88585L2.44738 0.931029H0.0579131L0 0.368571H8.79741ZM29.5401 17.475L23.2287 17.4162C22.587 19.3389 22.005 21.6689 21.5775 23.5521C21.4221 24.2902 21.5196 24.5429 21.7522 24.8738C21.9847 25.2047 23.4226 24.9905 24.2969 25.0475L24.239 25.5916H18.2374L18.1795 25.0475C18.743 24.9905 20.1607 25.2038 20.3547 24.6403C22.4132 18.8748 25.5206 6.6994 27.58 0.00092125H27.9294L35.1161 25.0475H37.3878V25.5916H28.8616V25.0475H31.7355L29.5401 17.475ZM26.4326 6.05785L23.384 16.9888H29.4435L26.4326 6.05785ZM41.7179 1.10663H38.7466V0.368571H47.7582V1.10663H44.7473V25.1063C46.2431 25.1063 47.7968 25.0273 49.2917 25.0668C54.9826 25.2212 56.0895 22.8729 56.0702 17.5329L56.4977 17.4759L56.4398 25.5916H38.7079V25.1072H41.7179V1.10663ZM61.1202 1.18381H58.5175V0.445743H74.4243L74.8509 6.7563L74.4427 6.69841C74.1908 4.64055 74.0934 4.03762 73.219 2.87309C72.3447 1.70764 70.7523 1.3198 69.0239 1.30052L64.246 1.24262L64.1881 12.737C65.0228 12.7177 65.8769 12.7177 66.7127 12.6589C67.5483 12.6203 68.8106 12.1745 69.2574 11.533C69.7042 10.8914 69.7815 9.74625 69.8596 8.13506H70.3064L70.3643 17.5127H69.7428C69.7428 17.475 69.7235 17.4162 69.7235 17.3391C69.7042 16.2131 69.8596 15.2618 69.1802 14.2518C68.7729 13.6112 67.4518 13.1461 66.286 13.1838L64.1889 13.2426L64.2468 25.1441C67.1015 25.1248 72.0743 25.6303 74.2293 23.4548C75.1422 22.543 75.3757 20.5808 75.3757 18.5238L75.9586 18.5633L75.92 25.5908H58.5763L58.5184 25.0863H61.1211V1.18381H61.1202ZM95.6524 1.24262C95.2846 0.893399 93.7686 1.02939 93.0506 1.02939L93.1076 0.369492L99.3243 0.408114V0.932021C97.2447 0.989918 96.5469 0.718787 96.4872 2.79599C96.2932 8.62035 96.4495 21.3582 96.4302 25.9593L95.8859 25.9989L81.5723 2.01931C81.5337 5.57257 81.4362 18.1165 81.4362 23.1064C81.4362 25.6109 82.7766 24.9896 84.5822 24.9501V25.5907H77.9977V25.0668C80.9884 24.9896 80.9691 25.1633 81.0077 21.4749C81.0656 14.9318 81.1052 7.97965 81.1245 0.951226C79.6488 0.970501 78.8904 0.989847 78.1531 0.989847V0.368571L84.5234 0.407192L95.9244 19.3776C95.9051 17.475 95.9814 6.46505 95.9428 2.46505C95.9254 1.76653 95.7691 1.3198 95.6524 1.24262ZM147.742 1.26197C147.374 0.912746 145.858 1.04874 145.14 1.02946L145.197 0.388838L151.414 0.42746V0.951367C149.334 0.989989 148.655 0.717937 148.576 2.79599C148.382 8.63969 148.539 21.3582 148.519 25.9593L147.975 25.9989L133.663 2.01931C133.623 5.59184 133.526 18.1165 133.526 23.1064C133.526 25.6109 134.866 24.9896 136.673 24.9501V25.5907H130.088V25.0668C133.08 24.9896 133.08 25.1633 133.099 21.4942C133.156 14.9309 133.196 7.999 133.216 0.969651C131.759 0.988926 130.982 0.988926 130.244 0.988926V0.386925L136.616 0.425546L148.016 19.3766C147.996 17.4741 148.073 6.46412 148.035 2.48348C148.015 1.78581 147.858 1.33914 147.742 1.26197ZM108.141 1.04782C105.442 0.989918 103.015 1.20315 102.081 2.34926C101.129 3.49536 101.226 5.10656 100.994 7.68832L100.566 7.74622L100.604 0.368571H118.862L118.958 7.80504H118.472C118.221 4.8924 118.278 3.26186 117.289 2.30971C116.298 1.35842 113.462 0.988926 111.266 0.988926L111.209 25.0061L114.201 25.0649V25.609H105.032V25.0649H108.082L108.141 1.04782ZM123.271 1.10663H120.649V0.368571H129V1.10663H126.32V25.0071H128.884V25.61H120.473V25.0071H123.271V1.10663ZM162.484 0.445743C162.231 0.445743 161.96 0.465018 161.687 0.523837C161.404 0.583151 161.125 0.660819 160.852 0.756346C159.765 1.18281 158.755 2.27102 157.843 4.03755C156.929 5.82428 156.483 8.77554 156.483 12.9308C156.483 17.0475 156.928 19.9785 157.822 21.7643C158.734 23.5308 159.726 24.6383 160.794 25.0851C161.084 25.2193 161.376 25.2983 161.649 25.3562C161.92 25.415 162.193 25.4334 162.484 25.4334C162.755 25.4334 163.028 25.415 163.318 25.3562C163.609 25.2992 163.9 25.2201 164.193 25.0851C165.261 24.6181 166.25 23.4931 167.145 21.7248C168.057 19.939 168.505 17.007 168.505 12.9308C168.505 9.16339 168.117 6.42536 167.359 4.67818C166.601 2.93099 165.767 1.74619 164.852 1.14419C164.476 0.880856 164.055 0.690087 163.609 0.581734C163.24 0.494498 162.863 0.448861 162.484 0.445743ZM153.064 12.9888C153.064 9.30044 153.919 6.32898 155.628 4.09644C157.337 1.84463 159.202 0.523907 161.259 0.115794C161.472 0.0771724 161.687 0.057897 161.9 0.0386216C162.113 0 162.309 0 162.503 0C164.948 0 167.145 1.204 169.086 3.6507C171.028 6.07805 172 9.20392 172 12.9898C172 16.5623 171.222 19.4162 169.669 21.5724C168.117 23.7286 166.407 25.087 164.561 25.6496C164.231 25.7853 163.885 25.877 163.532 25.9225C163.192 25.9773 162.848 26.003 162.503 25.9997C161.965 26.0009 161.429 25.9291 160.911 25.7865C160.327 25.6504 159.745 25.4188 159.142 25.1257C157.629 24.2709 156.229 22.8546 154.967 20.8932C153.685 18.9116 153.045 16.2902 153.064 12.9888Z" fill="#949494"/>
</g>
<defs>
<clipPath id="clip0">
<rect width="172" height="26" fill="white"/>
</clipPath>
</defs>
</svg>
