<svg width="214" height="26" viewBox="0 0 214 26" fill="none" xmlns="http://www.w3.org/2000/svg">
<path d="M4.11628 1.84879C4.08178 1.74529 4.03581 1.63045 3.90932 1.57296C3.43785 1.36597 2.83987 1.36552 2.33391 1.26203C1.66695 1.08954 0.908002 1.12446 0.252545 0.974971C0.183549 0.928974 0.10308 0.928969 0.0455839 0.825475C0.0340847 0.606989 -0.0694276 0.330766 0.0800627 0.146778C0.252552 -0.0142119 0.505545 0.0434416 0.701032 0.0204431C2.43742 0.0434416 4.2313 0.0204431 5.97919 0.0204431C6.45066 0.0549409 6.93363 0.0204431 7.41659 0.0204431C8.24454 0.0664402 8.78505 -0.00255539 9.5785 0.0204431C9.68199 -0.0255539 10.5214 0.0204431 10.6364 0.0204431C11.5678 0.0204431 12.3498 -0.00255539 13.2697 0.0204431H16.915C17.3865 0.0204431 18.0649 0.0201231 18.5249 0.123616C18.5939 0.146615 18.6054 0.238777 18.6629 0.296274C18.7319 1.07822 18.6629 1.90653 18.7089 2.67698V6.9892C18.6744 7.19619 18.7319 7.44903 18.5479 7.56402C18.4329 7.61002 18.2719 7.57509 18.1569 7.55209C18.0534 7.4831 18.0189 7.36836 17.9844 7.24187C17.8004 6.48292 17.7315 5.64376 17.4095 4.95381C17.2203 4.44312 16.9855 3.9499 16.708 3.48131L16.6735 3.42376L16.6505 3.34375C16.1215 2.27431 15.0751 1.37724 13.8447 1.34275C13.1651 1.2683 12.4809 1.24545 11.7979 1.27396H11.5793C10.5904 1.22797 9.61299 1.27396 8.62405 1.27396C8.39407 1.30846 8.04903 1.23915 7.94553 1.52663C7.91104 2.21659 7.89956 2.92946 7.89956 3.59641C7.88806 5.03382 7.91107 6.44839 7.88807 7.9318C7.92257 8.12728 7.87658 8.36906 8.02607 8.51855C8.21006 8.66804 8.46302 8.62162 8.70451 8.65612C9.92343 8.73661 11.2343 8.72491 11.8898 7.58648C12.6004 6.44761 13.0045 5.14458 13.0628 3.80346C13.1088 3.69997 13.1318 3.5509 13.2697 3.5164C13.4422 3.4819 13.6147 3.48169 13.7412 3.58518L13.8102 3.70029L13.8217 5.5167L13.8102 10.0704V14.5672C13.7757 14.7052 13.7757 14.8887 13.6262 14.9462C13.4077 14.9347 13.1547 15.027 13.0167 14.843C12.9017 14.452 12.9362 13.992 12.8442 13.5895C12.685 12.6119 12.3205 11.6795 11.7748 10.8529C11.5659 10.5773 11.2967 10.3529 10.9877 10.1974C10.6788 10.0419 10.3383 9.95948 9.99242 9.95596C9.41745 9.94446 8.84256 9.96735 8.27909 9.99035C8.1411 9.99035 7.98005 10.0129 7.91105 10.1279L7.88807 14.2106C7.88807 14.2106 7.92255 16.7747 7.92255 18.0856C7.96854 18.2811 8.16408 18.3384 8.31357 18.3614C10.3374 18.4074 12.3153 18.4307 14.2817 18.2007C16.7195 17.7637 17.7429 15.0616 18.4214 13.0722C18.6054 12.4283 18.7434 11.7611 18.8814 11.1056C18.8898 11.0668 18.9065 11.03 18.9303 10.9982C18.9541 10.9665 18.9845 10.9407 19.0194 10.9217C19.1574 10.8757 19.3414 10.8065 19.4564 10.9329C19.6404 11.3814 19.5598 11.8299 19.5713 12.4279V19.1665C19.5368 19.3044 19.5368 19.5003 19.3988 19.5693C18.9273 19.6613 18.3524 19.6269 17.8695 19.6269H1.6095C1.19553 19.5924 0.655049 19.7069 0.356069 19.4079C0.34457 19.1434 0.218077 18.7299 0.517058 18.5804C1.62099 18.4079 2.74794 18.3959 3.81737 18.1544C4.17385 17.9589 4.07029 17.5107 4.10478 17.1542L4.11628 1.84879ZM21.0202 19.5693C20.9397 19.5348 20.8363 19.5002 20.7788 19.3967C20.7443 19.1782 20.6753 18.8679 20.9168 18.7299C21.5262 18.6149 22.1586 18.5459 22.7681 18.4309C23.0211 18.3849 23.3891 18.3275 23.4926 18.04C23.4926 17.1775 23.4581 16.5565 23.4926 15.7975V14.1987L23.5041 9.5187C23.4236 9.10473 23.6076 8.56395 23.1591 8.33396C22.5382 8.11548 21.8252 8.09311 21.1467 7.97812C21.0662 7.96662 20.9283 7.90896 20.8938 7.80546C20.8938 7.65597 20.8248 7.44854 20.9397 7.34504C21.0777 7.20705 21.2962 7.24198 21.4802 7.20748C22.9521 7.17298 24.332 6.96571 25.8039 6.91972C25.9419 6.89672 26.0339 6.96599 26.0914 7.05798C26.2294 7.67894 26.1029 8.36881 26.2409 8.97827C26.2524 9.02427 26.3214 9.04716 26.3789 9.01266C26.6664 8.65618 26.8159 8.21949 27.1264 7.86302C27.1609 7.86302 27.1723 7.85162 27.2068 7.82862C27.2758 7.64464 27.4253 7.54086 27.5863 7.39137C27.9691 7.12654 28.4065 6.95053 28.8662 6.8769C29.3259 6.80328 29.7962 6.83404 30.2426 6.96604C30.4611 7.11553 30.7486 7.11554 30.9556 7.26503C31.3926 7.57551 31.7836 8.03564 31.7836 8.5761C31.8488 8.96467 31.7998 9.36375 31.6427 9.72505C31.4855 10.0863 31.2268 10.3936 30.8981 10.6108C30.7066 10.7125 30.4954 10.7715 30.2789 10.7835C30.0625 10.7954 29.8461 10.7603 29.6446 10.6803C29.4262 10.5423 29.1502 10.3698 29.0353 10.1398C28.6443 9.49589 28.8627 8.59843 29.3112 8.03497C29.3112 7.96597 29.3572 7.89762 29.3112 7.82862C29.0582 7.67913 28.7707 7.8398 28.5292 7.9318C27.7818 8.47226 27.4138 9.27702 27.0343 10.036C26.5571 11.2144 26.2923 12.4682 26.2524 13.739C26.1834 15.1304 26.0454 16.4985 26.1029 17.9129C26.1029 18.3959 26.8389 18.35 27.3218 18.419L28.4832 18.5685C28.7362 18.58 28.8282 18.7064 28.9892 18.8099C29.1042 18.9939 29.1042 19.2702 29.0353 19.4542C28.9893 19.5922 28.8282 19.5576 28.7017 19.5805L21.0202 19.5693ZM52.3442 15.3715V18.0856C52.3557 18.2006 52.4247 18.3268 52.5512 18.3958C53.2297 18.6488 53.9541 18.4766 54.6326 18.7411C54.7361 18.9136 54.736 19.1553 54.6785 19.4198C54.6096 19.6728 54.1496 19.6149 53.8506 19.6149H49.4234H47.5145C47.3995 19.5919 47.2845 19.4655 47.2155 19.3735C47.181 19.2125 47.1351 18.9482 47.2616 18.7987C47.733 18.5917 48.3309 18.6608 48.8369 18.5228C49.0784 18.4424 49.5039 18.4188 49.6188 18.0968L49.6303 15.5098V13.5895L49.6188 9.50747C49.6073 8.86351 49.2279 8.19617 48.5954 7.96619C48.3207 7.83751 48.0171 7.78267 47.7147 7.80687C47.4123 7.83106 47.1213 7.93373 46.8705 8.10445C46.173 8.84762 45.6471 9.7349 45.3297 10.7034C44.9502 11.7499 44.8352 12.8882 44.7662 14.0611L44.7777 18.0968C44.7892 18.2003 44.8467 18.3845 44.9502 18.419C45.4561 18.672 46.1346 18.5228 46.6406 18.7643C46.7786 18.9138 46.7211 19.2009 46.6866 19.4079C46.6176 19.7184 46.3531 19.5804 46.1691 19.6149H39.8215C39.672 19.6149 39.5915 19.3848 39.557 19.2928C39.557 19.0743 39.5226 18.8334 39.7411 18.7299C40.408 18.5919 41.1669 18.6952 41.7649 18.4077C42.0868 18.0743 41.9603 17.971 41.9488 17.442V11.1975C41.8684 10.0821 42.2019 8.64486 41.0864 8.0469C40.6495 7.87441 40.0745 7.90881 39.7065 8.23079C38.0518 9.99672 37.1203 12.3192 37.0962 14.7391C37.0617 15.8201 37.0502 17.0393 37.0847 18.1088C37.1192 18.2927 37.1652 18.4078 37.3837 18.4653C37.8552 18.6033 38.4186 18.603 38.913 18.718C38.9594 18.73 39.0029 18.7514 39.0405 18.7811C39.0781 18.8108 39.1091 18.8483 39.1316 18.8906C39.1661 19.0976 39.1775 19.3623 39.0625 19.5118C38.9475 19.6613 38.6831 19.6034 38.4761 19.6149H32.0365C31.956 19.5804 31.887 19.5344 31.8525 19.4654C31.8065 19.2585 31.7835 18.9711 31.9905 18.8331C32.37 18.7296 32.7724 18.6952 33.1634 18.6492C33.4969 18.5457 33.8764 18.5338 34.1984 18.3958C34.3939 18.2578 34.3938 18.0165 34.4398 17.821L34.4283 15.8319L34.4398 11.9106L34.4744 8.9895C34.4514 8.75951 34.4054 8.44928 34.1524 8.38029C33.4625 8.24229 32.7724 8.10402 32.0365 8.09252C31.9905 8.05803 31.933 8.04712 31.8985 7.97812C31.8525 7.80563 31.864 7.58691 31.9675 7.44892L32.1055 7.3682C33.6809 7.23021 35.2908 7.12655 36.8892 7.04605C37.0272 7.02305 37.1076 7.11505 37.1766 7.19555L37.2227 7.54086L37.2342 9.40359C37.2411 9.42197 37.2519 9.43884 37.2658 9.45273C37.2797 9.46661 37.2963 9.47739 37.3146 9.48431C37.4871 9.44981 37.5677 9.24276 37.6712 9.12776C38.2117 8.23082 39.0281 7.24165 40.086 7.01166C40.3965 6.90817 40.73 6.89709 41.0749 6.8741C42.1099 6.8741 43.0068 7.1845 43.7888 7.80546C44.2487 8.21944 44.4673 8.76006 44.6972 9.26603C44.7087 9.31203 44.8007 9.38065 44.8467 9.31165C45.1563 8.54157 45.6641 7.86731 46.3186 7.35697C47.1736 6.82948 48.1949 6.64056 49.1819 6.82777C49.7342 6.909 50.2629 7.10684 50.7328 7.40821C51.2027 7.70958 51.6031 8.10802 51.9073 8.5761C52.2982 9.23156 52.3442 9.65685 52.3442 10.8298V15.3715ZM73.2613 19.5918C73.2613 19.5918 72.2839 19.6723 72.1805 19.4423C72.1805 19.2583 72.1344 19.017 72.2264 18.8675C72.5484 18.6375 72.9854 18.7069 73.3648 18.638C73.7328 18.5575 74.1813 18.626 74.4113 18.2695C74.5263 17.2 74.4457 16.0962 74.5262 15.0037C74.5492 14.3368 74.4918 13.6467 74.5723 13.0027C74.4918 11.7493 74.6182 10.3693 74.3882 9.17339C74.286 8.91629 74.126 8.68643 73.9206 8.50101C73.7153 8.31558 73.47 8.18003 73.2038 8.10445C72.9104 8.03535 72.6029 8.05675 72.3218 8.16552C72.0406 8.27428 71.799 8.46508 71.6284 8.71367C70.2807 10.4125 69.5399 12.5131 69.5241 14.6816C69.4896 15.843 69.4206 17.0277 69.4781 18.1431C69.6276 18.5801 70.0646 18.534 70.49 18.626C70.95 18.741 71.5135 18.5343 71.571 19.0633C71.571 19.2703 71.5365 19.4887 71.387 19.6037L67.6037 19.5918L64.6599 19.6037C64.5564 19.5462 64.3724 19.6267 64.3149 19.4542C64.3034 19.2472 64.2345 18.9714 64.3724 18.7874C64.6254 18.615 64.9589 18.7068 65.2578 18.6148C65.7293 18.5343 66.2123 18.5114 66.6493 18.339C66.9943 18.086 66.8563 17.5797 66.9253 17.1542C66.9253 16.4183 66.9253 15.6592 66.9598 14.9118V10.163C66.9253 9.65704 66.9713 9.16241 66.8103 8.70244C66.7157 8.60049 66.5906 8.53158 66.4538 8.50662C65.7754 8.39163 65.0394 8.41483 64.3839 8.28834C64.2 8.17335 64.2459 7.9319 64.2459 7.74791C64.3494 7.34544 64.8324 7.52898 65.1314 7.43699C66.4883 7.32199 67.8797 7.25331 69.2136 7.18432C69.3286 7.19582 69.4321 7.25348 69.4666 7.35697C69.5816 8.10443 69.5011 8.93214 69.6046 9.70259C69.6506 9.77158 69.6161 9.88664 69.731 9.90964C69.9035 9.87514 69.9151 9.70264 69.9956 9.61064C70.4095 8.84019 70.8235 7.96633 71.6744 7.54086C72.399 7.21701 73.1973 7.09382 73.9858 7.18432C74.1698 7.25331 74.4113 7.20732 74.5838 7.33381C74.8713 7.33381 75.1243 7.4716 75.3772 7.55209C76.4237 8.08106 77.2631 9.1622 77.3321 10.3581C77.2976 12.9915 77.2171 15.4871 77.2171 18.1319C77.2976 18.4079 77.5736 18.4881 77.8036 18.5341C78.3095 18.6491 78.8385 18.6719 79.3675 18.7524C79.5975 18.9248 79.5169 19.2584 79.4939 19.4998C79.4594 19.5803 79.4825 19.5804 79.4135 19.6149L73.2613 19.5918ZM102.217 19.6037C102.102 19.6037 101.987 19.5689 101.941 19.4654C101.872 19.27 101.871 19.0401 101.998 18.8906C102.32 18.7181 102.745 18.7409 103.102 18.6604C103.562 18.5914 104.033 18.5227 104.459 18.3502C104.781 18.1547 104.666 17.7062 104.677 17.3613L104.712 15.6937L104.7 9.21971C104.666 9.08172 104.666 8.9435 104.585 8.84C104.114 8.55252 103.539 8.55245 102.975 8.48346C102.619 8.43746 102.147 8.51821 101.929 8.17324C101.918 8.04674 101.917 7.84001 101.998 7.71352C102.136 7.61003 102.32 7.59825 102.492 7.57525C104.022 7.57525 105.482 7.36869 106.989 7.28819C107.086 7.30489 107.172 7.35778 107.23 7.43699L107.276 8.0469V11.4046C107.276 13.44 107.242 15.5328 107.288 17.6027C107.334 17.8787 107.276 18.2466 107.552 18.3846C107.989 18.5226 108.507 18.4993 108.99 18.5453C109.719 18.5987 110.453 18.5643 111.174 18.4421C111.347 18.3846 111.623 18.2923 111.646 18.0968L111.657 12.0601L111.634 8.42661L111.646 2.66505C111.6 2.26257 111.6 2.02133 111.358 1.90634C110.599 1.67635 109.749 1.67629 108.955 1.54979C108.886 1.5153 108.771 1.48063 108.771 1.37714C108.737 1.23915 108.737 1.08969 108.817 0.986201C109.128 0.802213 109.53 0.87104 109.887 0.813544C110.956 0.733049 112.071 0.675541 113.129 0.514552C113.486 0.480054 113.877 0.388167 114.21 0.480161C114.383 0.664149 114.291 0.940266 114.325 1.19325V17.6715C114.337 17.9015 114.371 18.143 114.613 18.2695C115.372 18.5225 116.234 18.5226 117.016 18.7411C117.188 18.9136 117.154 19.2359 117.097 19.4774C116.959 19.6154 116.384 19.5693 116.384 19.5693L102.217 19.6037ZM186.771 19.5918C186.683 19.5758 186.604 19.5268 186.552 19.4542C186.483 19.2357 186.38 18.9139 186.587 18.7299C186.702 18.5919 186.92 18.6494 187.081 18.5804C187.629 18.5333 188.172 18.4368 188.702 18.2926C189.208 18.1546 189.013 17.5798 189.093 17.2118C189.082 15.8204 189.139 14.4632 189.128 13.0603V9.71452C189.013 9.28905 189.266 8.57572 188.656 8.47223C188.065 8.39086 187.47 8.33315 186.874 8.29957C186.725 8.26507 186.575 8.26517 186.483 8.11568C186.437 7.8742 186.403 7.55236 186.621 7.39137C187.046 7.28787 187.541 7.31076 188.001 7.27626C188.829 7.23026 189.68 7.16121 190.496 7.06921C190.6 7.00022 190.749 6.96593 190.853 7.00043C191.094 6.96593 191.382 6.96561 191.589 7.1036C191.669 7.2071 191.704 7.31093 191.704 7.44892C191.738 8.13887 191.773 8.75996 191.773 9.44992C191.819 9.51891 191.796 9.65686 191.911 9.69136C192.267 9.36938 192.336 8.89749 192.624 8.54101C193.245 7.43708 194.406 6.97727 195.625 6.97727C197.131 6.97727 198.649 7.87398 199.155 9.32288C199.5 9.93234 199.362 10.7492 199.374 11.4621C199.293 13.5665 199.305 15.6592 199.259 17.7866C199.213 18.3846 199.822 18.3504 200.19 18.4309C200.604 18.4999 200.995 18.523 201.409 18.638C201.651 18.8104 201.582 19.2008 201.513 19.4423C201.447 19.5308 201.354 19.596 201.248 19.6269H194.613C194.337 19.5579 194.395 19.2127 194.36 19.0057C194.372 18.8562 194.406 18.6952 194.579 18.6492C195.165 18.5112 195.866 18.5804 196.395 18.2814C196.467 18.174 196.514 18.0523 196.533 17.9249C196.545 15.2225 196.637 12.5661 196.568 9.87524C196.591 9.19679 196.28 8.49511 195.648 8.20763C195.107 7.89715 194.372 8.06948 193.946 8.48346C192.435 10.3665 191.648 12.7288 191.727 15.142C191.715 16.1654 191.681 17.0964 191.715 18.0968C191.899 18.5223 192.417 18.4882 192.831 18.5572C193.21 18.6262 193.762 18.6031 193.82 18.9826C193.854 19.2011 193.854 19.4426 193.67 19.5805L193.498 19.6493H186.771V19.5918ZM161.806 19.6037L162.197 19.5574C162.369 19.5114 162.369 19.3161 162.404 19.1896C162.369 18.2007 162.438 17.2465 162.404 16.246V11.4158C162.346 11.2088 162.415 10.9328 162.335 10.7603C162.231 10.6108 162.047 10.5878 161.875 10.6108C161.76 10.6223 161.691 10.7263 161.668 10.8298C161.512 12.7416 160.934 14.595 159.977 16.2572C159.665 16.8563 159.218 17.3748 158.671 17.7719C158.124 18.1689 157.493 18.4334 156.826 18.5453H151.111C151.008 18.5108 150.87 18.5227 150.801 18.4077C150.792 18.2572 150.832 18.1079 150.916 17.9824L152.836 14.9349C153.089 14.544 153.331 14.1297 153.595 13.7502L158.206 6.7246C159.391 4.86172 160.702 3.04447 161.863 1.17009C162.001 0.882607 162.335 0.537539 162.392 0.21556C162.358 0.146564 162.312 0.0775632 162.22 0.066064C161.081 0.0430654 158.758 0.0436045 158.758 0.0436045L157.102 0.0548342H152.319H148.65C148.489 0.12383 148.489 0.365494 148.443 0.526483V7.05798L148.478 7.2531C148.558 7.42559 148.754 7.39137 148.903 7.39137C149.018 7.35687 149.076 7.25358 149.122 7.17309C149.259 6.0015 149.606 4.8642 150.145 3.81539C150.755 2.69997 151.698 1.34252 153.078 1.11254C154.515 1.11254 155.999 1.03253 157.39 1.18202C157.505 1.21652 157.574 1.33136 157.505 1.45785C156.458 3.30923 155.217 5.10283 154.067 6.91972C152.779 9.01258 151.433 11.0599 150.088 13.1298C148.811 14.9926 147.593 16.9015 146.42 18.8218C146.305 19.0403 146.109 19.2125 146.109 19.4654C146.19 19.6494 146.431 19.6036 146.581 19.6381H161.806V19.6037ZM129.309 16.0046C128.667 14.6097 128.545 13.0312 128.964 11.5541C129.493 9.99019 130.493 8.34565 132.046 7.5177C132.551 7.19572 133.127 7.04669 133.667 6.8397C134.938 6.50927 136.288 6.69032 137.427 7.34504C138.566 7.989 139.566 9.07036 140.13 10.2318C140.819 11.6577 140.946 13.6237 140.486 15.1876C140.337 15.6246 140.187 16.0733 139.946 16.4643C139.382 17.5335 138.518 18.414 137.459 18.9966C136.4 19.5792 135.194 19.8378 133.989 19.7413C132.959 19.5595 131.99 19.1224 131.172 18.4695C130.355 17.8166 129.714 16.9692 129.309 16.0046ZM134.207 18.7524C135.104 19.0053 135.967 18.649 136.588 18.028C137.2 17.2257 137.596 16.2791 137.738 15.2796C137.999 13.3709 137.885 11.4303 137.404 9.56502C137.082 8.67958 136.289 7.82802 135.334 7.64403C134.904 7.5496 134.458 7.56571 134.035 7.69036C133.613 7.81501 133.229 8.0443 132.92 8.35712C131.609 9.96702 131.563 12.1864 131.666 14.3138C131.728 15.5509 132.108 16.7507 132.77 17.7978C133.131 18.2658 133.636 18.6014 134.207 18.7524Z" fill="#949494"/>
<path d="M119.017 19.2007C116.981 17.9473 116.153 15.6935 116.222 13.3591C116.292 11.3482 117.113 9.43643 118.522 8.00043C119.064 7.33886 119.8 6.86444 120.627 6.64374L120.707 6.57496C121.029 6.49446 121.374 6.49446 121.731 6.42546C121.949 6.43696 122.202 6.40198 122.409 6.50547C122.662 6.55147 122.881 6.68974 123.122 6.79323C123.675 7.13378 124.115 7.63004 124.387 8.21941C124.456 8.25391 124.49 8.40308 124.571 8.32259C124.686 8.17309 124.709 7.95448 124.709 7.75899V1.95181C124.706 1.87726 124.681 1.80519 124.639 1.74406C124.596 1.68293 124.536 1.63566 124.467 1.6072C123.363 1.22772 122.145 1.17015 120.926 1.10116C120.836 1.0938 120.751 1.05709 120.684 0.997283C120.604 0.836294 120.569 0.560559 120.696 0.38807C120.765 0.307575 120.868 0.318855 120.949 0.307356C122.386 0.295857 123.812 0.238894 125.249 0.135401C125.824 0.100903 126.388 0.043457 126.997 0.043457C127.135 0.0549563 127.216 0.0543667 127.273 0.15786L127.319 0.307356V5.51655L127.331 11.7842C127.331 11.7842 127.308 15.8664 127.319 17.9823C127.319 18.1663 127.434 18.3272 127.607 18.3732C128.274 18.6262 129.067 18.5803 129.757 18.7297C129.93 18.8562 129.861 19.1092 129.861 19.2702C129.608 19.6267 128.688 19.6036 128.688 19.6036L127.354 19.5916L124.927 19.6036C124.72 19.5921 124.743 19.385 124.686 19.247C124.686 18.7871 124.651 18.35 124.64 17.9016C124.64 17.6716 124.709 17.5453 124.502 17.4418C124.364 17.4993 124.329 17.6715 124.26 17.7865C123.996 18.4688 123.521 19.0486 122.904 19.4421C122.26 19.8791 121.363 19.9024 120.558 19.7875C120.022 19.6549 119.505 19.4577 119.017 19.2007ZM120.443 18.4764C120.728 18.6838 121.062 18.8152 121.412 18.8575C121.762 18.8998 122.117 18.8514 122.444 18.7178C122.88 18.6028 123.157 18.1197 123.444 17.7977C123.93 16.9453 124.236 16.0023 124.341 15.0267C124.49 13.3019 124.548 11.4277 124.134 9.80632C123.846 8.93237 123.559 7.88537 122.57 7.49439C122.085 7.31066 121.549 7.31066 121.064 7.49439C120.647 7.69822 120.29 8.00742 120.029 8.39137C119.178 9.54129 119.201 11.0596 119.097 12.5085C119.074 14.1874 119.017 15.9354 119.626 17.3843C119.845 17.7868 120.04 18.2234 120.443 18.4764ZM201.984 18.5571C201.328 17.7176 201.305 16.487 201.524 15.4521C202.087 13.9572 203.663 13.0258 205.169 12.8419C206.101 12.6349 207.147 12.7038 207.975 12.2439C208.826 11.5654 208.562 10.4614 208.596 9.461C208.55 9.00022 208.409 8.55381 208.182 8.14993C207.653 7.34498 206.572 7.41444 205.744 7.62143C205.127 7.79511 204.578 8.15189 204.169 8.64474C204.123 8.69074 204.134 8.79402 204.157 8.86302C204.295 9.0815 204.514 9.18523 204.652 9.39222C205.02 9.86369 204.974 10.6798 204.686 11.1742C204.341 11.6687 203.835 12.0486 203.226 11.8761C202.651 11.7956 202.191 11.278 202.007 10.7721C201.65 9.69114 202.283 8.77099 202.927 7.96604C204.525 6.45964 206.975 6.18367 209.033 6.82763C210.068 7.1496 211.137 8.13852 211.275 9.25395C211.321 9.82891 211.287 10.496 211.264 11.1055C211.241 13.2558 211.149 15.4983 211.31 17.6601C211.344 17.9476 211.494 18.2697 211.816 18.3732C212.023 18.4767 212.276 18.4417 212.46 18.3037C212.885 17.9932 212.782 17.4412 212.862 16.9583V14.5439C212.897 14.4634 212.966 14.3601 213.046 14.3256C213.288 14.3256 213.587 14.2795 213.748 14.5095C213.897 15.2684 213.817 16.1074 213.817 16.9239C213.771 17.8438 213.736 18.9482 212.747 19.3621C211.932 19.7167 211.013 19.7533 210.171 19.4653C209.493 19.2123 208.975 18.4652 208.711 17.8328C208.642 17.7523 208.527 17.6943 208.435 17.7633C208.113 18.1313 207.78 18.5688 207.4 18.8792C206.724 19.3561 205.93 19.638 205.105 19.6948C204.28 19.7516 203.455 19.5805 202.72 19.2007C202.431 19.0413 202.18 18.822 201.984 18.5571ZM205.767 18.2693C206.402 18.1924 206.993 17.9051 207.446 17.4531C208.458 16.5101 208.619 15.1875 208.55 13.8076C208.516 13.5891 208.596 13.3365 208.435 13.164C208.044 13.164 207.711 13.3821 207.331 13.4511C206.446 13.4971 205.572 13.6352 204.939 14.3137C204.535 14.7383 204.268 15.2741 204.172 15.8521C204.076 16.4301 204.155 17.0236 204.399 17.5562C204.539 17.7901 204.74 17.9806 204.982 18.1065C205.224 18.2324 205.495 18.2888 205.767 18.2693ZM93.9254 25.6522C93.4654 25.4797 92.9595 25.3989 92.511 25.1574C91.5566 24.6974 90.3607 23.9384 90.2112 22.7654C90.1537 22.041 90.7861 21.5121 91.315 21.0866C91.66 20.8451 92.051 20.6613 92.35 20.3623C92.3615 20.0863 92.028 20.0062 91.8555 19.8682C91.4057 19.5392 91.0485 19.0992 90.8188 18.5915C90.5891 18.0837 90.4947 17.5252 90.5446 16.9702C90.6136 16.0732 91.407 15.188 92.2235 14.866C92.4305 14.7395 92.6949 14.7391 92.8904 14.5551C92.9594 14.3711 92.7525 14.2678 92.6375 14.1298C92.096 13.7149 91.6938 13.145 91.4843 12.4958C91.2747 11.8467 91.2678 11.1494 91.4645 10.4962C91.936 8.61036 93.8564 7.20705 95.7078 6.91957C96.5781 6.82309 97.4586 6.88533 98.3066 7.10346C98.3526 7.10346 98.4561 7.10367 98.5021 7.03467C98.6401 6.89668 98.6401 6.71262 98.6516 6.52863C98.7206 6.18366 98.6861 5.81607 98.7666 5.49409C98.8816 4.91913 99.4565 4.47008 100.009 4.32059C100.271 4.24712 100.548 4.2435 100.812 4.31006C101.076 4.37662 101.319 4.51129 101.515 4.70029C101.733 4.98777 101.871 5.40195 101.722 5.76992C101.653 6.05741 101.365 6.26436 101.101 6.31036C100.935 6.347 100.762 6.33836 100.6 6.28579C100.439 6.23323 100.294 6.13864 100.181 6.01136C100.066 5.86187 99.997 5.66664 99.813 5.55165C99.6751 5.51715 99.5945 5.62011 99.5255 5.7236C99.3531 6.08008 99.3875 6.54015 99.3875 6.97712C99.4335 7.2531 99.3875 7.5749 99.583 7.79338C100.894 8.82832 101.802 10.3232 101.411 12.0481C100.836 14.0259 98.7321 15.0609 96.8002 15.2219C95.7538 15.3254 94.6958 14.935 93.6839 15.257C93.0054 15.3949 92.1775 15.5789 91.9015 16.3378C91.8555 16.6598 91.798 17.0162 92.0395 17.2692C92.902 18.0511 94.1783 17.6714 95.2938 17.7289C95.9377 17.6944 96.5127 17.6487 97.1567 17.6257C98.333 17.5232 99.5134 17.7714 100.549 18.3388C101.894 19.2473 102.412 20.6961 102.216 22.2945C102.136 22.7954 101.955 23.2742 101.685 23.7031C101.414 24.132 101.059 24.5019 100.641 24.7896C98.8241 26.204 96.1563 26.2156 93.9254 25.6522ZM95.9262 25.0886C97.3156 25.2013 98.7082 24.9138 99.9395 24.2604C100.372 23.9932 100.723 23.6109 100.951 23.1564C101.147 22.6159 101.204 21.8457 100.767 21.4087C99.7326 20.3738 98.2951 20.2819 96.8462 20.2359C95.5583 20.3164 94.2244 20.2817 93.132 20.8452C92.9135 20.9831 92.741 21.1561 92.557 21.3056C92.373 21.5586 92.2695 21.8345 92.166 22.0874C92.0636 22.4713 92.0706 22.876 92.1865 23.256C92.3023 23.6361 92.5223 23.9765 92.8215 24.2379C93.7414 24.8589 94.8453 25.0196 95.9262 25.0886ZM95.3628 14.2217C95.8289 14.4157 96.3408 14.4722 96.838 14.3845C97.3351 14.2969 97.7969 14.0692 98.1686 13.7276C99.3415 12.7042 99.0885 10.7948 98.8125 9.43784C98.6791 8.98538 98.4223 8.57912 98.0709 8.26433C97.7196 7.94954 97.2876 7.739 96.8232 7.65582C95.7768 7.47183 94.8683 8.01218 94.3163 8.82863C93.968 9.57194 93.8062 10.3886 93.8449 11.2086C93.8141 11.8501 93.9118 12.4913 94.1324 13.0945C94.3164 13.589 94.8799 14.0147 95.3628 14.2217ZM177.571 25.031C176.525 24.5941 175.329 23.9269 174.834 22.823C174.758 22.6362 174.721 22.4358 174.725 22.2341C174.729 22.0325 174.774 21.8339 174.857 21.6502C175.331 20.9641 175.972 20.4098 176.72 20.0401C176.766 19.9941 176.858 19.9602 176.858 19.8682C176.709 19.5807 176.364 19.4423 176.134 19.2239C175.528 18.6541 175.169 17.8699 175.133 17.039C175.104 16.521 175.227 16.006 175.486 15.5566C175.746 15.1073 176.13 14.7435 176.594 14.5095C176.869 14.3255 177.238 14.3364 177.456 14.0834C177.514 14.0144 177.445 13.9456 177.41 13.8996C176.272 12.9336 175.697 11.5657 176.122 10.1053C176.617 8.08144 178.629 6.62095 180.63 6.42546C181.481 6.32197 182.263 6.50548 183.056 6.65497C183.401 6.48248 183.275 6.03462 183.367 5.70114C183.413 5.16068 183.505 4.65471 183.953 4.26373C184.201 4.06849 184.493 3.93665 184.804 3.88052C185.115 3.82439 185.435 3.8455 185.735 3.94158C186.069 4.05657 186.345 4.37804 186.425 4.71152C186.484 4.86565 186.502 5.03277 186.478 5.1958C186.453 5.35884 186.388 5.513 186.287 5.64359C186.181 5.79282 186.031 5.90435 185.857 5.96223C185.683 6.02012 185.496 6.02082 185.321 5.96504C185.046 5.88455 184.724 5.62031 184.666 5.35583C184.62 5.27533 184.551 5.24056 184.459 5.21756C184.091 5.35555 184.16 5.81545 184.103 6.14893C184.114 6.5859 183.965 7.11513 184.344 7.42561C185.666 8.46054 186.368 9.99026 186.034 11.6347C185.575 13.3825 183.723 14.555 182.067 14.7965C181.279 14.925 180.474 14.9214 179.687 14.7853C178.652 14.7968 177.571 14.8194 176.801 15.5209C176.671 15.6719 176.58 15.8531 176.538 16.0479C176.496 16.2428 176.503 16.4455 176.559 16.6368C176.847 17.2118 177.491 17.2807 178.088 17.3267C180.446 17.4302 183.125 16.6825 185.092 18.0279C186.483 19.0168 186.885 20.7072 186.552 22.3401C186.241 23.835 184.735 24.9045 183.413 25.3644C183.275 25.4334 183.033 25.3302 182.976 25.5027C181.165 25.8463 179.295 25.683 177.571 25.031ZM182.976 24.4562C184.045 24.2032 185.322 23.4901 185.448 22.2482C185.597 21.5237 185.068 20.937 184.528 20.5806C183.211 20.0104 181.768 19.7967 180.342 19.9601C179.031 20.1671 177.387 20.0403 176.812 21.5007C176.646 21.8849 176.609 22.3131 176.709 22.7198C176.824 23.3523 177.376 23.9271 177.95 24.1916C179.564 24.7679 181.311 24.8599 182.976 24.4562ZM179.974 13.7964C180.377 13.9623 180.815 14.0228 181.248 13.9725C181.68 13.9223 182.093 13.7625 182.447 13.5086C182.76 13.2786 183.021 12.9845 183.212 12.6453C183.402 12.3062 183.518 11.9303 183.551 11.5427C183.585 10.1398 183.631 8.64454 182.504 7.7246C181.837 7.25313 180.86 7.0578 180.101 7.44877C179.066 7.92024 178.663 8.98966 178.56 10.0246C178.525 10.9905 178.479 11.991 178.882 12.8075C179.117 13.2567 179.504 13.6074 179.974 13.7964ZM80.1263 17.9823C79.7018 17.5468 79.3832 17.0192 79.1949 16.441C78.6866 15.2935 78.5228 14.0232 78.7234 12.7843C78.7579 12.5773 78.7693 12.3471 78.8613 12.1632C78.9931 11.5223 79.2138 10.9034 79.5169 10.3236C80.2413 8.94367 81.5062 7.46009 83.0126 6.97712C84.381 6.43666 86.2094 6.5744 87.3364 7.58634C88.4748 8.40278 88.9347 9.65633 89.3257 10.8752C89.4936 11.6029 89.5747 12.3478 89.5672 13.0945C89.5628 13.148 89.5445 13.1997 89.5143 13.244C89.4841 13.2884 89.4428 13.3242 89.3946 13.3479L89.2337 13.3935H85.0135C84.8699 13.3589 84.7201 13.3589 84.5765 13.3935C83.645 13.3935 82.7481 13.3596 81.8282 13.4286C81.5177 13.5321 81.6097 13.8653 81.5522 14.1298C81.5867 15.6592 81.6211 17.3147 83.0126 18.2462C83.5541 18.6031 84.1823 18.8067 84.8303 18.835C85.4782 18.8634 86.1218 18.7159 86.6924 18.4076C87.2452 18.0654 87.7126 17.6015 88.0593 17.0516C88.406 16.5017 88.6228 15.8801 88.6932 15.2338C88.7392 15.0153 88.9807 15.0612 89.1532 15.0267C89.2682 15.0267 89.3602 15.0264 89.4407 15.0724C89.5557 15.2104 89.4867 15.4174 89.4867 15.5784C89.2682 17.1193 88.3022 18.7063 86.7958 19.3158C85.7999 19.7215 84.7149 19.8591 83.6494 19.7138C82.5839 19.5685 81.5752 19.1459 80.7242 18.4883L80.1263 17.9823ZM81.9547 12.3127C83.5876 12.3816 85.14 12.3936 86.7729 12.3246C87.1983 12.1981 87.0143 11.6806 87.0833 11.3357C87.0028 10.4387 87.0833 9.48413 86.6578 8.73668C86.4337 8.3332 86.1025 7.99958 85.7008 7.77233C85.299 7.54508 84.8423 7.43303 84.381 7.44877C84.0517 7.45305 83.7268 7.52486 83.4262 7.65933C83.1256 7.7938 82.8558 7.98802 82.6331 8.23064C82.3636 8.48771 82.1552 8.80231 82.0236 9.15078C81.7713 10.0114 81.6246 10.8993 81.5867 11.7954C81.6212 11.9679 81.5752 12.1863 81.7707 12.2783L81.9547 12.3127ZM57.0358 13.4511C56.6448 13.5661 56.7483 14.0606 56.7253 14.4056C56.7368 15.866 56.9323 17.3724 58.2202 18.2693C59.1056 18.9478 60.5315 18.9826 61.5435 18.5571C62.1509 18.2553 62.6739 17.807 63.0653 17.253C63.4567 16.6991 63.7043 16.0567 63.7858 15.3833C63.8318 15.2453 63.8318 15.0611 64.0043 15.0036C64.2228 15.0151 64.5678 14.9001 64.6828 15.1531C64.6616 15.9283 64.4608 16.6879 64.0963 17.3724C63.0614 19.3042 60.9225 20.0059 58.8412 19.7299C57.5833 19.598 56.4036 19.0569 55.4834 18.1893L55.1269 17.7977C54.5412 16.9812 54.1383 16.0481 53.9459 15.0618C53.7534 14.0756 53.7758 13.06 54.0115 12.0831C54.3644 10.7543 55.0219 9.52585 55.9319 8.49524C56.4494 7.8844 57.0969 7.39665 57.8271 7.06836C58.5573 6.74007 59.3517 6.57909 60.152 6.59742C61.7619 6.70091 63.3603 7.87388 63.9813 9.38029C64.467 10.4795 64.7327 11.6637 64.7633 12.865C64.7633 13.0375 64.6828 13.394 64.5103 13.463L57.0358 13.4511ZM61.67 12.3127L61.9575 12.2783C62.0725 12.2438 62.1644 12.1291 62.2104 12.0256C62.2794 11.4161 62.199 10.8181 62.1645 10.2316C62.153 9.12771 61.6009 7.95431 60.4855 7.58634C59.9911 7.42526 59.4602 7.41357 58.9591 7.55265C58.458 7.69173 58.009 7.97603 57.6683 8.36891C56.9783 9.19685 56.9782 10.3236 56.8058 11.3701C56.8058 11.646 56.7023 11.9795 56.8748 12.2095C57.0128 12.2785 57.1853 12.3246 57.3348 12.3246H61.67V12.3127ZM166.405 18.9824C165.466 18.496 164.675 17.7647 164.117 16.8663C163.573 15.854 163.277 14.7273 163.254 13.5781C163.283 11.6021 164.017 9.70136 165.324 8.21941C165.806 7.64775 166.399 7.17977 167.067 6.84377C167.735 6.50777 168.465 6.31022 169.211 6.26403C170.084 6.29964 170.929 6.57925 171.65 7.07117C172.372 7.5631 172.941 8.24766 173.293 9.0469C173.8 10.1817 174.081 11.404 174.121 12.646C174.075 12.7955 174.11 12.9686 173.914 13.0721C173.512 13.1756 173.029 13.1406 172.592 13.1521H170.729L166.934 13.164C166.693 13.21 166.394 13.1522 166.256 13.4167C166.149 14.3554 166.211 15.3059 166.44 16.2227C166.693 17.2116 167.59 18.1778 168.613 18.4308C169.29 18.6117 170.006 18.5852 170.668 18.3557C171.33 18.1261 171.908 17.704 172.327 17.1428C172.823 16.4931 173.122 15.7149 173.19 14.9004C173.224 14.7854 173.362 14.6934 173.477 14.6934C173.684 14.6934 173.914 14.6584 174.041 14.8309C174.11 15.1069 174.018 15.406 173.995 15.6935C173.865 16.4331 173.56 17.1309 173.106 17.7289C172.652 18.3269 172.062 18.8081 171.384 19.1319C169.767 19.7223 167.984 19.6687 166.405 18.9824ZM168.291 12.0368C169.314 12.0253 170.338 12.0484 171.327 11.9449C171.58 11.8414 171.522 11.5422 171.58 11.3237C171.511 10.3233 171.534 9.30013 171.143 8.43769C170.962 8.09686 170.703 7.80324 170.387 7.58142C170.072 7.35961 169.708 7.21561 169.326 7.16101C168.846 7.11028 168.361 7.19838 167.929 7.41438C167.497 7.63038 167.136 7.96545 166.888 8.38014C166.486 9.33939 166.264 10.3646 166.233 11.4044C166.244 11.6114 166.221 11.853 166.417 11.968C167.015 12.0945 167.659 11.9908 168.291 12.0368ZM104.735 2.23957C104.628 1.99496 104.582 1.72804 104.6 1.46191C104.618 1.19579 104.7 0.938285 104.838 0.710223C105.025 0.456082 105.284 0.263669 105.581 0.157158C105.878 0.0506478 106.2 0.0348542 106.506 0.112239C106.977 0.227232 107.391 0.721902 107.541 1.18187C107.626 1.46688 107.632 1.76977 107.557 2.05779C107.482 2.34582 107.329 2.60749 107.115 2.8144C106.713 3.19387 106.069 3.23993 105.551 3.02144C105.37 2.95135 105.205 2.84612 105.065 2.71192C104.925 2.57773 104.812 2.41729 104.735 2.23957Z" fill="#949494"/>
</svg>
