<svg width="251" height="26" viewBox="0 0 251 26" fill="none" xmlns="http://www.w3.org/2000/svg">
<g clip-path="url(#clip0)">
<path d="M161.514 0.482224L151.958 25.5181H149.935L140.455 0.482224H142.965L150.946 21.8835L159.003 0.482224H161.514ZM165.261 11.7941H175.942V14.2043H165.261V23.1079H175.942V25.5162H162.751V0.482224H175.942V2.96834H165.261V11.7941ZM199.025 0.482224V25.5181H196.028L182.237 3.45039L182.501 25.5181H179.988V0.482224H182.985L196.852 22.55L196.551 0.482224H199.025ZM205.656 2.96834V11.795H216.337V14.2053H205.656V23.1088H216.337V25.5172H203.223V0.482224H216.337V2.96834H205.656ZM238.185 0.482224L228.516 25.5181H231.065L234.136 17.6546H245.304L248.378 25.5181H251L241.255 0.482224H238.185ZM231.026 0.482224V2.96834H225.893V25.5181H223.457V2.96834H218.399V0.482224H231.026ZM234.999 15.4287L239.684 2.8195L244.52 15.4287H234.999ZM132.695 25.5181L122.914 0.482224H119.917L110.1 25.5181H112.722L115.721 17.6546H126.963L130.037 25.5181H132.695ZM4.42223 2.8195C6.48394 2.8195 8.05665 3.19016 8.99485 3.89499C9.9311 4.48843 10.4181 5.56392 10.4181 6.97262C10.4181 8.53016 9.9311 9.6431 8.99485 10.3835C7.98291 11.0518 6.22198 11.3485 3.78577 11.3485H2.28776V2.8195H4.42223ZM0 0.482224V25.5181H5.47103C8.54467 25.5181 10.8674 24.9631 12.2916 23.7762C13.6771 22.5519 14.3524 20.6227 14.4271 18.102C14.3524 16.6933 14.0526 15.5065 13.3404 14.4665C12.6652 13.392 11.6542 12.6132 10.3056 12.0562C11.2419 11.5002 11.9171 10.8694 12.3663 10.0541C12.7787 9.27436 12.9659 8.27377 12.9659 7.08593C12.9659 4.82356 12.2926 3.19112 10.9052 2.15308C9.59444 1.04013 7.53274 0.484144 4.68516 0.484144H0V0.482224ZM16.2268 12.8331C16.2268 16.6175 17.4638 19.771 19.9738 22.2552C22.409 24.7758 25.4827 26.0002 29.1559 26.0002C31.0284 26.0002 32.7903 25.7044 34.4018 25.0351C35.9755 24.2928 37.3988 23.2202 38.7862 21.8086C39.835 20.6198 40.6966 19.288 41.2593 17.8034C41.821 16.3188 42.084 14.6499 42.084 12.8321C42.084 11.0528 41.7832 9.38383 41.072 7.90023C40.5103 6.34269 39.5731 5.00697 38.2235 3.70966C37.0777 2.48725 35.6689 1.53659 34.1011 0.926824C32.5274 0.296893 30.9168 0.000173147 29.1549 0.000173147C27.4852 -0.00846919 25.831 0.306496 24.2835 0.926824C22.7428 1.51066 21.3573 2.43731 20.2357 3.63572C18.924 4.85909 17.9868 6.3062 17.2746 7.90119C16.6013 9.45777 16.2268 11.0537 16.2268 12.8331ZM19.8632 8.38132C20.5365 6.97262 21.4747 5.78574 22.6739 4.74674C23.5539 3.97469 24.5707 3.37069 25.6728 2.96642L29.1588 2.33553C31.9695 2.33553 34.4047 3.37357 36.4655 5.48902C38.5262 7.52861 39.5381 9.93982 39.5381 12.8321C39.5381 15.8742 38.5262 18.4698 36.579 20.5113C34.593 22.6249 32.1567 23.6619 29.2335 23.6619C26.4228 23.6619 23.9128 22.6249 21.8502 20.5113C19.8641 18.4708 18.8532 15.9491 18.8532 12.907C18.8503 11.4244 19.1501 9.94078 19.8632 8.38132ZM41.5222 0.482224H66.6294V2.96834H61.5697V25.5181H59.0579V2.96834H49.0899V25.5181H46.578V2.96834H41.5183V0.482224H41.5222ZM71.1263 11.7941H81.8055V14.2043H71.1263V23.1079H81.8055V25.5162H68.6145V0.482224H81.8055V2.96834H71.1263V11.7941ZM85.6669 7.90119C86.3247 6.28123 87.3357 4.82452 88.628 3.63572C89.9776 2.26255 91.364 1.33589 92.7883 0.926824C94.2863 0.296893 95.9735 0.000173147 97.847 0.000173147C100.283 0.000173147 102.532 0.593614 104.48 1.77953C106.429 2.89248 107.927 4.56141 109.09 6.86123H106.09C104.928 5.30369 103.654 4.19075 102.305 3.45039C100.918 2.70811 99.4197 2.33745 97.7325 2.33745C94.8092 2.33745 92.2993 3.37549 90.3123 5.49094C88.2516 7.53053 87.2396 10.0147 87.2396 12.908C87.2396 15.9501 88.2516 18.5457 90.3123 20.5843C92.373 22.6249 94.8471 23.6619 97.8062 23.6619C100.055 23.6619 102.116 22.9197 103.989 21.5119C105.788 20.0283 106.986 18.0992 107.549 15.687H94.8471V13.537H110.549C110.361 17.2455 108.975 20.2117 106.539 22.476C104.104 24.8488 101.106 25.9973 97.4696 25.9973C93.7973 25.9973 90.7994 24.773 88.3641 22.2523C85.8522 19.7681 84.6171 16.6146 84.6919 12.8302C84.6889 11.1411 85.0198 9.46546 85.6669 7.90119ZM10.3434 14.9466C11.4301 15.6889 11.9171 16.8758 11.9171 18.4708C11.9171 20.0293 11.4301 21.1787 10.4172 21.9949C9.36838 22.8092 7.8694 23.1808 5.84456 23.1808H2.28776V13.7223H5.84748C7.87134 13.7223 9.37032 14.1314 10.3434 14.9466ZM121.341 2.8195L126.138 15.4287H116.657L121.341 2.8195Z" fill="#949494"/>
</g>
<defs>
<clipPath id="clip0">
<rect width="251" height="26" fill="white"/>
</clipPath>
</defs>
</svg>
