<svg width="104" height="60" viewBox="0 0 104 60" fill="none" xmlns="http://www.w3.org/2000/svg">
<path fill-rule="evenodd" clip-rule="evenodd" d="M0 29.8408H6.25155V32.1046H4.31927V35.8953H11.3663V32.1046H9.37677V29.8408H15.7423V32.1046H13.696V43.2516H15.7423V45.4578H9.37677V43.2516H11.3663V38.1021H4.31927V43.2516H6.25155V45.4578H0V43.2516H1.98898V32.1046H0V29.8408Z" fill="#949494"/>
<path fill-rule="evenodd" clip-rule="evenodd" d="M74.7891 29.8408H87.6324V34.1978H85.4733V32.1046H79.2217V35.8389H84.5639V38.0456H79.2217V43.2516H85.4166V40.2523H87.6896V45.4578H74.7891V43.2516H76.8914V32.1046H74.7891V29.8408Z" fill="#949494"/>
<path fill-rule="evenodd" clip-rule="evenodd" d="M18.6406 29.8408H31.5412V34.1978H29.3249V32.1046H23.0739V35.8389H28.416V38.0456H23.0739V43.2516H29.2682V40.2523H31.5412V45.4578H18.6406V43.2516H20.7436V32.1046H18.6406V29.8408Z" fill="#949494"/>
<path fill-rule="evenodd" clip-rule="evenodd" d="M78.5391 27.7476H83.1424L84.2792 29.1052H79.7893L78.5391 27.7476Z" fill="#949494"/>
<path fill-rule="evenodd" clip-rule="evenodd" d="M100.249 36.5179C98.6571 36.1216 97.5775 36.1786 95.9293 35.6689C94.5085 35.1597 94.2244 34.3107 94.2244 33.745C94.2244 33.1229 94.8492 31.5947 97.1228 31.5947C99.3959 31.5947 100.931 33.1223 100.987 34.4241H103.204V29.8407H101.044V30.8592L101.157 31.142V31.1984V31.142C101.101 31.142 101.044 30.9721 100.817 30.8027C100.817 30.8027 100.817 30.8027 100.817 30.7462C100.191 30.1806 98.8844 29.5015 96.9522 29.5015C94.6219 29.5015 91.8941 30.9726 91.8941 33.745C91.8941 36.4609 93.8264 37.3664 95.5313 37.8192C97.1795 38.2719 98.0317 38.2719 99.4526 38.6682C100.816 39.0075 101.726 39.8565 101.726 41.1013C101.726 42.2332 100.987 43.7608 98.0317 43.7608C95.1333 43.7608 93.9398 42.1762 93.599 39.9694H91.4961V45.4577H93.6557V44.4393L93.599 44.1565C93.599 44.1565 93.6557 44.3264 93.9398 44.4958V44.5522C95.0193 45.4013 96.4969 45.9669 98.3158 45.9669C100.419 45.9669 103.999 44.8921 103.999 41.1572C104 38.4418 102.579 37.197 100.249 36.5179Z" fill="#949494"/>
<path fill-rule="evenodd" clip-rule="evenodd" d="M69.7308 43.2516V32.1046H71.8338V29.8408H66.1503L62.343 39.0076L62.2863 39.4603L62.1724 39.0076L58.4218 29.8408H52.6816V32.1046H54.7846V43.2516H52.6816V45.4578H59.1033V43.2516H57.1143V33.0095V32.3304L57.285 32.8401L61.6609 43.2516H62.9111L67.2871 32.8401L67.4011 32.2739L67.4578 32.8966V43.2516H65.4682V45.4578H71.8338V43.2516H69.7308Z" fill="#949494"/>
<path fill-rule="evenodd" clip-rule="evenodd" d="M23.9253 23.843C23.9253 23.843 23.8686 23.843 21.7656 23.843V23.2773H23.3571C23.4138 23.3908 23.7546 23.6736 23.9253 23.843Z" fill="#949494"/>
<path fill-rule="evenodd" clip-rule="evenodd" d="M78.1992 23.843C78.1992 23.6166 78.4266 23.3903 78.7106 23.2773H79.8474V23.843H78.1992Z" fill="#949494"/>
<path fill-rule="evenodd" clip-rule="evenodd" d="M42.5087 24.2393C41.5426 24.692 40.3491 24.635 39.3829 24.2393H28.0739C26.9938 24.692 25.7436 24.692 24.664 24.2393H21.7656V25.3141H79.8462V24.2393H42.5087Z" fill="#949494"/>
<path fill-rule="evenodd" clip-rule="evenodd" d="M28.7559 23.843C28.9265 23.7301 29.324 23.3338 29.3812 23.2773H38.1332C38.2466 23.4473 38.5312 23.7301 38.7013 23.843H28.7559Z" fill="#949494"/>
<path fill-rule="evenodd" clip-rule="evenodd" d="M40.9742 23.5033C42.4518 23.5033 43.702 22.2585 43.702 20.7874C43.702 19.2598 42.4518 18.0145 40.9742 18.0145C39.44 18.0145 38.1898 19.2592 38.1898 20.7874C38.1898 22.2585 39.44 23.5033 40.9742 23.5033V24.069C39.0987 24.069 37.6211 22.5978 37.6211 20.7868C37.6211 18.9194 39.0987 17.4482 40.9742 17.4482C42.7925 17.4482 44.2701 18.9194 44.2701 20.7868C44.2701 22.5973 42.7925 24.069 40.9742 24.069V23.5033Z" fill="#949494"/>
<path fill-rule="evenodd" clip-rule="evenodd" d="M30.1209 20.3349C30.1209 18.2981 28.416 16.6006 26.3697 16.6006C24.2668 16.6006 22.6191 18.2981 22.6191 20.3349C22.6191 22.4287 24.2674 24.0698 26.3697 24.0698C28.416 24.0698 30.1209 22.4287 30.1209 20.3349H29.4955C29.4955 22.0889 28.0747 23.5036 26.3697 23.5036C24.6081 23.5036 23.1873 22.0889 23.1873 20.3349C23.1873 18.5809 24.6081 17.2227 26.3697 17.2227C28.0747 17.2227 29.4955 18.5809 29.4955 20.3349H30.1209Z" fill="#949494"/>
<path fill-rule="evenodd" clip-rule="evenodd" d="M42.7355 22.6548L41.5987 21.3535V21.2971C41.6554 21.2406 41.6554 21.1842 41.7121 21.1272L43.417 21.5799C43.4737 21.5799 43.5877 21.6364 43.5877 21.6928C43.5877 21.6364 43.6443 21.41 43.701 21.2965C43.6443 21.353 43.5304 21.353 43.417 21.353L41.826 20.9002C41.7693 20.9002 41.7693 20.8438 41.7693 20.8438C41.7693 20.7873 41.7693 20.6739 41.7693 20.6174V20.5609L43.4175 19.9388C43.4175 19.9388 43.5882 19.9388 43.5882 19.9953C43.5882 19.9388 43.4748 19.656 43.4748 19.5996C43.4748 19.656 43.3608 19.7695 43.3041 19.7695L43.4175 19.713L41.7126 20.3357C41.7126 20.3921 41.7126 20.3357 41.6559 20.3357C41.6559 20.2792 41.5992 20.2228 41.542 20.2228C41.542 20.1663 41.4853 20.1099 41.542 20.1099L42.4514 18.6952C42.5081 18.6387 42.6221 18.5823 42.6788 18.5823C42.6221 18.5823 42.3947 18.4123 42.2813 18.3559C42.338 18.3559 42.338 18.5258 42.2813 18.5823L41.3719 19.997C41.3152 19.997 41.3152 19.997 41.2585 19.997C41.2585 19.997 41.1451 19.9405 41.0878 19.9405C41.0878 19.9405 41.0311 19.9405 41.0311 19.884L40.9744 18.243C40.9744 18.1301 40.9744 18.0166 41.0878 18.0166C40.9744 18.0166 40.747 18.0166 40.6331 18.0166C40.6898 18.0166 40.7465 18.1865 40.7465 18.243L40.8032 19.884C40.8032 19.9405 40.7465 19.9405 40.7465 19.9405C40.7465 19.9405 40.6331 19.997 40.5758 20.0534C40.5758 20.0534 40.5191 20.0534 40.5191 19.997L39.439 18.6957C39.3823 18.6393 39.3823 18.5258 39.3823 18.4693C39.3256 18.5258 39.0983 18.6957 39.0416 18.7522C39.0983 18.7522 39.2122 18.8086 39.2689 18.8651L40.349 20.1663V20.2228C40.2923 20.2228 40.2351 20.3357 40.2351 20.3927C40.2351 20.3927 40.1784 20.4491 40.1217 20.4491L38.5307 19.9964C38.4168 19.9399 38.3601 19.8835 38.3601 19.8265C38.3601 19.8829 38.2461 20.1658 38.2461 20.2228C38.2461 20.2228 38.4168 20.1663 38.4735 20.2228L40.0644 20.6191C40.1211 20.6191 40.1211 20.6755 40.1211 20.6755C40.1211 20.732 40.1211 20.8454 40.1211 20.9019V20.9583L38.5302 21.6375C38.4735 21.6375 38.3595 21.6939 38.3595 21.6375C38.3595 21.6939 38.4162 21.9203 38.4729 22.0338C38.4729 21.9773 38.5863 21.8638 38.6436 21.8638L40.1778 21.1847C40.2345 21.1847 40.2345 21.2412 40.2345 21.2412C40.2912 21.2412 40.3485 21.2976 40.3485 21.3541C40.4052 21.3541 40.4052 21.4105 40.4052 21.4105L39.439 22.8252C39.3823 22.8817 39.3256 22.9381 39.2684 22.9381C39.3251 22.9946 39.5524 23.1645 39.6091 23.1645C39.5524 23.1645 39.6091 22.9946 39.6091 22.9381L40.5753 21.5805C40.5753 21.524 40.632 21.524 40.632 21.524C40.6887 21.5805 40.7454 21.5805 40.8026 21.5805C40.8593 21.5805 40.8593 21.5805 40.8593 21.6369L40.9733 23.3344C40.9733 23.3909 40.9166 23.5044 40.8593 23.5044C40.916 23.5044 41.2001 23.5044 41.3141 23.5044C41.2001 23.5044 41.2001 23.3914 41.2001 23.278L41.0867 21.6369C41.0867 21.5805 41.1434 21.5805 41.1434 21.5805C41.2001 21.5805 41.3141 21.524 41.3708 21.467C41.3708 21.467 41.4275 21.467 41.4275 21.5235L42.5643 22.7682C42.5643 22.8247 42.621 22.9376 42.621 22.9946C42.6777 22.9381 42.8483 22.7682 42.905 22.7118C42.8494 22.7677 42.7355 22.6548 42.7355 22.6548Z" fill="#949494"/>
<path fill-rule="evenodd" clip-rule="evenodd" d="M26.2556 18.1847C27.8465 18.1847 29.438 18.3546 30.3475 18.6374C30.4609 18.6374 30.4609 18.7503 30.3475 18.8073C29.3813 19.0337 27.7904 19.2031 26.3128 19.2031C24.8353 19.2595 23.2437 19.2031 22.2209 18.9767C22.1075 18.9767 22.1075 18.8632 22.2209 18.8632C23.1298 18.524 24.664 18.2411 26.2556 18.1847V17.9019C24.5506 17.9583 22.8457 18.3546 21.4249 18.8638C21.2542 18.9203 21.2542 19.0337 21.4249 19.0337C23.0164 19.43 24.664 19.4865 26.3123 19.43C27.9032 19.3736 29.6087 19.2601 31.143 18.8073C31.3703 18.7509 31.3136 18.6374 31.1997 18.6374C29.7221 18.1847 28.0172 17.9019 26.2556 17.9019V18.1847Z" fill="#949494"/>
<path fill-rule="evenodd" clip-rule="evenodd" d="M43.135 17.166C42.7369 17.279 42.0549 17.5053 41.7141 17.5053C41.43 17.5053 40.0092 17.4489 39.043 17.5053C37.7361 17.5618 37.6222 17.7317 37.5655 17.6182C37.2814 17.1655 37.0541 16.4864 36.5993 16.0906C33.9283 16.5434 31.3139 16.1471 28.9275 15.2986V14.9593C29.0982 15.0158 29.2116 15.0158 29.3255 15.0158C28.9275 14.4501 28.246 14.2802 27.848 13.6575C27.6206 13.4876 27.5639 13.1483 27.3365 12.9784C27.3932 13.6011 26.8818 14.0538 26.8251 14.5625C27.1659 14.6759 27.6206 14.6759 27.7913 14.6189C28.0186 14.5625 28.3027 14.6189 28.4166 14.7888C28.5873 14.8453 28.7007 14.9588 28.9281 14.9588V15.298C28.644 15.2416 28.5873 15.1851 28.3599 15.0717C28.0759 15.1851 27.8485 15.1281 27.7351 15.0152C27.6784 14.9588 27.1097 14.9588 26.8824 14.9588C26.1436 14.9588 25.3481 15.2416 24.9501 15.8643C24.7794 16.2035 24.8367 16.5998 25.0068 16.8827C25.1202 17.0526 25.6316 17.7882 25.9729 18.0145L25.5182 18.128C24.8361 17.5053 24.3247 16.9397 24.4387 16.2041C24.7794 14.62 26.257 14.8464 26.655 14.1673C26.9391 13.5446 27.0525 11.7342 26.7117 11.225C25.7456 10.8287 24.5521 10.3195 24.3247 9.18818C24.268 8.90535 24.3814 8.56552 24.6655 8.50906C25.1769 8.39615 25.5177 8.67898 25.9157 8.84834C26.0863 8.73543 25.745 8.33914 26.143 8.33914C26.6545 8.33914 26.9952 9.35755 27.1659 9.41455L27.1092 9.81029C26.7684 9.69738 25.5177 9.01826 25.4043 8.96181C25.1769 8.84834 24.8928 8.67898 24.7222 8.90535C24.4948 9.18818 24.7789 9.52802 24.9495 9.81085C27.6206 12.5832 32.0533 9.64093 34.9517 11.6213C35.0084 11.4514 34.9517 11.3949 34.8383 11.3385C32.8493 9.47101 29.6668 10.433 27.1092 9.81085L27.1659 9.41511C30.3484 10.2071 34.5542 8.90591 36.2019 12.5273C37.2814 14.0549 38.4182 16.488 40.748 16.5445C42.6235 16.6009 43.8737 15.8654 44.7832 14.5077C46.0334 12.2445 46.7722 9.64148 48.9885 8.11388C49.2159 8.00041 49.3293 8.11388 49.2158 8.17033C48.1358 9.24574 47.1696 10.6599 46.6582 11.8482C47.5109 15.0733 49.386 14.3942 49.8407 14.3378C49.7273 13.1494 49.8407 9.64148 52.3983 8.79244C52.9664 8.3397 55.0127 7.03846 57.6837 8.16978C55.6948 10.0372 54.5013 12.6967 54.1032 14.5636L51.8869 15.1862C52.0576 14.847 52.0576 14.2808 52.0003 13.6586C51.7729 13.7715 51.5456 13.9415 51.0342 14.2243C50.8068 14.2808 50.9775 13.9415 50.9775 13.9415C50.9775 13.8286 51.5456 13.6022 52.0003 13.3194C51.8297 12.0181 51.7162 10.3206 52.7958 9.24519C50.5795 9.98076 51.2048 14.6206 51.4316 15.1862C50.8068 15.4691 49.9541 15.4691 49.9541 15.4691L49.8407 14.677C48.8745 15.0163 47.2263 14.79 46.4875 12.2439C45.6921 13.8845 45.0105 16.4869 43.135 17.166Z" fill="#949494"/>
<path fill-rule="evenodd" clip-rule="evenodd" d="M77.8017 10.263C77.6877 10.1496 77.631 10.0931 77.5176 10.0931C77.4609 10.0367 77.5176 9.97966 77.5743 9.97966C77.631 9.9232 77.745 9.97966 77.8017 10.0931C77.8584 10.1496 77.8584 10.263 77.8017 10.263Z" fill="#949494"/>
<path fill-rule="evenodd" clip-rule="evenodd" d="M26.9386 21.1838L28.1321 22.542C28.2455 22.6549 28.2455 22.8249 28.1888 22.8813C28.3595 22.8249 28.5868 22.542 28.7002 22.4286C28.6435 22.485 28.4162 22.485 28.3595 22.3721L27.1093 21.0139C27.1093 20.9574 27.1093 20.9574 27.1093 20.901C27.1093 20.901 27.1093 20.901 27.166 20.8445C27.166 20.788 27.2227 20.788 27.2227 20.788L28.9843 21.4102C29.1549 21.5231 29.2116 21.6365 29.2116 21.693C29.2683 21.5801 29.3823 21.2402 29.439 21.1273C29.3823 21.1838 29.2116 21.2408 29.0982 21.1838L27.3366 20.5611C27.2799 20.5611 27.2799 20.5611 27.2799 20.5047C27.2799 20.4482 27.2799 20.4482 27.2799 20.3918C27.2799 20.3353 27.3366 20.3353 27.3366 20.3353L29.1549 20.0525C29.3823 19.996 29.4957 20.1089 29.4957 20.1654C29.4957 20.0525 29.439 19.6562 29.439 19.5433C29.439 19.5997 29.325 19.7696 29.0982 19.8261L27.3366 20.1089C27.2799 20.1089 27.2799 20.0525 27.2799 20.0525C27.2232 19.996 27.2232 19.9396 27.166 19.8826V19.8255L28.5868 18.6372C28.7575 18.5238 28.9276 18.5238 28.9843 18.5808C28.8709 18.4679 28.6435 18.1845 28.5296 18.0716C28.5863 18.128 28.5296 18.2979 28.4162 18.4679L27.052 19.5997C26.9953 19.6562 26.9953 19.6562 26.9953 19.5997C26.9386 19.5997 26.8819 19.5997 26.8252 19.5433C26.8252 19.5433 26.7685 19.4868 26.8252 19.4868L27.45 17.7328C27.5067 17.5629 27.6774 17.5065 27.7341 17.5065C27.6207 17.45 27.2227 17.2801 27.1087 17.2801C27.1654 17.2801 27.2794 17.5065 27.2221 17.6758L26.5973 19.3733C26.5973 19.4298 26.5406 19.4298 26.5406 19.4298C26.4839 19.4298 26.4272 19.4298 26.3699 19.4298L26.3132 19.3733L25.9725 17.5629C25.9725 17.3365 26.0859 17.2236 26.0859 17.2236C25.9725 17.2236 25.6311 17.2801 25.461 17.3371C25.5177 17.3371 25.6884 17.45 25.7451 17.6199L26.0859 19.3739C26.0859 19.4304 26.0859 19.4304 26.0292 19.4868C25.9725 19.4868 25.9158 19.5433 25.8585 19.5433H25.8018L24.5516 18.185C24.4382 18.0151 24.4382 17.8457 24.4949 17.8457C24.3809 17.9022 24.0969 18.1286 24.0402 18.242C24.0969 18.242 24.2675 18.242 24.3809 18.3549L25.6311 19.7132V19.7696C25.5744 19.8261 25.5744 19.8261 25.5172 19.8826C25.5172 19.8826 25.5172 19.8826 25.4605 19.8826L23.7556 19.2604C23.5849 19.204 23.4715 19.0341 23.5282 18.9776C23.4148 19.1475 23.3581 19.4868 23.3008 19.6003C23.3575 19.5438 23.5282 19.4868 23.6983 19.5438L25.4032 20.1095C25.4032 20.1659 25.4032 20.1659 25.4032 20.1659C25.4032 20.2224 25.4032 20.2794 25.4032 20.3359C25.4032 20.3923 25.4032 20.3923 25.4032 20.3923L23.5849 20.7316C23.4142 20.7316 23.2441 20.6187 23.2441 20.5617C23.2441 20.7316 23.3008 21.1273 23.3581 21.2408C23.3581 21.1843 23.4148 21.0144 23.6422 20.958L25.4038 20.6187C25.4038 20.6187 25.4605 20.6187 25.4605 20.6751C25.4605 20.7316 25.4605 20.7316 25.5172 20.7886C25.5172 20.8451 25.5172 20.8451 25.5172 20.8451L24.0963 21.9769C23.9257 22.1468 23.7556 22.0904 23.7556 22.0334C23.7556 22.2033 24.0396 22.4861 24.0963 22.5426C24.0963 22.4861 24.0963 22.3162 24.2097 22.2033L25.6873 21.0714C25.6873 21.015 25.6873 21.015 25.744 21.0714C25.744 21.0714 25.8007 21.1279 25.8574 21.1843C25.9141 21.1843 25.9141 21.1843 25.9141 21.2408L25.2893 22.9383C25.2326 23.1082 25.0619 23.2211 25.0052 23.1647C25.1186 23.2211 25.4599 23.3911 25.63 23.3911C25.5161 23.3911 25.4594 23.2211 25.5161 23.0518L26.1414 21.2978C26.1414 21.2978 26.1414 21.2413 26.1981 21.2413C26.2548 21.2978 26.3121 21.2978 26.3688 21.2978C26.3688 21.2978 26.4255 21.2978 26.4255 21.3543L26.7663 23.1082C26.7663 23.3346 26.6529 23.4475 26.5956 23.5045C26.7663 23.5045 27.107 23.3916 27.2204 23.3346C27.1637 23.3911 26.9931 23.2217 26.9931 23.1082L26.6523 21.2978C26.6523 21.2413 26.6523 21.2413 26.6523 21.2413C26.709 21.2413 26.7657 21.1849 26.823 21.1849C26.8813 21.1268 26.8813 21.1268 26.9386 21.1838Z" fill="#949494"/>
<path fill-rule="evenodd" clip-rule="evenodd" d="M77.0052 10.4888C76.9485 10.4324 77.0052 10.3759 77.0052 10.3189C77.0619 10.149 77.1186 10.149 77.1186 9.97963C76.8345 9.75326 76.7778 9.30051 76.9479 9.1876C77.1186 9.01768 77.6867 9.24406 77.6867 9.24406C78.1981 8.84777 78.3688 8.56494 78.6529 8.39502C79.0503 8.39502 79.8463 9.13059 79.8463 9.58334C79.7329 9.75326 79.4489 10.0361 78.9936 10.6017C79.1643 10.9975 79.1643 11.2809 78.8802 11.5072C78.8235 11.5072 78.7096 11.5072 78.5962 11.3943C78.6529 11.96 79.2782 12.2998 79.5056 12.752C79.5056 13.6575 80.4717 14.7888 79.3922 15.5249C79.1648 15.6379 78.9375 15.8078 78.8241 16.0342C78.9942 16.9396 79.3355 17.9016 79.5061 18.8635L78.4266 18.92C78.3132 19.2593 77.9719 19.8819 78.0858 20.2212C78.0858 20.2212 78.0291 20.1648 78.1425 20.2212C78.3132 20.4476 78.3699 22.315 78.3132 22.4844C78.3132 22.7108 78.4839 22.7108 78.3699 23.1071C78.2565 23.1635 77.8018 23.4464 77.7451 23.6163C77.461 23.8991 76.6655 23.9556 76.6655 23.8426C76.6655 23.5598 77.2337 23.2205 77.3476 22.8807C77.4616 21.5225 77.3476 20.1648 76.6088 19.0894C76.3248 18.9194 76.0974 19.3722 75.9268 19.5986C76.2108 20.4476 76.7222 21.3525 76.6655 22.3145C76.6655 22.5973 77.0063 22.9936 76.8362 23.3899L75.9268 23.8426H72.6309C72.5175 23.6727 72.2901 23.5034 72.3468 23.277H75.3019C75.3019 23.1641 75.586 23.2205 75.8701 22.7678C75.8701 21.4096 74.4492 19.4292 74.6766 18.7501C74.9606 17.901 75.3586 17.2225 75.8134 16.0906L76.0407 16.0342C75.5293 17.7317 74.7905 18.5807 74.9039 19.0899C74.9606 19.3727 75.0746 19.5991 75.2447 19.939L75.3586 20.2782C75.4153 20.4482 75.586 20.8439 75.6994 20.9574C75.8701 20.9574 75.9835 20.8439 76.0974 20.7874C76.0974 20.5611 75.9268 20.2782 75.8134 20.1083L75.3586 20.2782L75.2447 19.939C75.5854 19.939 75.8128 19.7126 75.5287 19.5427C76.3248 19.1469 75.3586 19.2598 75.6427 19.0899C76.0974 18.8635 76.3248 18.0145 76.3815 17.5059C76.3815 17.3924 76.4382 17.3359 76.5521 17.3359C76.8929 18.2414 76.8929 19.4298 77.4616 20.2782V20.5611C77.4049 20.7874 77.4616 21.0703 77.575 21.2402C78.0864 21.2966 78.0297 21.1837 77.9157 20.5611C77.8023 20.5611 77.575 20.5046 77.461 20.5611V20.2782C77.5177 20.2218 77.7451 20.2782 77.8018 20.2218C77.6311 19.939 77.6311 19.7126 77.6311 19.4298C77.6311 19.2598 77.7445 18.9205 77.8585 19.6561C78.0291 19.7126 78.3132 18.3549 78.3699 17.9021C77.2904 18.1285 78.3699 16.8837 77.5744 16.8273L77.9724 16.1482C77.9724 15.9218 77.8018 15.7519 77.5177 15.8653L77.2904 15.5825C77.1197 15.5261 76.9496 15.2432 76.7222 15.0733C76.5516 15.2432 76.2675 15.5825 76.2108 15.8089C76.1541 15.8653 76.3248 15.9218 76.3815 15.8653C76.5521 15.6954 76.6655 16.0347 76.9496 15.9782C77.063 15.8653 77.4043 15.8083 77.2904 15.582L77.5177 15.8648C77.2904 15.9777 77.2904 16.374 77.2904 16.6568C76.8923 17.3924 77.063 16.2605 76.6083 16.2605C76.3242 16.4304 76.2103 15.9777 76.0402 16.0342L75.8128 16.0906C75.8128 15.6949 75.8695 15.2416 75.8128 14.7894C76.1536 12.8655 76.5516 12.9219 76.6083 12.3563C76.6083 12.1299 77.461 11.6772 77.4038 11.4508C77.4605 11.4508 77.5744 11.6207 77.5744 11.6772C77.5177 11.96 76.9496 11.96 77.0063 12.5826C77.3471 11.9605 78.3132 12.017 78.3699 11.2814C78.1992 10.8287 78.5973 11.1115 78.5973 10.6588C78.4839 10.5458 78.1425 10.206 78.0858 10.0361C78.0291 9.97963 78.2565 9.6398 77.4605 9.6398C77.4038 9.69625 77.3465 10.0361 77.2331 10.2055C77.1764 10.2619 77.0624 10.3754 77.1197 10.4318C77.1197 10.4883 77.2331 10.5447 77.2331 10.7711C77.1764 10.9975 77.2331 11.1104 77.3465 11.2239C77.8012 11.4502 78.142 11.2239 77.6306 11.5067C77.6306 11.5631 77.6306 11.6196 77.5739 11.6766C77.5739 11.6201 77.4032 11.3938 77.3465 11.3373C77.2898 11.3373 77.0057 11.1674 77.0624 10.941C77.1186 10.7152 77.1186 10.6023 77.0052 10.4888Z" fill="#949494"/>
<path fill-rule="evenodd" clip-rule="evenodd" d="M61.7189 8.33936C61.7756 8.73565 61.5483 9.01848 61.5483 9.41477C61.9463 10.3767 61.5483 11.1123 61.6617 12.0178C61.207 11.735 61.0936 10.9994 60.9229 10.2074C60.8095 9.52823 60.9796 9.30186 61.0363 8.56628L61.7189 8.33936Z" fill="#949494"/>
<path fill-rule="evenodd" clip-rule="evenodd" d="M60.5254 8.62206C60.4687 9.81039 60.298 10.376 61.1508 12.2435C58.9911 13.149 57.2295 13.7711 54.6719 14.5067C54.9559 12.6962 56.7176 9.24417 58.1951 8.28223C59.4459 8.62206 60.5254 8.62206 60.5254 8.62206Z" fill="#949494"/>
<path fill-rule="evenodd" clip-rule="evenodd" d="M54.9535 21.9194C54.3854 22.0894 54.3854 22.4286 54.7261 22.7685C54.9535 22.9378 55.1808 23.2212 55.1808 23.2777H51.5437C51.5437 23.4476 51.7143 23.5605 51.8277 23.8433H71.9454C72.0588 23.5605 71.7181 23.2212 71.6046 22.8814C70.1838 22.3722 70.1838 21.071 70.1271 19.5998C70.1271 19.5433 70.0137 19.3734 70.0137 19.0906C69.843 18.8642 68.8769 16.544 69.3316 14.6772L69.6724 14.0545C69.9564 13.6582 69.6157 13.4318 69.843 12.9791L74.0483 12.187C74.105 12.1306 74.105 11.9607 73.9916 11.9042C73.9916 11.8478 74.0483 11.9042 73.9916 11.9042L69.8997 12.6398C70.1271 11.6214 69.2177 11.2816 69.6157 10.4331C70.1838 11.0557 71.7186 12.1306 72.5141 12.3005L72.9115 12.2441C71.8887 11.7913 70.0704 10.7164 69.047 9.30175C68.933 9.30175 68.8196 9.18884 68.7062 9.13184C68.7062 9.2453 68.9903 9.58458 68.9336 9.64104C68.9336 9.64104 68.2515 10.0938 67.0013 9.52813C66.6033 10.3202 62.1706 12.3005 62.1706 12.3005C62.3413 13.5453 62.9094 14.3379 63.5348 15.0164C63.5915 15.1293 63.3641 14.903 63.5348 15.0164C64.4442 15.752 65.5238 16.0913 66.7173 16.3177C66.9446 16.9968 67.7968 19.2035 67.8541 19.5428C67.9675 19.8821 68.1381 19.8821 68.1381 19.8821C68.2521 19.995 68.6495 20.7311 68.6495 21.0139L68.7629 22.2023C68.8196 22.4851 69.1609 22.2587 69.2177 22.5416L69.047 23.2771H69.8997C69.445 22.8814 69.7291 22.2023 69.1609 21.9194C69.1042 21.2403 69.0475 20.7311 68.7629 20.4483C68.5356 19.7692 67.7968 17.9587 67.3421 16.3177L67.6261 15.9214C66.3759 16.2607 65.4098 15.8085 64.273 15.1858C63.4203 14.7895 63.9322 15.1293 64.2163 14.9594C65.5805 15.5815 66.2625 15.4122 67.2848 15.2987C67.3988 15.4686 67.6256 15.638 67.6256 15.9214L67.3415 16.3177C67.6256 16.0348 67.8529 16.2042 68.0236 16.9968C68.251 17.6759 68.4783 18.1851 68.649 18.7508C68.8763 19.3164 69.047 20.052 69.2171 20.4483C69.2171 20.4483 69.3878 20.4483 69.5012 20.6747C69.8992 21.9194 70.0126 22.0894 69.9559 22.655C70.0698 23.1078 70.6947 22.7115 70.638 23.2771H55.6917C55.9191 22.3716 55.4076 21.5796 55.6917 20.7311C55.1236 19.8256 53.7027 19.1471 53.9301 17.9017C54.6122 16.9398 56.8285 15.9778 56.3171 14.8465C58.3628 13.8281 59.3856 15.5256 61.2612 15.3557C61.9433 15.3557 62.682 15.2423 63.3069 15.0729C62.5114 14.4502 61.8293 13.4888 61.4313 12.6398C57.4533 14.2809 53.5888 15.5821 49.3262 16.4311L48.9854 16.3182C48.588 16.3747 42.1091 17.8458 42.3364 18.1287C39.8927 18.2986 37.051 19.317 36.4262 19.6563C36.1421 19.8262 36.0854 19.9391 36.4262 20.0526C39.0406 20.7317 41.2002 20.2225 45.2348 18.6943L44.9508 18.4679C44.7234 18.6379 41.427 19.7692 40.1201 19.9391C38.7559 20.109 37.5624 20.052 36.9943 19.8826C36.8237 19.8262 36.8237 19.8262 36.9376 19.7697C39.4953 18.7513 44.4394 17.8458 45.1214 18.6943C45.5189 18.8078 45.8035 19.0336 46.0309 19.317C46.2582 19.5998 46.713 19.4863 47.0537 19.4299C47.5084 19.317 47.5651 18.9207 47.5651 18.5244L47.0537 18.4679C46.8264 18.4679 45.9169 18.5808 45.8035 18.6943C45.4628 18.4115 45.1214 18.1287 44.6667 18.0152C45.5762 17.6195 47.0537 17.2796 47.8492 17.2232C47.1104 17.7324 47.4517 18.355 47.0537 18.4679L47.5651 18.5244C47.5651 18.298 47.5651 18.1287 47.6785 18.0152C48.19 16.7704 50.3496 16.6005 51.4291 16.3177C51.4291 16.3177 50.861 17.0532 50.463 17.2232C50.3496 18.9771 49.7242 20.5053 49.6103 22.2593C50.1217 22.2593 50.1217 22.8249 50.2356 23.1648C50.065 23.4476 49.8376 23.1648 49.6103 23.2212C48.8148 22.8249 49.7809 22.1458 49.1555 21.5802C49.4963 20.1655 50.0083 18.7508 50.0083 17.2796C49.7809 17.2796 49.7242 17.506 49.6103 17.6754C49.4396 19.09 49.0421 20.3913 48.7008 21.6931C48.8142 21.806 49.0988 21.9194 49.0988 22.1458C48.6441 22.4286 49.0988 22.9378 48.9282 23.2777H43.7584L43.247 23.8433H51.0895L51.1462 23.5605C50.0094 22.3157 50.4074 20.5047 50.9755 19.1471L52.3397 17.3361C53.4765 16.8833 54.158 15.5256 55.3515 15.0723C55.3515 15.695 54.6127 15.9214 54.2147 16.2607C53.76 17.2226 52.4531 17.3361 52.2824 18.4109C52.7939 18.9766 53.5326 19.3729 54.158 19.8821C54.7834 20.2784 54.6127 21.1269 55.0674 21.5231C55.1808 21.6361 55.0674 21.8624 54.9535 21.9194Z" fill="#949494"/>
<path fill-rule="evenodd" clip-rule="evenodd" d="M63.6495 1.49216C63.4221 1.83145 62.9674 2.05782 63.252 2.68049C62.6839 3.01977 62.854 3.52952 63.0247 3.81235C62.7406 4.09518 62.57 4.66139 62.968 5.00067C62.5133 5.50988 63.0814 5.96262 63.252 6.13254C63.0247 6.64174 63.252 7.03803 63.252 7.03803C63.1953 7.37732 62.57 7.94353 62.3426 8.11345C62.0018 8.96248 62.1152 10.7165 62.1719 11.9048C63.7635 11.1128 65.3544 10.3772 66.6046 9.30177C65.5245 8.56619 64.6723 6.81221 63.4788 6.92512C63.3654 5.68035 62.8535 3.47362 64.6156 1.20989C64.843 1.09643 65.1838 1.03997 65.3544 0.927061C64.6156 0.814151 63.6495 1.26634 62.9674 0.870606C62.9674 0.870052 63.3087 1.43571 63.6495 1.49216Z" fill="#949494"/>
<path fill-rule="evenodd" clip-rule="evenodd" d="M67.459 0.926525C67.459 0.98298 67.6864 1.09644 67.6864 1.09644C67.6864 1.09644 67.9138 1.03999 67.9138 0.983533C67.9138 0.927078 67.9705 0.75716 67.9138 0.700705C67.8571 0.700705 67.6864 0.64425 67.573 0.64425C67.5725 0.643697 67.459 0.87007 67.459 0.926525L67.3456 1.03999L66.5502 0.474332L66.6636 0.361422C66.6636 0.361422 67.0043 0.0221385 67.175 0.0221385C67.3456 -0.0343164 68.2551 0.0221385 68.4819 0.192057C68.6525 0.361975 68.766 0.474885 68.9933 0.871177C69.6187 1.32392 70.6415 1.32392 71.2663 1.83313C71.1529 2.00304 71.437 2.28587 71.2097 2.39878C71.039 2.45524 70.6415 2.34233 70.5843 2.45524L70.5276 2.79452L70.3002 2.73807C70.3002 2.73807 70.4136 2.34233 70.3002 2.34233C70.1868 2.28587 69.9594 2.17241 69.8455 2.22886C69.7888 2.28532 69.8455 2.34233 69.9022 2.45524C69.9022 2.56815 70.1863 2.62515 70.3569 2.56815L70.5843 2.6246L70.8683 2.68106C70.7544 2.96388 70.6977 3.07679 70.3002 2.96388C70.1868 3.24671 70.8116 3.47309 70.8683 3.58655C70.8116 3.70001 70.6977 3.81292 70.3002 3.58655C70.3002 3.58655 68.652 5.17116 67.6859 5.62391C66.663 6.07666 67.6292 5.39754 67.6292 5.39754C68.0839 5.22762 70.0729 3.53009 70.0729 3.36073C70.0162 3.24727 69.9022 3.02145 69.9022 2.85153C69.6181 2.73807 69.0495 2.90798 68.8221 3.0779C68.9355 3.5871 69.8449 6.13367 69.1629 9.9809L69.0495 9.86799C69.6743 6.13366 68.6514 3.13436 68.6514 3.13436C68.0833 3.36073 67.6853 3.19081 67.4012 3.24727C67.2873 5.56745 69.1629 5.90674 68.4808 8.9625C66.4918 8.62322 65.0709 6.18957 63.9347 6.41594C63.878 6.01965 63.48 5.34108 63.878 5.11471C63.7646 4.77543 63.6506 4.32268 64.1621 4.0393C63.9914 3.58655 63.9347 3.19081 64.4461 2.85097C64.3322 2.56815 64.3894 1.94548 65.0142 1.83257C65.0709 1.32337 65.2983 0.927078 65.753 0.75716C65.2416 0.530787 65.1276 0.0215851 65.1276 0.0215851C65.5824 0.304413 65.9804 0.474332 66.6619 0.360868L67.459 0.926525Z" fill="#949494"/>
<path fill-rule="evenodd" clip-rule="evenodd" d="M48.1351 43.2517L48.0784 40.083C48.0784 39.1211 47.4536 38.1027 46.6009 37.537C46.4302 37.4806 46.1461 37.3671 45.9188 37.3671C46.1461 37.3671 46.4302 37.3671 46.7143 37.2536C47.567 36.8574 48.5898 35.7825 48.5898 33.9151C48.5898 32.5004 48.0217 31.4255 46.9983 30.6894C46.0322 30.0103 44.9526 29.8403 43.8158 29.8403H35.0645V32.1041H37.0534V43.2512H35.0645V45.4579H41.316V43.2512H39.327V38.3285H43.6463C45.1239 38.385 45.692 39.3469 45.692 40.1395L45.8626 45.4584H50.1247V43.2517H48.1351ZM44.1005 36.1782H39.3265V32.1041C39.3265 32.1041 42.7363 32.1041 43.8158 32.1041C44.3273 32.1041 44.8954 32.1041 45.3501 32.274C45.9182 32.5568 46.4302 33.1795 46.4302 34.1414C46.4308 35.3297 45.3507 36.1782 44.1005 36.1782Z" fill="#949494"/>
<path fill-rule="evenodd" clip-rule="evenodd" d="M34.2696 51.0029C36.3158 51.0029 37.2247 52.1348 37.2247 53.5489C37.2247 54.9636 36.2585 56.0385 34.0989 56.0385H32.6214V59.9427H31.3145V51.0029H34.2696ZM32.6219 54.9077H34.2134C35.1796 54.9077 35.8616 54.3985 35.8616 53.493C35.8616 52.8139 35.4636 52.1348 34.2701 52.1348H32.6219V54.9077Z" fill="#949494"/>
<path fill-rule="evenodd" clip-rule="evenodd" d="M47.3967 59.9436H45.9759L44.8391 57.2841H40.9178L39.8383 59.9436H38.418L42.3959 50.9468H43.3054L47.3967 59.9436ZM41.4298 56.0958H44.3282L42.7939 52.5873L41.4298 56.0958Z" fill="#949494"/>
<path fill-rule="evenodd" clip-rule="evenodd" d="M62.3446 59.9433H61.0371V51.0029H62.3446V59.9433Z" fill="#949494"/>
<path fill-rule="evenodd" clip-rule="evenodd" d="M71.7203 52.927C70.8675 52.2479 70.0721 52.0215 69.39 52.0215C68.5372 52.0215 67.8557 52.4173 67.8557 53.0399C67.8557 54.7939 72.061 54.7374 72.061 57.6233C72.061 58.9815 70.9242 59.9999 69.3333 59.9999C68.3104 59.9999 67.401 59.7736 66.6055 59.2079V57.5668C67.3443 58.4159 68.2537 58.8681 69.2199 58.8681C70.2994 58.8681 70.8108 58.2454 70.8108 57.7362C70.8108 55.9252 66.5488 55.6988 66.5488 53.2663C66.5488 51.7951 67.7423 50.8896 69.5039 50.8896C70.2994 50.8896 70.9815 51.0596 71.7203 51.5123V52.927Z" fill="#949494"/>
<path fill-rule="evenodd" clip-rule="evenodd" d="M56.8291 58.8684C56.6584 58.642 56.4883 58.4156 56.3177 58.1328C55.6356 57.0009 55.0675 56.2089 54.2147 55.6997C55.2376 55.304 55.8057 54.5114 55.8057 53.493C55.8057 51.9654 54.6122 51.0034 52.6799 51.0034H50.3496V59.9438H51.7138V56.0395H52.2819C52.964 56.0395 53.5321 56.2659 54.7256 58.0769L55.9758 59.9443H57.51L56.8291 58.8684ZM52.5671 54.9077H51.7143V52.0783H52.5671C53.874 52.0783 54.3859 52.5875 54.3859 53.4365C54.4421 54.1715 54.0446 54.9077 52.5671 54.9077Z" fill="#949494"/>
</svg>
