<svg width="272" height="26" viewBox="0 0 272 26" fill="none" xmlns="http://www.w3.org/2000/svg">
<g clip-path="url(#clip0)">
<path d="M230.534 16.6687L234.466 5.14608L238.271 16.6687H230.534ZM189.769 12.2038V1.5877H191.611C194.656 1.5877 196.699 3.5679 196.699 7.14801C196.699 9.12346 195.155 12.2024 191.949 12.2024L189.769 12.2038ZM169.857 16.6687L173.79 5.14608L177.595 16.6687H169.857ZM271.965 1.08178H260.311V1.58838H262.237V19.8224L250.382 1.08178H245.287V1.58838H247.209V24.6473H243.988L235.734 0.015625L227.208 24.6466H224.172V1.58838H225.931V1.08178H221.334L214.784 20.314L207.924 1.08178H203.244V1.58838H205.169V24.6473H201.637C200.422 24.6473 199.42 23.5621 199.42 21.8589V18.2795C199.42 15.3242 198.387 12.9677 195.093 12.4652C197.831 12.0938 199.841 9.64975 199.841 7.01559C199.841 3.66636 197.359 1.08382 192.42 1.08382H185.072V1.59041H186.994V24.6493H183.31L175.057 0.015625L166.532 24.6466H164.949V25.1532H169.346V24.6466H167.133L169.685 17.1753H177.764L180.234 24.6466H177.208V25.1532H192.745V24.6466H189.77V12.7117H191.95C194.944 12.7117 196.516 13.9286 196.516 16.9213V19.0184C196.516 23.9627 199.699 25.1538 201.4 25.1538H207.778V24.6473H205.679V3.31392L213.753 25.4112L221.405 2.59206V24.6473H219.479V25.1538H230.023V24.6473H227.812L230.363 17.176H238.441L240.909 24.6473H237.885V25.1538H249.65V24.6473H247.717V2.38833L262.746 25.9844V1.58838H267.267V24.6473H265.34V25.1538H271.967V24.6473H270.041L270.039 1.58838L271.967 1.58906L271.965 1.08178ZM10.5142 1.58838C14.6002 1.58838 15.6202 3.9509 15.6202 7.33612H16.0935V1.08178H0V1.58838H2.09632V24.6473H0V25.1538H16.0942V18.2225H15.6209C15.6209 21.8019 14.7456 24.6473 8.84231 24.6473H4.86833V13.2536H6.57622C9.22328 13.2536 10.4809 14.6186 10.4809 16.9383H10.9543V9.06098H10.4809C10.4809 11.4147 9.22328 12.7464 6.57622 12.7464H4.86833V1.58838H10.5142ZM115.408 25.2584C109.01 25.2584 108.696 16.8983 108.696 13.1341C108.696 9.39781 109.122 1.0098 115.408 1.0098C121.68 1.0098 122.153 9.39917 122.153 13.1341C122.153 16.8704 121.795 25.2584 115.408 25.2584ZM115.408 0.503205C109.112 0.503205 104.977 7.51132 104.977 13.1362C104.977 19.273 109.452 25.7338 115.408 25.7338C121.363 25.7338 125.837 19.6662 125.837 13.1362C125.838 7.51132 121.364 0.503205 115.408 0.503205ZM67.9679 25.2584C61.5702 25.2584 61.2565 16.8983 61.2565 13.1341C61.2565 9.39781 61.6823 1.0098 67.9679 1.0098C74.2405 1.0098 74.7125 9.39917 74.7125 13.1341C74.7132 16.8704 74.3533 25.2584 67.9679 25.2584ZM67.9679 0.503205C61.6721 0.503205 57.5372 7.51132 57.5372 13.1362C57.5372 19.273 62.0116 25.7338 67.9679 25.7338C73.922 25.7338 78.3985 19.6662 78.3985 13.1362C78.3985 7.51132 73.9248 0.503205 67.9679 0.503205ZM83.9928 12.2038V1.5877H85.8352C88.8808 1.5877 90.9235 3.5679 90.9235 7.14801C90.9235 9.12346 89.3786 12.2024 86.1733 12.2024L83.9928 12.2038ZM97.4624 1.5877L99.3889 1.58838V24.6473H95.8591C94.6428 24.6473 93.6446 23.5621 93.6446 21.8589V18.2795C93.6446 15.3242 92.6104 12.9677 89.3182 12.4652C92.0576 12.0931 94.067 9.64975 94.067 7.01695C94.067 3.66637 91.5836 1.08382 86.6453 1.08382H79.2977V1.59041H81.2194V24.6493H79.2977V25.1559H86.9665V24.6493H83.9921V12.7117H86.172C89.1667 12.7117 90.7368 13.8933 90.7368 16.9213V19.0184C90.7368 24.0368 93.9203 25.1538 95.6228 25.1538H104.089V24.6473H102.162V1.58838L104.089 1.58906V1.08178H97.4624V1.5877ZM47.1554 14.6722H45.7517V1.5877H47.1554C50.6398 1.5877 52.8189 3.38522 52.8189 8.19584C52.8189 12.5399 51.1436 14.6722 47.1554 14.6722ZM42.9458 24.6466H38.3973V1.58838H42.9458V24.6466ZM47.8324 1.08178H35.5567L29.011 20.314L22.1462 1.08178H17.4707V1.58838H19.3959V24.6473H17.4707V25.1538H21.9988V24.6473H19.9039V3.31324L27.9754 25.4112L35.6253 2.59342V24.6473H33.6994V25.1538H47.679V24.6473H45.7517V15.1809H47.8311C53.3337 15.1809 55.9963 12.1189 55.9963 8.19923C55.9963 4.41743 53.6522 1.08178 47.8324 1.08178ZM165.54 9.60425C165.572 9.76315 165.583 9.91527 165.583 10.0606C165.583 11.6585 163.879 12.4768 163.879 12.4768H131.782C131.782 12.4768 130.079 11.6585 130.079 10.0606C130.079 9.91527 130.093 9.76315 130.123 9.60425H142.034L143.214 10.9964L143.488 9.60425H151.55L152.611 10.8015L153.625 9.60425H165.54ZM150.105 5.40481L151.054 8.29498H143.495L143.609 5.40481H150.105ZM169.078 5.42383C169.108 5.58273 169.12 5.73553 169.12 5.88289C169.12 7.47941 167.419 8.29702 167.419 8.29702H154.73L157.161 5.42518L169.078 5.42383ZM138.499 5.42383L140.929 8.29566H128.244C128.244 8.29566 126.541 7.47737 126.541 5.88017C126.541 5.73349 126.556 5.58273 126.586 5.42247L138.499 5.42383ZM172.616 1.24272C172.65 1.40095 172.661 1.55578 172.661 1.7011C172.661 3.29694 170.957 4.11592 170.957 4.11592H158.269L160.701 1.24408H172.614L172.616 1.24272ZM151.927 3.44838C151.255 3.44838 150.865 3.55092 150.649 4.25377H143.528L143.526 4.17092C143.512 2.71361 144.276 1.31946 144.317 1.25087C144.367 1.16463 144.43 1.08178 144.541 1.08178L151.176 1.08246C151.847 1.08246 153.454 2.02503 153.6 3.44838H151.927ZM124.705 4.11524C124.705 4.11524 123.003 3.29627 123.003 1.7011C123.003 1.5551 123.018 1.40231 123.049 1.24205H134.959L137.392 4.11388L124.705 4.11524ZM150.483 17.8279L151.225 19.9928H149.093L149.857 17.8279H150.483ZM151.898 21.9724L152.067 22.4701H151.14V22.9237H154.289V22.4701H153.37L153.195 21.9724H155.035C155.044 22.0104 155.077 22.1937 155.077 22.4674C155.077 23.706 154.39 24.6357 153.296 25.1532L142.354 25.1518C140.814 24.413 140.579 23.1329 140.579 22.4436C140.579 22.1822 140.614 22.0049 140.621 21.9724H141.433C142.013 22.6474 142.801 23.118 143.754 23.118C144.888 23.118 145.038 22.4443 145.664 22.4443C145.807 22.4443 145.934 22.5795 145.967 22.9271H146.417V21.9764H147.894L147.715 22.4735H147.054V22.9271H148.874V22.4728H148.214L148.391 21.9751L151.898 21.9724ZM143.895 14.6315C144.298 14.6315 144.592 14.7469 144.819 14.8569C144.927 14.9099 145.162 15.0518 145.278 15.0518C145.518 15.0518 145.623 14.9629 145.674 14.6648H146.082V16.8297H149.739L150.586 14.4671L151.407 16.8297H160.384C161.928 16.084 162.152 14.8814 162.152 14.1731C162.152 13.9062 162.122 13.7168 162.116 13.6489H133.554C133.529 13.7882 133.517 13.9297 133.52 14.0712C133.52 14.7517 133.744 16.0725 135.32 16.831H140.759C141.322 15.6515 142.367 14.6315 143.895 14.6315ZM137.089 17.8272C137.077 17.8415 137.043 18.0208 137.043 18.289C137.043 18.9681 137.284 20.2292 138.805 20.9632C139.703 20.97 139.526 20.9741 140.781 20.9755C140.447 20.2909 140.269 19.5412 140.269 18.8812C140.269 18.5559 140.312 18.1967 140.403 17.8306L137.089 17.8272ZM148.747 20.9714L148.939 20.4302H151.377L151.56 20.9714H148.747ZM151.756 17.8279L158.58 17.8293C158.584 17.8463 158.615 18.0106 158.615 18.2591C158.615 18.9314 158.395 20.2271 156.847 20.9714H152.843L151.756 17.8279ZM149.384 17.8279L141.806 17.8266C141.776 18.1764 141.762 18.5274 141.764 18.8785C141.764 19.5202 141.802 20.2923 141.975 20.9727L145.23 20.9714V19.8197L144.496 19.8183V19.366H147.045V19.8183L146.419 19.8197V20.9714H148.256L149.384 17.8279Z" fill="#949494"/>
<path d="M145.001 21.9725C144.874 22.1891 144.691 22.368 144.473 22.4909C144.254 22.6138 144.006 22.6763 143.755 22.672C143.132 22.672 142.701 22.3969 142.407 21.9725H145.001ZM141.973 16.8312C142.214 15.8832 142.751 15.0859 143.905 15.0859C144.554 15.0859 145.294 15.6007 145.582 16.8312H141.973Z" fill="#949494"/>
</g>
<defs>
<clipPath id="clip0">
<rect width="271.967" height="26" fill="white"/>
</clipPath>
</defs>
</svg>
