<svg width="125" height="60" viewBox="0 0 125 60" fill="none" xmlns="http://www.w3.org/2000/svg">
<g clip-path="url(#clip0)">
<path fill-rule="evenodd" clip-rule="evenodd" d="M0 1.72116H13.2754C16.45 1.72116 19.5765 1.9602 22.6549 2.48608C25.7332 2.96416 28.6192 4.30283 31.3128 6.45421C33.862 8.60559 35.8341 11.3307 37.2771 14.6295C38.7201 17.9283 39.4897 21.3228 39.634 24.8606C39.6821 25.0996 39.6821 25.3387 39.6821 25.6255C39.6821 25.8646 39.6821 26.1036 39.6821 26.3904C39.6821 26.4382 39.6821 26.5339 39.6821 26.6295C39.6821 26.6773 39.6821 26.7729 39.6821 26.9164C39.634 30.5498 38.8644 34.0877 37.4214 37.4821C35.9784 40.8765 33.9102 43.6972 31.1204 45.8964C28.6673 47.6654 26.0699 48.8128 23.2801 49.3386C20.5384 49.8645 17.6525 50.1992 14.7665 50.2948C14.2855 50.2948 13.8046 50.2948 13.3236 50.2948C12.7944 50.2948 12.3134 50.2948 11.7844 50.2948H0V1.72116ZM9.71614 41.5458C10.0528 41.5458 10.3895 41.5458 10.7743 41.5937C11.1591 41.5937 11.5439 41.5937 11.9768 41.5937C12.1211 41.5937 12.2173 41.5937 12.4097 41.5937C12.5059 41.5937 12.6021 41.5937 12.7463 41.5937C13.0831 41.6415 13.3236 41.6893 13.6122 41.6893C13.9008 41.6893 14.1894 41.6893 14.4299 41.6893C14.9109 41.6893 15.3438 41.6415 15.8248 41.6415C16.3058 41.6415 16.7868 41.5937 17.2677 41.5458C18.7107 41.4024 20.1056 41.1634 21.5005 40.7809C22.8472 40.3506 24.0498 39.7769 25.0598 38.9164C26.5991 37.6255 27.8015 35.8087 28.5711 33.6096C29.3888 31.3625 29.8217 29.0678 29.8217 26.6773C29.8217 26.5817 29.8217 26.5339 29.8217 26.486C29.8217 26.3904 29.8217 26.2948 29.8217 26.1992C29.8217 26.1035 29.8217 26.0079 29.8217 25.9124C29.8217 25.8646 29.8217 25.7689 29.8217 25.6733C29.8217 23.2829 29.3888 20.9881 28.6192 18.7889C27.8496 16.5418 26.6952 14.7252 25.2042 13.3386C24.0979 12.3347 22.8473 11.6175 21.4043 11.2351C20.0094 10.8526 18.5184 10.6614 16.9792 10.5657C16.6425 10.5179 16.3058 10.5179 15.969 10.5179C15.6804 10.5179 15.2956 10.5179 14.959 10.5179H9.71614V41.5458ZM67.0506 49.5299L64.1166 46.0398C62.8179 47.1872 61.375 48.1434 59.6914 48.9083C58.056 49.6733 56.3244 50.1035 54.6409 50.247C54.4486 50.247 54.3043 50.2948 54.1119 50.2948C53.9195 50.2948 53.7752 50.2948 53.5829 50.2948C53.198 50.2948 52.8614 50.247 52.4766 50.247C52.0917 50.1992 51.7069 50.1513 51.3222 50.1035C50.6007 49.9601 49.8792 49.7688 49.1097 49.5299C48.3881 49.243 47.7147 48.9083 47.0414 48.5258C45.8389 47.7131 44.8769 46.6135 44.1554 45.2748C43.434 43.9362 42.9529 42.5497 42.8087 41.1633C42.8087 40.9721 42.8087 40.8286 42.8087 40.6852C42.8087 40.494 42.8087 40.3506 42.8087 40.2072C42.8087 40.1115 42.8087 39.9681 42.8087 39.8247C42.8087 39.6812 42.8087 39.5378 42.8087 39.3944C42.8087 39.3466 42.8568 39.2988 42.8568 39.2988C42.9049 39.2031 42.9049 39.2031 42.9049 39.1075C42.9049 39.0597 42.9049 38.9642 42.9049 38.8685C42.953 38.7728 42.953 38.6772 42.953 38.6295C43.3378 36.5259 44.2035 34.8047 45.5985 33.4183C47.0415 32.0319 48.5807 30.8367 50.2641 29.7849C49.2059 28.6375 48.3401 27.4423 47.6668 26.1514C46.9453 24.9084 46.6086 23.5697 46.6086 22.2311C46.6086 21.9442 46.6086 21.7052 46.6568 21.3705C46.7049 21.1314 46.7049 20.8446 46.753 20.6056C46.8011 20.4143 46.8492 20.2231 46.8973 20.0318C46.9454 19.8406 46.9935 19.6493 47.0416 19.5059C47.6188 17.6414 48.7732 16.3027 50.4567 15.49C52.1402 14.6294 53.9198 14.1992 55.7958 14.1992C58.2007 14.1992 60.3652 14.8207 62.3372 16.1116C64.3093 17.4024 65.3194 19.267 65.3194 21.753V22.3744C65.1752 23.9044 64.5979 25.243 63.5879 26.3904C62.5777 27.49 61.5196 28.494 60.3652 29.4023C60.0765 29.5458 59.8361 29.6892 59.5956 29.8804C59.3551 30.0716 59.1145 30.215 58.8741 30.4062L64.8385 37.3385C65.1752 37.0517 65.4637 36.717 65.7524 36.4301C66.0891 36.1432 66.3296 35.8565 66.6182 35.5218C67.1954 34.9481 67.8207 34.3266 68.3978 33.7051C68.975 33.0835 69.5522 32.4621 70.0813 31.8405L74.0736 35.9999C73.5926 36.478 73.1597 36.9561 72.6787 37.4342C72.2458 37.8645 71.8129 38.3425 71.38 38.8684C70.8509 39.2987 70.4181 39.7768 69.937 40.2549C69.5042 40.733 69.0712 41.2111 68.6383 41.6413L75.1799 49.5298H67.0506V49.5299ZM50.1196 42.2152C50.5044 42.6932 50.8892 43.1235 51.2259 43.4582C51.6107 43.7928 51.9955 44.0318 52.3802 44.2231C52.7651 44.4621 53.1498 44.6055 53.5346 44.7012C53.9195 44.7968 54.2561 44.8445 54.6409 44.8445C55.4105 44.8445 56.1802 44.6533 56.8536 44.3665C57.527 44.0796 58.1523 43.6971 58.7294 43.2668C59.2104 42.9322 59.8358 42.4063 60.4611 41.7848L53.7752 33.8485C53.5829 33.9442 53.4385 34.0398 53.2942 34.1354C53.1499 34.231 53.0056 34.3267 52.9095 34.4223C52.1879 35.0438 51.5145 35.7132 50.8893 36.4781C50.264 37.243 49.783 38.008 49.5425 38.8685C49.4944 39.0597 49.4463 39.2509 49.3982 39.4422C49.3501 39.6812 49.3501 39.9202 49.3501 40.1115C49.3501 40.494 49.3982 40.8286 49.5425 41.2111C49.6868 41.5458 49.8791 41.8805 50.1196 42.2152ZM55.4587 26.9641C55.5068 26.9641 55.5549 26.9163 55.603 26.9163C55.6511 26.8685 55.6511 26.8685 55.7473 26.8207C55.7954 26.7729 55.8435 26.7729 55.8916 26.6772C55.8916 26.6772 55.9397 26.6772 55.9878 26.6772C56.7093 26.1513 57.4308 25.5776 58.056 25.0039C58.6813 24.4302 59.0661 23.6652 59.3066 22.7569V22.0875C59.3066 21.1314 58.9219 20.3187 58.2485 19.7449C57.6231 19.1712 56.8536 18.8365 56.0839 18.6932C56.0358 18.6932 55.9397 18.6932 55.8916 18.6932C55.7953 18.6932 55.7473 18.6932 55.651 18.6932C55.6029 18.6932 55.5548 18.6932 55.5068 18.6932C55.4587 18.6932 55.3624 18.6932 55.3144 18.6932C54.7372 18.7409 54.16 19.0278 53.5828 19.4581C53.0536 19.8884 52.7651 20.5099 52.6688 21.3704C52.6688 21.3704 52.6688 21.4661 52.6688 21.5139C52.6207 21.5617 52.6207 21.6095 52.6207 21.7051C52.6207 21.7529 52.6207 21.7529 52.6207 21.8486C52.5727 21.8964 52.5727 21.9442 52.5727 22.0398C52.5727 22.7569 52.7651 23.4741 53.1979 24.0956C53.5827 24.7171 54.0637 25.3387 54.4966 25.9124C54.7371 26.1036 54.8814 26.2948 55.0257 26.4382C55.1701 26.6295 55.3144 26.8207 55.4587 26.9641ZM124.962 23.8566V25.4821C124.962 29.8327 124.241 33.9443 122.75 37.7689C121.307 41.6415 118.469 44.749 114.188 47.0917C112.841 48 111.35 48.6215 109.715 49.1474C108.079 49.5777 106.444 49.9602 104.857 50.1514C104.232 50.1993 103.702 50.2471 103.173 50.2471C102.596 50.2471 102.067 50.2949 101.538 50.2949C101.201 50.2949 100.913 50.2949 100.576 50.2949C100.287 50.2949 99.9987 50.2471 99.6621 50.1993C95.7179 49.9602 91.9181 48.9084 88.2625 46.9961C84.6069 45.1315 81.6248 42.5499 79.3641 39.3944C78.2579 37.6734 77.3921 35.8087 76.7187 33.8965C76.0453 31.9841 75.5643 30.0239 75.3719 28.016C75.3238 27.6336 75.2756 27.2032 75.2276 26.773C75.2276 26.3427 75.1795 25.9125 75.1795 25.4821C75.1795 20.7969 76.4301 16.3985 78.8351 12.1913C81.2882 7.93632 84.7513 4.78098 89.1764 2.58174C90.1384 2.10365 91.1004 1.72116 92.1105 1.43432C93.1206 1.14748 94.1307 0.860648 95.1889 0.621537C96.199 0.382495 97.1609 0.239111 98.171 0.143453C99.133 0.0477947 100.143 0 101.057 0C101.153 0 101.297 0 101.442 0C101.538 0 101.682 0 101.778 0C105.626 0.095658 109.33 1.00403 112.937 2.67726C116.545 4.39842 119.671 6.74104 122.269 9.70514L115.198 14.8207C113.274 12.9083 111.254 11.4741 109.041 10.4223C106.877 9.37044 104.568 8.84456 102.115 8.84456C101.297 8.84456 100.48 8.94022 99.6621 8.98801C98.7963 9.13147 97.9305 9.27485 97.0647 9.4661C93.4573 10.5657 90.7157 12.6693 88.8879 15.7291C87.0601 18.7888 86.1462 21.992 86.1462 25.482C86.1462 25.6732 86.1462 25.9601 86.1462 26.247C86.1943 26.5338 86.2424 26.7729 86.2905 27.0598C86.2905 27.2032 86.2905 27.3466 86.3386 27.4422C86.3867 27.5856 86.3867 27.729 86.3867 27.8725C86.4347 27.9681 86.4347 28.1115 86.4828 28.255C86.531 28.3984 86.531 28.5418 86.531 28.6375C87.1562 32.4144 88.7917 35.3785 91.4371 37.5299C94.0826 39.6813 96.9685 40.9721 100.047 41.4024C100.432 41.5459 100.913 41.5937 101.394 41.6415C101.875 41.6415 102.308 41.6415 102.74 41.6415C105.674 41.6415 108.272 40.8765 110.581 39.2989C112.889 37.7211 114.044 35.5219 114.044 32.5578L114.188 32.271H102.163V23.8566H124.962ZM34.0063 54.6454H34.7278H34.7758H35.834C37.1327 54.6454 38.239 55.7928 38.239 57.2271C38.239 58.6614 37.1327 59.8088 35.834 59.8088H34.7758H34.6796H34.0062V54.6454H34.0063ZM34.7759 55.267V59.1873H35.6417C36.796 59.1873 37.4214 58.2311 37.4214 57.275C37.4214 56.271 36.796 55.4583 35.8341 55.3148L34.7759 55.267ZM41.3655 54.5498C42.9528 54.5498 44.2034 55.745 44.2034 57.2271C44.2034 58.7092 42.9528 59.9522 41.3655 59.9522C39.7782 59.9522 38.4795 58.7091 38.4795 57.2271C38.4796 55.745 39.7783 54.5498 41.3655 54.5498ZM41.3655 55.1713C42.5199 55.1713 43.4338 56.0797 43.4338 57.227C43.4338 58.3266 42.5199 59.235 41.3655 59.235C40.2112 59.235 39.2972 58.3266 39.2972 57.227C39.2972 56.0797 40.2111 55.1713 41.3655 55.1713ZM44.4439 54.6454H45.2135V59.1872H46.7046V59.8088H45.2135H44.8768H44.4439V54.6454ZM49.1576 54.502C49.7349 54.502 50.312 54.6932 50.793 54.98V55.9362C50.4082 55.4581 49.783 55.1712 49.1576 55.1712C48.0032 55.1712 47.0894 56.0796 47.0894 57.2269C47.0894 58.3266 48.0033 59.2827 49.1576 59.2827C49.783 59.2827 50.4082 58.9959 50.793 58.5178V59.474C50.312 59.8086 49.7349 59.9521 49.1576 59.9521C47.6184 59.9521 46.3198 58.709 46.3198 57.2269C46.3198 55.745 47.6184 54.502 49.1576 54.502ZM51.8031 59.1872H53.679V59.8088H51.8031H51.0335V59.1872V57.3705V56.749V55.2669V54.6454H51.8031H53.679V55.2669H51.8031V56.749H53.679V57.3705H51.8031V59.1872ZM56.565 59.4741C56.5169 59.5697 56.4207 59.6176 56.2764 59.6654C56.1802 59.7132 56.084 59.761 55.9397 59.8088H55.8917C55.8435 59.8088 55.7954 59.8088 55.7954 59.8088C55.6992 59.8088 55.6511 59.8088 55.5549 59.8088C55.4587 59.761 55.4106 59.7132 55.3144 59.6654C55.2663 59.6176 55.2183 59.5219 55.1221 59.4263C55.1221 59.3307 55.0739 59.2351 55.0258 59.1873V59.1395C55.0258 59.0917 55.0258 59.0917 55.0258 59.0917C55.0258 59.0439 55.0258 59.0439 55.0258 59.0439H55.0739C55.0739 58.996 55.0739 58.996 55.0739 58.996C55.0739 58.996 55.0739 58.996 55.0739 58.9482C55.1221 58.8049 55.1702 58.7092 55.2663 58.5658C55.4107 58.518 55.5068 58.4224 55.6512 58.3268C55.6031 58.2311 55.5069 58.1355 55.4587 58.0399C55.4107 57.9921 55.3625 57.8965 55.3625 57.8008V57.753C55.3625 57.753 55.3625 57.753 55.3625 57.7052C55.3625 57.6574 55.3625 57.6574 55.3625 57.6574C55.4106 57.6574 55.4106 57.6574 55.4106 57.6574C55.4106 57.514 55.5068 57.4662 55.603 57.3705C55.6992 57.2749 55.7954 57.2749 55.8917 57.2749C55.8917 57.2749 55.8917 57.2749 55.9397 57.2749C55.9397 57.2749 55.9397 57.2749 55.9878 57.2749C56.1321 57.2749 56.2765 57.3227 56.3726 57.4183C56.4688 57.514 56.517 57.6096 56.517 57.8008C56.517 57.9443 56.517 58.0399 56.4207 58.1355C56.2764 58.2789 56.1802 58.3267 56.084 58.4223L56.6612 59.0916C56.6612 59.0438 56.7094 58.9482 56.8055 58.9004C56.8536 58.8048 56.8536 58.7569 56.9498 58.7091L57.0941 58.9004C57.0941 58.9482 57.046 58.996 56.9979 59.0438C56.9498 59.0916 56.9016 59.1872 56.8536 59.2351C56.8536 59.2351 56.8536 59.2351 56.8055 59.2351V59.2829L57.1903 59.761H56.8536L56.565 59.4741ZM55.8916 59.5697C55.9878 59.5697 56.0839 59.5219 56.1802 59.4741C56.2283 59.4263 56.3245 59.3307 56.3726 59.2829C56.4207 59.2829 56.4207 59.2829 56.4207 59.2829C56.4207 59.2829 56.4207 59.2829 56.4207 59.2351L55.7954 58.518C55.7954 58.5658 55.7954 58.5658 55.7473 58.5658C55.651 58.6135 55.651 58.6613 55.603 58.6613C55.5068 58.7091 55.5068 58.757 55.4587 58.8048C55.4106 58.8048 55.4106 58.8526 55.4106 58.9004V58.9482C55.3625 58.996 55.3625 59.0438 55.3625 59.0438V59.0916C55.3625 59.2351 55.4106 59.3307 55.5068 59.4263C55.6031 59.5219 55.6992 59.5697 55.8435 59.5697H55.8916ZM55.6511 57.753V57.8008C55.6511 57.8486 55.6511 57.8964 55.6992 57.992C55.7473 58.0398 55.7955 58.0876 55.7955 58.1354C55.8436 58.1354 55.8436 58.1354 55.8917 58.1832H55.9398C56.036 58.1354 56.0841 58.1354 56.1322 58.0397C56.1803 57.9919 56.2285 57.9441 56.2765 57.8485C56.2765 57.8007 56.2765 57.8007 56.2765 57.8007C56.2765 57.705 56.2285 57.6573 56.1803 57.6094C56.1322 57.5616 56.036 57.5138 55.9879 57.5138C55.9398 57.5138 55.9398 57.5138 55.9398 57.5138C55.8917 57.5138 55.7956 57.5138 55.7474 57.6094C55.6992 57.6096 55.6511 57.6574 55.6511 57.753ZM61.375 54.502C62.385 54.502 63.2989 55.0278 63.828 55.7928L63.1546 56.1274C62.7698 55.5537 62.1445 55.1712 61.375 55.1712C60.2206 55.1712 59.3067 56.0796 59.3067 57.2269C59.3067 58.3744 60.2206 59.2827 61.375 59.2827C62.3369 59.2827 63.1065 58.8047 63.2027 57.8007H61.5192V57.2269H63.1065C63.1065 57.2269 63.9242 57.2269 64.0204 57.2269C64.0204 57.2269 64.0204 55.6493 64.0204 57.2269C64.0204 58.8525 63.1065 59.9999 61.375 59.9999C59.5953 59.9999 58.489 58.7569 58.489 57.2269C58.489 55.6972 59.7877 54.502 61.375 54.502ZM63.5875 59.8088L65.7038 54.6454H66.2329L68.3493 59.8088H67.5316L66.9544 58.3267H64.9823L64.4052 59.8088H63.5875ZM65.271 57.7052L65.9925 55.8406L66.6659 57.7052H65.271ZM75.9009 59.8088L78.0173 54.6454H78.5464L80.6628 59.8088H79.8451L79.2679 58.3267H77.2958L76.7187 59.8088H75.9009ZM77.5844 57.7052L78.3059 55.8406L79.0274 57.7052H77.5844ZM86.1461 59.8088L88.3106 54.6454H88.7916L90.9561 59.8088H90.1384L89.5131 58.3267H87.5891L86.9638 59.8088H86.1461ZM87.8777 57.7052L88.5511 55.8406L89.2726 57.7052H87.8777ZM70.2252 55.267C70.7543 55.3148 70.9467 55.506 70.9467 56.0319C70.9467 56.5578 70.5619 56.7969 70.129 56.7969H69.4556V55.267H70.2252ZM70.2733 57.4183H70.3214C70.7062 57.4183 71.3796 57.514 71.3796 58.3267C71.3796 59.0438 70.8024 59.1873 70.2252 59.1873H70.3215H69.4557V57.4183H70.1291H70.2733ZM69.2632 59.8088H69.4557H70.61C71.5239 59.8088 72.1973 59.1872 72.1973 58.3267C72.1973 57.6574 71.7644 57.1793 71.1872 56.988C71.5239 56.749 71.7163 56.3666 71.7163 55.9363C71.7163 55.1713 71.1872 54.6454 70.4176 54.6454C69.9847 54.6454 69.5518 54.6454 69.119 54.6454C69.119 54.6454 69.119 54.6454 69.0708 54.6454H68.6379V59.8088H69.2632ZM74.1694 55.267C74.6504 55.3148 74.8428 55.506 74.8909 56.0319C74.8909 56.5578 74.5061 56.7969 74.0732 56.7969H73.3997V55.267H74.1694ZM74.2175 57.4183C74.6023 57.4183 75.2756 57.514 75.2756 58.3267C75.2756 59.0438 74.6985 59.1873 74.1212 59.1873H74.2656H73.3997V57.4183H74.0732H74.2175ZM73.2074 59.8088H73.3998H74.5541C75.468 59.8088 76.0934 59.1872 76.0934 58.3267C76.0934 57.6574 75.7085 57.1793 75.1314 56.988C75.468 56.749 75.6605 56.3666 75.6605 55.9363C75.6605 55.1713 75.1314 54.6454 74.3618 54.6454C73.9289 54.6454 73.496 54.6454 73.0631 54.6454C73.0151 54.6454 73.0151 54.6454 73.0151 54.6454H72.5822V59.8088H73.2074ZM81.0476 54.6454H81.5286L85.1842 58.4702V54.6454H85.8576V59.8088H85.3284L81.7691 56.0319V59.8088H81.0476V54.6454Z" fill="#949494"/>
</g>
<defs>
<clipPath id="clip0">
<rect width="124.962" height="60" fill="white"/>
</clipPath>
</defs>
</svg>
